<?xml version="1.0" encoding="UTF-8" standalone="no"?>
<!-- Created with Inkscape (http://www.inkscape.org/) -->

<svg
   xmlns:dc="http://purl.org/dc/elements/1.1/"
   xmlns:cc="http://creativecommons.org/ns#"
   xmlns:rdf="http://www.w3.org/1999/02/22-rdf-syntax-ns#"
   xmlns:svg="http://www.w3.org/2000/svg"
   xmlns="http://www.w3.org/2000/svg"
   xmlns:sodipodi="http://sodipodi.sourceforge.net/DTD/sodipodi-0.dtd"
   xmlns:inkscape="http://www.inkscape.org/namespaces/inkscape"
   id="svg2876"
   version="1.1"
   inkscape:version="0.48.0 r9654"
   width="1052.3625"
   height="744.095"
   xml:space="preserve"
   sodipodi:docname="netsniff_logo3_paths.svg"><metadata
     id="metadata2882"><rdf:RDF><cc:Work
         rdf:about=""><dc:format>image/svg+xml</dc:format><dc:type
           rdf:resource="http://purl.org/dc/dcmitype/StillImage" /><dc:title></dc:title></cc:Work></rdf:RDF></metadata><defs
     id="defs2880"><inkscape:perspective
       sodipodi:type="inkscape:persp3d"
       inkscape:vp_x="0 : 0.5 : 1"
       inkscape:vp_y="0 : 1000 : 0"
       inkscape:vp_z="1 : 0.5 : 1"
       inkscape:persp3d-origin="0.5 : 0.33333333 : 1"
       id="perspective2884" /><clipPath
       clipPathUnits="userSpaceOnUse"
       id="clipPath2894"><path
         d="m 0,595.276 841.89,0 L 841.89,0 0,0 0,595.276 z"
         id="path2896" /></clipPath><clipPath
       clipPathUnits="userSpaceOnUse"
       id="clipPath2910"><path
         d="m 225.441,333.699 c 0,0 1.208,-17.148 17.626,-17.148 l 0,0 c 11.937,0 19.858,25.665 19.858,25.665 l 0,0 -37.484,-8.517 z"
         id="path2912" /></clipPath><clipPath
       clipPathUnits="userSpaceOnUse"
       id="clipPath2930"><path
         d="m 197.859,316.551 c 16.418,0 17.623,17.148 17.623,17.148 l 0,0 -37.482,8.517 c 0,0 7.919,-25.665 19.859,-25.665"
         id="path2932" /></clipPath><clipPath
       clipPathUnits="userSpaceOnUse"
       id="clipPath2950"><path
         d="m 0,595.276 841.89,0 L 841.89,0 0,0 0,595.276 z"
         id="path2952" /></clipPath></defs><sodipodi:namedview
     pagecolor="#ffffff"
     bordercolor="#666666"
     borderopacity="1"
     objecttolerance="10"
     gridtolerance="10"
     guidetolerance="10"
     inkscape:pageopacity="0"
     inkscape:pageshadow="2"
     inkscape:window-width="1272"
     inkscape:window-height="912"
     id="namedview2878"
     showgrid="false"
     inkscape:zoom="0.89707474"
     inkscape:cx="579.29172"
     inkscape:cy="185.15464"
     inkscape:window-x="1280"
     inkscape:window-y="24"
     inkscape:window-maximized="0"
     inkscape:current-layer="g2886" /><g
     id="g2886"
     inkscape:groupmode="layer"
     inkscape:label="netsniff_logo"
     transform="matrix(1.25,0,0,-1.25,0,744.095)"><g
   id="g3206"
   transform="translate(401.30436,-156.06281)"><path
     id="path2888"
     style="fill:#000000;fill-opacity:1;fill-rule:nonzero;stroke:none"
     d="m 281.208,257.234 -120.436,0 0,120.437 120.436,0 0,-120.437 z" /><g
     id="g2890"><g
       clip-path="url(#clipPath2894)"
       id="g2892"><g
         transform="translate(258.8047,377.5952)"
         id="g2898"><path
           id="path2900"
           style="fill:#e1262f;fill-opacity:1;fill-rule:nonzero;stroke:none"
           d="m 0,0 c 0,0 16.933,6.35 21.872,16.932 4.18,8.949 -0.705,39.509 -0.705,39.509 0,0 29.259,-27.979 24.693,-50.798 -6.351,-31.748 -34.57,-35.98 -34.57,-35.98 L 0,0 z" /></g><g
         transform="translate(183.0459,377.7241)"
         id="g2902"><path
           id="path2904"
           style="fill:#e1262f;fill-opacity:1;fill-rule:nonzero;stroke:none"
           d="m 0,0 c 0,0 -16.932,6.35 -21.871,16.932 -4.18,8.949 0.705,39.508 0.705,39.508 0,0 -29.258,-27.979 -24.694,-50.797 6.352,-31.747 34.57,-35.979 34.57,-35.979 L 0,0 z" /></g></g></g><g
     id="g2906"><g
       clip-path="url(#clipPath2910)"
       id="g2908"><g
         transform="translate(225.4414,333.6992)"
         id="g2914"><path
           id="path2916"
           style="fill:#ffffff;fill-opacity:1;fill-rule:nonzero;stroke:none"
           d="m 0,0 37.483,8.517 c 0,0 -7.92,-25.665 -19.858,-25.665 C 1.207,-17.148 0,0 0,0" /></g><g
         transform="translate(253.1895,334.4102)"
         id="g2918"><path
           id="path2920"
           style="fill:#e1262f;fill-opacity:1;fill-rule:nonzero;stroke:none"
           d="m 0,0 c 0,-5.793 -4.692,-10.488 -10.486,-10.488 -5.794,0 -10.487,4.695 -10.487,10.488 0,5.793 4.693,10.486 10.487,10.486 C -4.692,10.486 0,5.793 0,0" /></g><g
         transform="translate(248.7236,334.4102)"
         id="g2922"><path
           id="path2924"
           style="fill:#222222;fill-opacity:1;fill-rule:nonzero;stroke:none"
           d="m 0,0 c 0,-3.324 -2.694,-6.02 -6.021,-6.02 -3.323,0 -6.017,2.696 -6.017,6.02 0,3.326 2.694,6.02 6.017,6.02 C -2.694,6.02 0,3.326 0,0" /></g></g></g><g
     id="g2928"
     clip-path="url(#clipPath2930)"><g
       id="g2934"
       transform="translate(215.4824,333.6992)"><path
         d="m 0,0 -37.482,8.517 c 0,0 7.919,-25.665 19.858,-25.665 C -1.205,-17.148 0,0 0,0"
         style="fill:#ffffff;fill-opacity:1;fill-rule:nonzero;stroke:none"
         id="path2936" /></g><g
       id="g2938"
       transform="translate(198.2197,344.896)"><path
         d="m 0,0 c 5.795,0 10.486,-4.693 10.486,-10.486 0,-5.793 -4.691,-10.488 -10.486,-10.488 -5.791,0 -10.486,4.695 -10.486,10.488 C -10.486,-4.693 -5.791,0 0,0"
         style="fill:#e1262f;fill-opacity:1;fill-rule:nonzero;stroke:none"
         id="path2940" /></g><g
       id="g2942"
       transform="translate(192.2012,334.4102)"><path
         d="m 0,0 c 0,-3.324 2.695,-6.02 6.019,-6.02 3.326,0 6.018,2.696 6.018,6.02 0,3.326 -2.692,6.02 -6.018,6.02 C 2.695,6.02 0,3.326 0,0"
         style="fill:#222222;fill-opacity:1;fill-rule:nonzero;stroke:none"
         id="path2944" /></g></g><path
     transform="matrix(0.8,0,0,-0.8,0,595.276)"
     id="path3075"
     d="m 242.91785,330.87289 c -2.27876,-2.27875 -2.7855,-6.15725 -1.09278,-8.36388 0.90674,-1.18203 1.42519,-1.18484 6.50294,-0.0353 6.07681,1.37577 6.92281,2.04345 6.28406,4.95957 -1.15004,5.25034 -7.89854,7.23525 -11.69422,3.43957 l 0,0 z"
     style="fill:#000000" /><path
     transform="matrix(0.8,0,0,-0.8,0,595.276)"
     id="path3077"
     d="m 299.68657,332.05826 c -1.70672,-0.99209 -3.83021,-5.65567 -3.25626,-7.15135 0.21908,-0.57094 2.96453,-1.62814 6.101,-2.34935 5.2476,-1.20665 5.78128,-1.20966 6.68795,-0.0377 0.54191,0.70047 0.9853,2.39889 0.9853,3.77427 0,4.96863 -6.1183,8.32162 -10.51799,5.76413 z"
     style="fill:#000000" /></g>

<g
   transform="scale(1,-1)"
   style="font-size:32px;font-style:normal;font-variant:normal;font-weight:500;font-stretch:normal;line-height:125%;letter-spacing:0px;word-spacing:0px;fill:#000000;fill-opacity:1;stroke:none;font-family:WenQuanYi Zen Hei;-inkscape-font-specification:WenQuanYi Zen Hei Medium"
   id="text4750"><path
     d="m 73.110817,-143.22699 0,-33.14062 c -4e-5,-4.06247 -0.828165,-7.10934 -2.484375,-9.14063 -1.625036,-2.03121 -4.187534,-3.04683 -7.6875,-3.04687 -2.531278,4e-5 -4.656276,0.40629 -6.375,1.21875 -1.718772,0.81254 -3.109396,2.01566 -4.171875,3.60937 -1.031269,1.59379 -1.781268,3.54691 -2.25,5.85938 -0.437517,2.31253 -0.656267,4.96877 -0.65625,7.96875 l 0,26.67187 -8.53125,0 0,-51.46875 6.9375,0 1.21875,6.9375 0.46875,0 c 0.781232,-1.3437 1.703106,-2.49995 2.765625,-3.46875 1.093729,-0.99995 2.281228,-1.82807 3.5625,-2.48437 1.281226,-0.6562 2.640599,-1.14058 4.078125,-1.45313 1.437471,-0.31245 2.90622,-0.4687 4.40625,-0.46875 5.718713,5e-5 10.015583,1.50005 12.890625,4.5 2.906203,2.9688 4.359326,7.73442 4.359375,14.29688 l 0,33.60937 -8.53125,0"
     style="font-size:96px;font-weight:normal;font-family:WenQuanYi Micro Hei;-inkscape-font-specification:WenQuanYi Micro Hei"
     id="path5548" /><path
     d="m 117.92332,-142.28949 c -3.43753,0 -6.57815,-0.57813 -9.42188,-1.73437 -2.84376,-1.15625 -5.29689,-2.84375 -7.35937,-5.0625 -2.031263,-2.21875 -3.609386,-4.96874 -4.734378,-8.25 -1.125006,-3.28124 -1.687505,-7.03123 -1.6875,-11.25 -5e-6,-4.24998 0.515619,-8.04685 1.546875,-11.39063 1.031242,-3.34371 2.484366,-6.17183 4.359373,-8.48437 1.87499,-2.34371 4.10936,-4.12496 6.70313,-5.34375 2.62498,-1.2187 5.5156,-1.82808 8.67187,-1.82813 3.09372,5e-5 5.87497,0.56255 8.34375,1.6875 2.46871,1.0938 4.56246,2.6563 6.28125,4.6875 1.71871,2.00004 3.03121,4.42192 3.9375,7.26563 0.93746,2.81253 1.40621,5.93753 1.40625,9.375 l 0,5.29687 -32.4375,0 c 0.15624,6.03127 1.42186,10.46876 3.79688,13.3125 2.40623,2.84376 5.96872,4.26563 10.6875,4.26563 1.59372,0 3.06247,-0.0781 4.40625,-0.23438 1.37496,-0.15624 2.68746,-0.37499 3.9375,-0.65625 1.28121,-0.31249 2.51558,-0.68749 3.70312,-1.125 1.18746,-0.46874 2.39058,-0.98437 3.60938,-1.54687 l 0,7.59375 c -1.25005,0.59375 -2.48442,1.10937 -3.70313,1.54687 -1.18754,0.4375 -2.42191,0.79688 -3.70312,1.07813 -1.25004,0.28124 -2.56254,0.48437 -3.9375,0.60937 -1.34378,0.125 -2.81253,0.1875 -4.40625,0.1875 m -2.10938,-46.26562 c -3.56252,4e-5 -6.39064,1.21879 -8.48437,3.65625 -2.06252,2.43753 -3.26564,5.98441 -3.60938,10.64062 l 23.0625,0 c -4e-5,-2.12497 -0.21879,-4.06246 -0.65625,-5.8125 -0.40628,-1.78121 -1.06253,-3.29683 -1.96875,-4.54687 -0.87503,-1.24996 -2.00003,-2.21871 -3.375,-2.90625 -1.37503,-0.68746 -3.03128,-1.03121 -4.96875,-1.03125"
     style="font-size:96px;font-weight:normal;font-family:WenQuanYi Micro Hei;-inkscape-font-specification:WenQuanYi Micro Hei"
     id="path5550" /><path
     d="m 164.51707,-149.27386 c 0.56247,0 1.18747,-0.0312 1.875,-0.0937 0.71872,-0.0625 1.40622,-0.14062 2.0625,-0.23438 0.65622,-0.0937 1.24997,-0.20312 1.78125,-0.32812 0.56247,-0.125 0.98434,-0.23437 1.26562,-0.32813 l 0,6.46875 c -0.40628,0.1875 -0.9219,0.375 -1.54687,0.5625 -0.62503,0.1875 -1.31253,0.34375 -2.0625,0.46875 -0.75003,0.15625 -1.53128,0.26562 -2.34375,0.32813 -0.81253,0.0937 -1.6094,0.14062 -2.39063,0.14062 -1.93752,0 -3.73439,-0.25 -5.39062,-0.75 -1.65627,-0.5 -3.09377,-1.35937 -4.3125,-2.57812 -1.18751,-1.21875 -2.12501,-2.85937 -2.8125,-4.92188 -0.68751,-2.09374 -1.03126,-4.71874 -1.03125,-7.875 l 0,-29.85937 -7.26563,0 0,-3.79688 7.26563,-3.65625 3.65625,-10.78125 4.92187,0 0,11.8125 12.9375,0 0,6.42188 -12.9375,0 0,29.85937 c -2e-5,3.03126 0.48436,5.31251 1.45313,6.84375 0.99998,1.53126 2.62498,2.29688 4.875,2.29688"
     style="font-size:96px;font-weight:normal;font-family:WenQuanYi Micro Hei;-inkscape-font-specification:WenQuanYi Micro Hei"
     id="path5552" /><path
     d="m 212.37644,-157.33636 c -4e-5,2.50001 -0.45316,4.6875 -1.35937,6.5625 -0.90629,1.875 -2.21879,3.45312 -3.9375,4.73437 -1.68754,1.25 -3.73441,2.1875 -6.14063,2.8125 -2.40627,0.625 -5.1094,0.9375 -8.10937,0.9375 -3.40627,0 -6.32814,-0.28125 -8.76563,-0.84375 -2.43751,-0.53125 -4.57813,-1.32812 -6.42187,-2.39062 l 0,-7.78125 c 0.96874,0.5 2.04687,1 3.23437,1.5 1.18749,0.46875 2.43749,0.89063 3.75,1.26562 1.31249,0.37501 2.65624,0.68751 4.03125,0.9375 1.40624,0.21876 2.79686,0.32813 4.17188,0.32813 2.03123,0 3.74997,-0.17187 5.15625,-0.51563 1.43747,-0.34374 2.59372,-0.82812 3.46875,-1.45312 0.90622,-0.65625 1.56247,-1.4375 1.96875,-2.34375 0.40622,-0.93749 0.60934,-1.96874 0.60937,-3.09375 -3e-5,-0.96874 -0.15628,-1.84374 -0.46875,-2.625 -0.31253,-0.78124 -0.89065,-1.54686 -1.73437,-2.29688 -0.81253,-0.78123 -1.93753,-1.56248 -3.375,-2.34375 -1.43753,-0.78123 -3.28127,-1.65623 -5.53125,-2.625 -2.25002,-0.96873 -4.28127,-1.92185 -6.09375,-2.85937 -1.78126,-0.93748 -3.29689,-1.98435 -4.54688,-3.14063 -1.25001,-1.15622 -2.21875,-2.48434 -2.90625,-3.98437 -0.65625,-1.53122 -0.98438,-3.34372 -0.98437,-5.4375 -1e-5,-2.18746 0.42187,-4.12496 1.26562,-5.8125 0.87499,-1.71871 2.09374,-3.15621 3.65625,-4.3125 1.56249,-1.1562 3.43749,-2.0312 5.625,-2.625 2.18748,-0.5937 4.62498,-0.89058 7.3125,-0.89063 3.03123,5e-5 5.79685,0.32818 8.29688,0.98438 2.53121,0.6563 4.92184,1.51567 7.17187,2.57812 l -2.95312,6.89063 c -2.03129,-0.90621 -4.12503,-1.68746 -6.28125,-2.34375 -2.12503,-0.68746 -4.2969,-1.03121 -6.51563,-1.03125 -3.18752,4e-5 -5.54689,0.53129 -7.07812,1.59375 -1.53127,1.03129 -2.29689,2.51566 -2.29688,4.45312 -1e-5,1.09379 0.17186,2.04691 0.51563,2.85938 0.37498,0.81253 0.99998,1.57816 1.875,2.29687 0.87498,0.71878 2.04685,1.45316 3.51562,2.20313 1.46873,0.71878 3.29685,1.53128 5.48438,2.4375 2.24997,0.93752 4.24997,1.87502 6,2.8125 1.78121,0.93752 3.29684,2.00002 4.54687,3.1875 1.24997,1.15627 2.20309,2.48439 2.85938,3.98437 0.65621,1.50002 0.98433,3.29689 0.98437,5.39063"
     style="font-size:96px;font-weight:normal;font-family:WenQuanYi Micro Hei;-inkscape-font-specification:WenQuanYi Micro Hei"
     id="path5554" /><path
     d="m 257.04832,-143.22699 0,-33.14062 c -4e-5,-4.06247 -0.82817,-7.10934 -2.48438,-9.14063 -1.62503,-2.03121 -4.18753,-3.04683 -7.6875,-3.04687 -2.53128,4e-5 -4.65627,0.40629 -6.375,1.21875 -1.71877,0.81254 -3.10939,2.01566 -4.17187,3.60937 -1.03127,1.59379 -1.78127,3.54691 -2.25,5.85938 -0.43752,2.31253 -0.65627,4.96877 -0.65625,7.96875 l 0,26.67187 -8.53125,0 0,-51.46875 6.9375,0 1.21875,6.9375 0.46875,0 c 0.78123,-1.3437 1.7031,-2.49995 2.76562,-3.46875 1.09373,-0.99995 2.28123,-1.82807 3.5625,-2.48437 1.28123,-0.6562 2.6406,-1.14058 4.07813,-1.45313 1.43747,-0.31245 2.90622,-0.4687 4.40625,-0.46875 5.71871,5e-5 10.01558,1.50005 12.89062,4.5 2.9062,2.9688 4.35933,7.73442 4.35938,14.29688 l 0,33.60937 -8.53125,0"
     style="font-size:96px;font-weight:normal;font-family:WenQuanYi Micro Hei;-inkscape-font-specification:WenQuanYi Micro Hei"
     id="path5556" /><path
     d="m 290.04832,-143.22699 -8.53125,0 0,-51.46875 8.53125,0 0,51.46875 m -9.1875,-65.39062 c -10e-6,-1.87494 0.46874,-3.23431 1.40625,-4.07813 0.96874,-0.84368 2.15624,-1.26555 3.5625,-1.26562 0.68748,7e-5 1.32811,0.10944 1.92187,0.32812 0.62499,0.18757 1.15624,0.50007 1.59375,0.9375 0.46874,0.43757 0.82811,1.00007 1.07813,1.6875 0.28123,0.65632 0.42185,1.45319 0.42187,2.39063 -2e-5,1.81256 -0.50002,3.17193 -1.5,4.07812 -0.96876,0.87506 -2.14064,1.31256 -3.51562,1.3125 -1.40626,6e-5 -2.59376,-0.43744 -3.5625,-1.3125 -0.93751,-0.87494 -1.40626,-2.23431 -1.40625,-4.07812"
     style="font-size:96px;font-weight:normal;font-family:WenQuanYi Micro Hei;-inkscape-font-specification:WenQuanYi Micro Hei"
     id="path5558" /><path
     d="m 328.81394,-188.27386 -11.48437,0 0,45.04687 -8.57813,0 0,-45.04687 -9.09375,0 0,-3.51563 9.09375,-3.1875 0,-4.5 c -10e-6,-3.34369 0.34374,-6.10931 1.03125,-8.29687 0.71874,-2.21869 1.73436,-3.98431 3.04688,-5.29688 1.34373,-1.31243 2.98435,-2.2343 4.92187,-2.76562 1.93748,-0.56243 4.12498,-0.84368 6.5625,-0.84375 1.84372,7e-5 3.53122,0.18757 5.0625,0.5625 1.56247,0.34382 2.95309,0.73444 4.17188,1.17187 l -2.20313,6.60938 c -0.96878,-0.34369 -2.03128,-0.64056 -3.1875,-0.89063 -1.12503,-0.28118 -2.31253,-0.42181 -3.5625,-0.42187 -1.25002,6e-5 -2.32815,0.15631 -3.23437,0.46875 -0.90628,0.28131 -1.65627,0.79694 -2.25,1.54687 -0.59377,0.75006 -1.0469,1.78131 -1.35938,3.09375 -0.28127,1.28131 -0.42189,2.93756 -0.42187,4.96875 l 0,4.875 11.48437,0 0,6.42188"
     style="font-size:96px;font-weight:normal;font-family:WenQuanYi Micro Hei;-inkscape-font-specification:WenQuanYi Micro Hei"
     id="path5560" /><path
     d="m 360.50144,-188.27386 -11.48437,0 0,45.04687 -8.57813,0 0,-45.04687 -9.09375,0 0,-3.51563 9.09375,-3.1875 0,-4.5 c -10e-6,-3.34369 0.34374,-6.10931 1.03125,-8.29687 0.71874,-2.21869 1.73436,-3.98431 3.04688,-5.29688 1.34373,-1.31243 2.98435,-2.2343 4.92187,-2.76562 1.93748,-0.56243 4.12498,-0.84368 6.5625,-0.84375 1.84372,7e-5 3.53122,0.18757 5.0625,0.5625 1.56247,0.34382 2.95309,0.73444 4.17188,1.17187 l -2.20313,6.60938 c -0.96878,-0.34369 -2.03128,-0.64056 -3.1875,-0.89063 -1.12503,-0.28118 -2.31253,-0.42181 -3.5625,-0.42187 -1.25002,6e-5 -2.32815,0.15631 -3.23437,0.46875 -0.90628,0.28131 -1.65627,0.79694 -2.25,1.54687 -0.59377,0.75006 -1.0469,1.78131 -1.35938,3.09375 -0.28127,1.28131 -0.42189,2.93756 -0.42187,4.96875 l 0,4.875 11.48437,0 0,6.42188"
     style="font-size:96px;font-weight:normal;font-family:WenQuanYi Micro Hei;-inkscape-font-specification:WenQuanYi Micro Hei"
     id="path5562" /><path
     d="m 365.51707,-165.02386 0,-7.875 23.25,0 0,7.875 -23.25,0"
     style="font-size:96px;font-weight:normal;font-family:WenQuanYi Micro Hei;-inkscape-font-specification:WenQuanYi Micro Hei"
     id="path5564" /><path
     d="m 432.92332,-143.22699 0,-33.14062 c -4e-5,-4.06247 -0.82817,-7.10934 -2.48438,-9.14063 -1.62503,-2.03121 -4.18753,-3.04683 -7.6875,-3.04687 -2.53128,4e-5 -4.65627,0.40629 -6.375,1.21875 -1.71877,0.81254 -3.10939,2.01566 -4.17187,3.60937 -1.03127,1.59379 -1.78127,3.54691 -2.25,5.85938 -0.43752,2.31253 -0.65627,4.96877 -0.65625,7.96875 l 0,26.67187 -8.53125,0 0,-51.46875 6.9375,0 1.21875,6.9375 0.46875,0 c 0.78123,-1.3437 1.7031,-2.49995 2.76562,-3.46875 1.09373,-0.99995 2.28123,-1.82807 3.5625,-2.48437 1.28123,-0.6562 2.6406,-1.14058 4.07813,-1.45313 1.43747,-0.31245 2.90622,-0.4687 4.40625,-0.46875 5.71871,5e-5 10.01558,1.50005 12.89062,4.5 2.9062,2.9688 4.35933,7.73442 4.35938,14.29688 l 0,33.60937 -8.53125,0"
     style="font-size:96px;font-weight:normal;font-family:WenQuanYi Micro Hei;-inkscape-font-specification:WenQuanYi Micro Hei"
     id="path5566" /><path
     d="m 497.04832,-194.69574 0,5.29688 -9.23438,1.26562 c 0.87496,1.09379 1.60934,2.50004 2.20313,4.21875 0.59371,1.68754 0.89058,3.60941 0.89062,5.76563 -4e-5,2.37503 -0.37504,4.57815 -1.125,6.60937 -0.71879,2.00003 -1.82816,3.7344 -3.32812,5.20313 -1.46879,1.46877 -3.29691,2.62502 -5.48438,3.46875 -2.18753,0.81251 -4.7344,1.21876 -7.64062,1.21875 -0.68753,1e-5 -1.37503,1e-5 -2.0625,0 -0.68752,-0.0312 -1.25002,-0.0937 -1.6875,-0.1875 -0.53127,0.31251 -1.06252,0.67189 -1.59375,1.07812 -0.50002,0.37502 -0.96877,0.81252 -1.40625,1.3125 -0.40627,0.50002 -0.75002,1.06252 -1.03125,1.6875 -0.25002,0.62501 -0.37502,1.31251 -0.375,2.0625 -2e-5,0.84376 0.18748,1.53126 0.5625,2.0625 0.37498,0.50001 0.87498,0.89063 1.5,1.17188 0.65623,0.28125 1.42185,0.46875 2.29687,0.5625 0.87498,0.0937 1.79685,0.14063 2.76563,0.14062 l 8.25,0 c 2.90621,1e-5 5.35934,0.37501 7.35937,1.125 1.99996,0.71876 3.62496,1.70313 4.875,2.95313 1.28121,1.25 2.20308,2.73437 2.76563,4.45312 0.56245,1.6875 0.8437,3.48437 0.84375,5.39063 -5e-5,2.74999 -0.51567,5.21873 -1.54688,7.40625 -1.00004,2.18748 -2.54692,4.03123 -4.64062,5.53125 -2.09379,1.53123 -4.75004,2.7031 -7.96875,3.51562 -3.18753,0.81248 -6.95315,1.21873 -11.29688,1.21875 -3.34377,-2e-5 -6.26564,-0.32815 -8.76562,-0.98437 -2.50001,-0.65628 -4.57814,-1.6094 -6.23438,-2.85938 -1.65625,-1.25002 -2.90625,-2.76564 -3.75,-4.54687 -0.8125,-1.75002 -1.21875,-3.73439 -1.21875,-5.95313 0,-1.87501 0.29687,-3.53125 0.89063,-4.96875 0.62499,-1.40625 1.45312,-2.625 2.48437,-3.65625 1.03125,-1.03125 2.21874,-1.875 3.5625,-2.53125 1.37499,-0.65625 2.79687,-1.15625 4.26563,-1.5 -1.31251,-0.59375 -2.39064,-1.53124 -3.23438,-2.8125 -0.84376,-1.28124 -1.26563,-2.74999 -1.26562,-4.40625 -10e-6,-1.90624 0.49999,-3.54686 1.5,-4.92187 0.99999,-1.40624 2.57811,-2.76561 4.73437,-4.07813 -1.34376,-0.56248 -2.57814,-1.3281 -3.70312,-2.29687 -1.09376,-0.99998 -2.03126,-2.12498 -2.8125,-3.375 -0.75001,-1.28123 -1.34376,-2.67185 -1.78125,-4.17188 -0.40626,-1.49997 -0.60938,-3.04684 -0.60938,-4.64062 0,-2.78122 0.39062,-5.26559 1.17188,-7.45313 0.78124,-2.18746 1.93749,-4.04683 3.46875,-5.57812 1.53124,-1.53121 3.43748,-2.70308 5.71875,-3.51563 2.28123,-0.81245 4.93748,-1.2187 7.96875,-1.21875 1.15622,5e-5 2.34372,0.0938 3.5625,0.28125 1.24997,0.1563 2.29684,0.37505 3.14062,0.65625 l 17.01563,0 m -38.01563,59.90625 c -10e-6,1.15624 0.20312,2.23436 0.60938,3.23438 0.40624,0.99998 1.06249,1.85936 1.96875,2.57812 0.93748,0.71874 2.15623,1.28123 3.65625,1.6875 1.53123,0.43748 3.42185,0.65623 5.67187,0.65625 5.81247,-2e-5 10.15622,-0.90627 13.03125,-2.71875 2.90621,-1.78126 4.35934,-4.35938 4.35938,-7.73437 -4e-5,-1.43751 -0.18754,-2.60938 -0.5625,-3.51563 -0.37504,-0.90625 -1.00004,-1.625 -1.875,-2.15625 -0.84379,-0.5 -1.96879,-0.84375 -3.375,-1.03125 -1.40628,-0.1875 -3.12503,-0.28125 -5.15625,-0.28125 l -8.25,0 c -1.09377,0 -2.2344,0.125 -3.42188,0.375 -1.18751,0.25 -2.28126,0.71875 -3.28125,1.40625 -0.96876,0.6875 -1.78126,1.625 -2.4375,2.8125 -0.62501,1.21875 -0.93751,2.78124 -0.9375,4.6875 m 4.3125,-43.35937 c -10e-6,3.59378 0.84374,6.26565 2.53125,8.01562 1.68748,1.75003 4.07811,2.62502 7.17188,2.625 3.12497,2e-5 5.48434,-0.85935 7.07812,-2.57812 1.62497,-1.74998 2.43747,-4.48435 2.4375,-8.20313 -3e-5,-3.84371 -0.82816,-6.67183 -2.48437,-8.48437 -1.62503,-1.81246 -4.00003,-2.71871 -7.125,-2.71875 -3.09377,4e-5 -5.46877,0.93754 -7.125,2.8125 -1.65627,1.87504 -2.48439,4.71878 -2.48438,8.53125"
     style="font-size:96px;font-weight:normal;font-family:WenQuanYi Micro Hei;-inkscape-font-specification:WenQuanYi Micro Hei"
     id="path5568" /><path
     d="m 547.57957,-149.27386 c 0.56247,0 1.18747,-0.0312 1.875,-0.0937 0.71872,-0.0625 1.40622,-0.14062 2.0625,-0.23438 0.65622,-0.0937 1.24997,-0.20312 1.78125,-0.32812 0.56247,-0.125 0.98434,-0.23437 1.26562,-0.32813 l 0,6.46875 c -0.40628,0.1875 -0.9219,0.375 -1.54687,0.5625 -0.62503,0.1875 -1.31253,0.34375 -2.0625,0.46875 -0.75003,0.15625 -1.53128,0.26562 -2.34375,0.32813 -0.81253,0.0937 -1.6094,0.14062 -2.39063,0.14062 -1.93752,0 -3.73439,-0.25 -5.39062,-0.75 -1.65627,-0.5 -3.09377,-1.35937 -4.3125,-2.57812 -1.18751,-1.21875 -2.12501,-2.85937 -2.8125,-4.92188 -0.68751,-2.09374 -1.03126,-4.71874 -1.03125,-7.875 l 0,-29.85937 -7.26563,0 0,-3.79688 7.26563,-3.65625 3.65625,-10.78125 4.92187,0 0,11.8125 12.9375,0 0,6.42188 -12.9375,0 0,29.85937 c -2e-5,3.03126 0.48436,5.31251 1.45313,6.84375 0.99998,1.53126 2.62498,2.29688 4.875,2.29688"
     style="font-size:96px;font-weight:normal;font-family:WenQuanYi Micro Hei;-inkscape-font-specification:WenQuanYi Micro Hei"
     id="path5570" /><path
     d="m 697.86082,-143.22699 -8.53125,0 0,-72.9375 8.53125,0 0,72.9375"
     style="font-size:96px;font-weight:normal;font-family:WenQuanYi Micro Hei;-inkscape-font-specification:WenQuanYi Micro Hei"
     id="path5572" /><path
     d="m 722.14207,-169.80511 6.32812,-7.96875 13.73438,-16.92188 9.89062,0 -18.79687,22.26563 20.0625,29.20312 -9.79688,0 -15.75,-23.625 -5.10937,3.84375 0,19.78125 -8.4375,0 0,-72.9375 8.4375,0 0,33.46875 -0.75,12.89063 0.1875,0"
     style="font-size:96px;font-weight:normal;font-family:WenQuanYi Micro Hei;-inkscape-font-specification:WenQuanYi Micro Hei"
     id="path5574" /><path
     d="m 770.42332,-143.22699 -8.53125,0 0,-51.46875 8.53125,0 0,51.46875 m -9.1875,-65.39062 c -10e-6,-1.87494 0.46874,-3.23431 1.40625,-4.07813 0.96874,-0.84368 2.15624,-1.26555 3.5625,-1.26562 0.68748,7e-5 1.32811,0.10944 1.92187,0.32812 0.62499,0.18757 1.15624,0.50007 1.59375,0.9375 0.46874,0.43757 0.82811,1.00007 1.07813,1.6875 0.28123,0.65632 0.42185,1.45319 0.42187,2.39063 -2e-5,1.81256 -0.50002,3.17193 -1.5,4.07812 -0.96876,0.87506 -2.14064,1.31256 -3.51562,1.3125 -1.40626,6e-5 -2.59376,-0.43744 -3.5625,-1.3125 -0.93751,-0.87494 -1.40626,-2.23431 -1.40625,-4.07812"
     style="font-size:96px;font-weight:normal;font-family:WenQuanYi Micro Hei;-inkscape-font-specification:WenQuanYi Micro Hei"
     id="path5576" /><path
     d="m 802.39207,-149.27386 c 0.56247,0 1.18747,-0.0312 1.875,-0.0937 0.71872,-0.0625 1.40622,-0.14062 2.0625,-0.23438 0.65622,-0.0937 1.24997,-0.20312 1.78125,-0.32812 0.56247,-0.125 0.98434,-0.23437 1.26562,-0.32813 l 0,6.46875 c -0.40628,0.1875 -0.9219,0.375 -1.54687,0.5625 -0.62503,0.1875 -1.31253,0.34375 -2.0625,0.46875 -0.75003,0.15625 -1.53128,0.26562 -2.34375,0.32813 -0.81253,0.0937 -1.6094,0.14062 -2.39063,0.14062 -1.93752,0 -3.73439,-0.25 -5.39062,-0.75 -1.65627,-0.5 -3.09377,-1.35937 -4.3125,-2.57812 -1.18751,-1.21875 -2.12501,-2.85937 -2.8125,-4.92188 -0.68751,-2.09374 -1.03126,-4.71874 -1.03125,-7.875 l 0,-29.85937 -7.26563,0 0,-3.79688 7.26563,-3.65625 3.65625,-10.78125 4.92187,0 0,11.8125 12.9375,0 0,6.42188 -12.9375,0 0,29.85937 c -2e-5,3.03126 0.48436,5.31251 1.45313,6.84375 0.99998,1.53126 2.62498,2.29688 4.875,2.29688"
     style="font-size:96px;font-weight:normal;font-family:WenQuanYi Micro Hei;-inkscape-font-specification:WenQuanYi Micro Hei"
     id="path5578" /></g></g></svg>