<?xml version="1.0" encoding="UTF-8" standalone="no"?>
<!-- Created with Inkscape (http://www.inkscape.org/) -->

<svg
   xmlns:dc="http://purl.org/dc/elements/1.1/"
   xmlns:cc="http://creativecommons.org/ns#"
   xmlns:rdf="http://www.w3.org/1999/02/22-rdf-syntax-ns#"
   xmlns:svg="http://www.w3.org/2000/svg"
   xmlns="http://www.w3.org/2000/svg"
   xmlns:sodipodi="http://sodipodi.sourceforge.net/DTD/sodipodi-0.dtd"
   xmlns:inkscape="http://www.inkscape.org/namespaces/inkscape"
   id="svg2876"
   version="1.1"
   inkscape:version="0.48.0 r9654"
   width="1052.3625"
   height="744.095"
   xml:space="preserve"
   sodipodi:docname="netsniff_logo3.svg"><metadata
     id="metadata2882"><rdf:RDF><cc:Work
         rdf:about=""><dc:format>image/svg+xml</dc:format><dc:type
           rdf:resource="http://purl.org/dc/dcmitype/StillImage" /><dc:title></dc:title></cc:Work></rdf:RDF></metadata><defs
     id="defs2880"><inkscape:perspective
       sodipodi:type="inkscape:persp3d"
       inkscape:vp_x="0 : 0.5 : 1"
       inkscape:vp_y="0 : 1000 : 0"
       inkscape:vp_z="1 : 0.5 : 1"
       inkscape:persp3d-origin="0.5 : 0.33333333 : 1"
       id="perspective2884" /><clipPath
       clipPathUnits="userSpaceOnUse"
       id="clipPath2894"><path
         d="m 0,595.276 841.89,0 L 841.89,0 0,0 0,595.276 z"
         id="path2896" /></clipPath><clipPath
       clipPathUnits="userSpaceOnUse"
       id="clipPath2910"><path
         d="m 225.441,333.699 c 0,0 1.208,-17.148 17.626,-17.148 l 0,0 c 11.937,0 19.858,25.665 19.858,25.665 l 0,0 -37.484,-8.517 z"
         id="path2912" /></clipPath><clipPath
       clipPathUnits="userSpaceOnUse"
       id="clipPath2930"><path
         d="m 197.859,316.551 c 16.418,0 17.623,17.148 17.623,17.148 l 0,0 -37.482,8.517 c 0,0 7.919,-25.665 19.859,-25.665"
         id="path2932" /></clipPath><clipPath
       clipPathUnits="userSpaceOnUse"
       id="clipPath2950"><path
         d="m 0,595.276 841.89,0 L 841.89,0 0,0 0,595.276 z"
         id="path2952" /></clipPath></defs><sodipodi:namedview
     pagecolor="#ffffff"
     bordercolor="#666666"
     borderopacity="1"
     objecttolerance="10"
     gridtolerance="10"
     guidetolerance="10"
     inkscape:pageopacity="0"
     inkscape:pageshadow="2"
     inkscape:window-width="1272"
     inkscape:window-height="912"
     id="namedview2878"
     showgrid="false"
     inkscape:zoom="0.89707474"
     inkscape:cx="579.29172"
     inkscape:cy="229.74401"
     inkscape:window-x="1280"
     inkscape:window-y="24"
     inkscape:window-maximized="0"
     inkscape:current-layer="g2886" /><g
     id="g2886"
     inkscape:groupmode="layer"
     inkscape:label="netsniff_logo"
     transform="matrix(1.25,0,0,-1.25,0,744.095)"><g
   id="g3206"
   transform="translate(401.30436,-156.06281)"><path
     id="path2888"
     style="fill:#000000;fill-opacity:1;fill-rule:nonzero;stroke:none"
     d="m 281.208,257.234 -120.436,0 0,120.437 120.436,0 0,-120.437 z" /><g
     id="g2890"><g
       clip-path="url(#clipPath2894)"
       id="g2892"><g
         transform="translate(258.8047,377.5952)"
         id="g2898"><path
           id="path2900"
           style="fill:#e1262f;fill-opacity:1;fill-rule:nonzero;stroke:none"
           d="m 0,0 c 0,0 16.933,6.35 21.872,16.932 4.18,8.949 -0.705,39.509 -0.705,39.509 0,0 29.259,-27.979 24.693,-50.798 -6.351,-31.748 -34.57,-35.98 -34.57,-35.98 L 0,0 z" /></g><g
         transform="translate(183.0459,377.7241)"
         id="g2902"><path
           id="path2904"
           style="fill:#e1262f;fill-opacity:1;fill-rule:nonzero;stroke:none"
           d="m 0,0 c 0,0 -16.932,6.35 -21.871,16.932 -4.18,8.949 0.705,39.508 0.705,39.508 0,0 -29.258,-27.979 -24.694,-50.797 6.352,-31.747 34.57,-35.979 34.57,-35.979 L 0,0 z" /></g></g></g><g
     id="g2906"><g
       clip-path="url(#clipPath2910)"
       id="g2908"><g
         transform="translate(225.4414,333.6992)"
         id="g2914"><path
           id="path2916"
           style="fill:#ffffff;fill-opacity:1;fill-rule:nonzero;stroke:none"
           d="m 0,0 37.483,8.517 c 0,0 -7.92,-25.665 -19.858,-25.665 C 1.207,-17.148 0,0 0,0" /></g><g
         transform="translate(253.1895,334.4102)"
         id="g2918"><path
           id="path2920"
           style="fill:#e1262f;fill-opacity:1;fill-rule:nonzero;stroke:none"
           d="m 0,0 c 0,-5.793 -4.692,-10.488 -10.486,-10.488 -5.794,0 -10.487,4.695 -10.487,10.488 0,5.793 4.693,10.486 10.487,10.486 C -4.692,10.486 0,5.793 0,0" /></g><g
         transform="translate(248.7236,334.4102)"
         id="g2922"><path
           id="path2924"
           style="fill:#222222;fill-opacity:1;fill-rule:nonzero;stroke:none"
           d="m 0,0 c 0,-3.324 -2.694,-6.02 -6.021,-6.02 -3.323,0 -6.017,2.696 -6.017,6.02 0,3.326 2.694,6.02 6.017,6.02 C -2.694,6.02 0,3.326 0,0" /></g></g></g><g
     id="g2928"
     clip-path="url(#clipPath2930)"><g
       id="g2934"
       transform="translate(215.4824,333.6992)"><path
         d="m 0,0 -37.482,8.517 c 0,0 7.919,-25.665 19.858,-25.665 C -1.205,-17.148 0,0 0,0"
         style="fill:#ffffff;fill-opacity:1;fill-rule:nonzero;stroke:none"
         id="path2936" /></g><g
       id="g2938"
       transform="translate(198.2197,344.896)"><path
         d="m 0,0 c 5.795,0 10.486,-4.693 10.486,-10.486 0,-5.793 -4.691,-10.488 -10.486,-10.488 -5.791,0 -10.486,4.695 -10.486,10.488 C -10.486,-4.693 -5.791,0 0,0"
         style="fill:#e1262f;fill-opacity:1;fill-rule:nonzero;stroke:none"
         id="path2940" /></g><g
       id="g2942"
       transform="translate(192.2012,334.4102)"><path
         d="m 0,0 c 0,-3.324 2.695,-6.02 6.019,-6.02 3.326,0 6.018,2.696 6.018,6.02 0,3.326 -2.692,6.02 -6.018,6.02 C 2.695,6.02 0,3.326 0,0"
         style="fill:#222222;fill-opacity:1;fill-rule:nonzero;stroke:none"
         id="path2944" /></g></g><path
     transform="matrix(0.8,0,0,-0.8,0,595.276)"
     id="path3075"
     d="m 242.91785,330.87289 c -2.27876,-2.27875 -2.7855,-6.15725 -1.09278,-8.36388 0.90674,-1.18203 1.42519,-1.18484 6.50294,-0.0353 6.07681,1.37577 6.92281,2.04345 6.28406,4.95957 -1.15004,5.25034 -7.89854,7.23525 -11.69422,3.43957 l 0,0 z"
     style="fill:#000000" /><path
     transform="matrix(0.8,0,0,-0.8,0,595.276)"
     id="path3077"
     d="m 299.68657,332.05826 c -1.70672,-0.99209 -3.83021,-5.65567 -3.25626,-7.15135 0.21908,-0.57094 2.96453,-1.62814 6.101,-2.34935 5.2476,-1.20665 5.78128,-1.20966 6.68795,-0.0377 0.54191,0.70047 0.9853,2.39889 0.9853,3.77427 0,4.96863 -6.1183,8.32162 -10.51799,5.76413 z"
     style="fill:#000000" /></g>

<text
   xml:space="preserve"
   style="font-size:32px;font-style:normal;font-variant:normal;font-weight:500;font-stretch:normal;line-height:125%;letter-spacing:0px;word-spacing:0px;fill:#000000;fill-opacity:1;stroke:none;font-family:WenQuanYi Zen Hei;-inkscape-font-specification:WenQuanYi Zen Hei Medium"
   x="32.798317"
   y="-143.22699"
   id="text4750"
   sodipodi:linespacing="125%"
   transform="scale(1,-1)"><tspan
     sodipodi:role="line"
     id="tspan4752"
     x="32.798317"
     y="-143.22699"
     style="font-size:96px;font-style:normal;font-variant:normal;font-weight:normal;font-stretch:normal;font-family:WenQuanYi Micro Hei;-inkscape-font-specification:WenQuanYi Micro Hei">netsniff-ng t     lkit</tspan></text>

<flowRoot
   xml:space="preserve"
   id="flowRoot5916"
   style="font-size:40px;font-style:normal;font-variant:normal;font-weight:500;font-stretch:normal;line-height:125%;letter-spacing:0px;word-spacing:0px;fill:#000000;fill-opacity:1;stroke:none;font-family:WenQuanYi Zen Hei;-inkscape-font-specification:WenQuanYi Zen Hei Medium"
   transform="matrix(0.8,0,0,-0.8,27.645411,622.02962)"><flowRegion
     id="flowRegion5918"><rect
       id="rect5920"
       width="744.64252"
       height="88.064011"
       x="52.392513"
       y="596.95001" /></flowRegion><flowPara
     id="flowPara5922"
     style="font-size:30px">full ingress and egress packet force</flowPara></flowRoot></g></svg>