<?xml version="1.0" encoding="UTF-8" standalone="no"?>
<!-- Created with Inkscape (http://www.inkscape.org/) -->

<svg
   xmlns:dc="http://purl.org/dc/elements/1.1/"
   xmlns:cc="http://creativecommons.org/ns#"
   xmlns:rdf="http://www.w3.org/1999/02/22-rdf-syntax-ns#"
   xmlns:svg="http://www.w3.org/2000/svg"
   xmlns="http://www.w3.org/2000/svg"
   xmlns:sodipodi="http://sodipodi.sourceforge.net/DTD/sodipodi-0.dtd"
   xmlns:inkscape="http://www.inkscape.org/namespaces/inkscape"
   id="svg2876"
   version="1.1"
   inkscape:version="0.47 r22583"
   width="1052.3625"
   height="744.095"
   xml:space="preserve"
   sodipodi:docname="netsniff_logo2.svg"><metadata
     id="metadata2882"><rdf:RDF><cc:Work
         rdf:about=""><dc:format>image/svg+xml</dc:format><dc:type
           rdf:resource="http://purl.org/dc/dcmitype/StillImage" /><dc:title></dc:title></cc:Work></rdf:RDF></metadata><defs
     id="defs2880"><inkscape:perspective
       sodipodi:type="inkscape:persp3d"
       inkscape:vp_x="0 : 0.5 : 1"
       inkscape:vp_y="0 : 1000 : 0"
       inkscape:vp_z="1 : 0.5 : 1"
       inkscape:persp3d-origin="0.5 : 0.33333333 : 1"
       id="perspective2884" /><clipPath
       clipPathUnits="userSpaceOnUse"
       id="clipPath2894"><path
         d="m 0,595.276 841.89,0 L 841.89,0 0,0 0,595.276 z"
         id="path2896" /></clipPath><clipPath
       clipPathUnits="userSpaceOnUse"
       id="clipPath2910"><path
         d="m 225.441,333.699 c 0,0 1.208,-17.148 17.626,-17.148 l 0,0 c 11.937,0 19.858,25.665 19.858,25.665 l 0,0 -37.484,-8.517 z"
         id="path2912" /></clipPath><clipPath
       clipPathUnits="userSpaceOnUse"
       id="clipPath2930"><path
         d="m 197.859,316.551 c 16.418,0 17.623,17.148 17.623,17.148 l 0,0 -37.482,8.517 c 0,0 7.919,-25.665 19.859,-25.665"
         id="path2932" /></clipPath><clipPath
       clipPathUnits="userSpaceOnUse"
       id="clipPath2950"><path
         d="m 0,595.276 841.89,0 L 841.89,0 0,0 0,595.276 z"
         id="path2952" /></clipPath></defs><sodipodi:namedview
     pagecolor="#ffffff"
     bordercolor="#666666"
     borderopacity="1"
     objecttolerance="10"
     gridtolerance="10"
     guidetolerance="10"
     inkscape:pageopacity="0"
     inkscape:pageshadow="2"
     inkscape:window-width="1298"
     inkscape:window-height="912"
     id="namedview2878"
     showgrid="false"
     inkscape:zoom="0.89707474"
     inkscape:cx="563.75283"
     inkscape:cy="363.51213"
     inkscape:window-x="0"
     inkscape:window-y="25"
     inkscape:window-maximized="0"
     inkscape:current-layer="g2886" /><g
     id="g2886"
     inkscape:groupmode="layer"
     inkscape:label="netsniff_logo"
     transform="matrix(1.25,0,0,-1.25,0,744.095)"><g
   id="g3206"
   transform="translate(401.30436,-156.06281)"><path
     id="path2888"
     style="fill:#000000;fill-opacity:1;fill-rule:nonzero;stroke:none"
     d="m 281.208,257.234 -120.436,0 0,120.437 120.436,0 0,-120.437 z" /><g
     id="g2890"><g
       clip-path="url(#clipPath2894)"
       id="g2892"><g
         transform="translate(258.8047,377.5952)"
         id="g2898"><path
           id="path2900"
           style="fill:#e1262f;fill-opacity:1;fill-rule:nonzero;stroke:none"
           d="m 0,0 c 0,0 16.933,6.35 21.872,16.932 4.18,8.949 -0.705,39.509 -0.705,39.509 0,0 29.259,-27.979 24.693,-50.798 -6.351,-31.748 -34.57,-35.98 -34.57,-35.98 L 0,0 z" /></g><g
         transform="translate(183.0459,377.7241)"
         id="g2902"><path
           id="path2904"
           style="fill:#e1262f;fill-opacity:1;fill-rule:nonzero;stroke:none"
           d="m 0,0 c 0,0 -16.932,6.35 -21.871,16.932 -4.18,8.949 0.705,39.508 0.705,39.508 0,0 -29.258,-27.979 -24.694,-50.797 6.352,-31.747 34.57,-35.979 34.57,-35.979 L 0,0 z" /></g></g></g><g
     id="g2906"><g
       clip-path="url(#clipPath2910)"
       id="g2908"><g
         transform="translate(225.4414,333.6992)"
         id="g2914"><path
           id="path2916"
           style="fill:#ffffff;fill-opacity:1;fill-rule:nonzero;stroke:none"
           d="m 0,0 37.483,8.517 c 0,0 -7.92,-25.665 -19.858,-25.665 C 1.207,-17.148 0,0 0,0" /></g><g
         transform="translate(253.1895,334.4102)"
         id="g2918"><path
           id="path2920"
           style="fill:#e1262f;fill-opacity:1;fill-rule:nonzero;stroke:none"
           d="m 0,0 c 0,-5.793 -4.692,-10.488 -10.486,-10.488 -5.794,0 -10.487,4.695 -10.487,10.488 0,5.793 4.693,10.486 10.487,10.486 C -4.692,10.486 0,5.793 0,0" /></g><g
         transform="translate(248.7236,334.4102)"
         id="g2922"><path
           id="path2924"
           style="fill:#222222;fill-opacity:1;fill-rule:nonzero;stroke:none"
           d="m 0,0 c 0,-3.324 -2.694,-6.02 -6.021,-6.02 -3.323,0 -6.017,2.696 -6.017,6.02 0,3.326 2.694,6.02 6.017,6.02 C -2.694,6.02 0,3.326 0,0" /></g></g></g><g
     id="g2928"
     clip-path="url(#clipPath2930)"><g
       id="g2934"
       transform="translate(215.4824,333.6992)"><path
         d="m 0,0 -37.482,8.517 c 0,0 7.919,-25.665 19.858,-25.665 C -1.205,-17.148 0,0 0,0"
         style="fill:#ffffff;fill-opacity:1;fill-rule:nonzero;stroke:none"
         id="path2936" /></g><g
       id="g2938"
       transform="translate(198.2197,344.896)"><path
         d="m 0,0 c 5.795,0 10.486,-4.693 10.486,-10.486 0,-5.793 -4.691,-10.488 -10.486,-10.488 -5.791,0 -10.486,4.695 -10.486,10.488 C -10.486,-4.693 -5.791,0 0,0"
         style="fill:#e1262f;fill-opacity:1;fill-rule:nonzero;stroke:none"
         id="path2940" /></g><g
       id="g2942"
       transform="translate(192.2012,334.4102)"><path
         d="m 0,0 c 0,-3.324 2.695,-6.02 6.019,-6.02 3.326,0 6.018,2.696 6.018,6.02 0,3.326 -2.692,6.02 -6.018,6.02 C 2.695,6.02 0,3.326 0,0"
         style="fill:#222222;fill-opacity:1;fill-rule:nonzero;stroke:none"
         id="path2944" /></g></g><path
     transform="matrix(0.8,0,0,-0.8,0,595.276)"
     id="path3075"
     d="m 242.91785,330.87289 c -2.27876,-2.27875 -2.7855,-6.15725 -1.09278,-8.36388 0.90674,-1.18203 1.42519,-1.18484 6.50294,-0.0353 6.07681,1.37577 6.92281,2.04345 6.28406,4.95957 -1.15004,5.25034 -7.89854,7.23525 -11.69422,3.43957 l 0,0 z"
     style="fill:#000000" /><path
     transform="matrix(0.8,0,0,-0.8,0,595.276)"
     id="path3077"
     d="m 299.68657,332.05826 c -1.70672,-0.99209 -3.83021,-5.65567 -3.25626,-7.15135 0.21908,-0.57094 2.96453,-1.62814 6.101,-2.34935 5.2476,-1.20665 5.78128,-1.20966 6.68795,-0.0377 0.54191,0.70047 0.9853,2.39889 0.9853,3.77427 0,4.96863 -6.1183,8.32162 -10.51799,5.76413 z"
     style="fill:#000000" /></g>
<path
   style="fill:#ff0000;fill-opacity:1"
   d="m 707.45054,501.54232 c -20.51596,-8.02678 -36.34802,-32.32084 -34.01258,-52.19178 1.40109,-11.92106 12.32861,-32.04762 24.68736,-45.46975 4.22869,-4.59253 5.01451,-5.0831 4.46408,-2.78683 -0.36742,1.53275 -0.9819,10.91719 -1.36552,20.8543 -0.5907,15.30102 -0.41466,18.80806 1.14968,22.90423 2.45987,6.44108 9.7106,13.34973 19.33231,18.42026 l 7.87095,4.1479 -6.68431,18.11443 c -4.94971,13.41364 -7.1564,18.1009 -8.50349,18.06229 -1.00054,-0.0287 -4.12286,-0.95345 -6.93848,-2.05505 z"
   id="path3265"
   transform="matrix(0.8,0,0,-0.8,0,595.276)" /><path
   style="fill:#ff0000;fill-opacity:1"
   d="m 832.78673,486.0603 -6.78352,-18.39223 6.74839,-3.46792 c 9.30409,-4.78125 17.99837,-12.95836 20.364,-19.15267 1.64166,-4.29861 1.81195,-7.49791 1.19925,-22.53098 -0.39274,-9.63654 -1.00082,-19.02587 -1.35128,-20.86518 -0.61463,-3.22575 -0.45701,-3.14679 4.45018,2.22947 11.82095,12.9509 21.61834,30.33249 24.23315,42.99212 1.61241,7.80654 0.16475,17.06993 -4.08221,26.12141 l -2.61517,5.57367 -0.0929,-8.63919 -0.0929,-8.63919 -5.0163,0 -5.01631,0 0,14.95524 0,14.95524 -4.18025,3.28954 c -4.99853,3.93345 -11.64105,7.39487 -17.03936,8.87921 l -3.94124,1.0837 -6.78351,-18.39224 z"
   id="path3267"
   transform="matrix(0.8,0,0,-0.8,0,595.276)" /><path
   style="fill:#ff0000;fill-opacity:1"
   d="m 799.39414,532.03964 c -5.17253,-2.63324 -8.90374,-11.14233 -5.21634,-11.89596 1.39744,-0.28561 2.36025,0.60767 3.20642,2.97485 2.51306,7.03043 11.10303,8.08075 14.37295,1.75744 1.24144,-2.40069 1.40171,-4.01999 0.60523,-6.11489 -0.97216,-2.55698 -0.81347,-2.84949 1.54592,-2.84949 5.07296,0 4.21705,9.92681 -1.27763,14.81788 -3.18448,2.83465 -9.09315,3.4195 -13.23655,1.31017 l 0,0 z"
   id="path3269"
   transform="matrix(0.8,0,0,-0.8,0,595.276)" /><path
   style="fill:#ff0000;fill-opacity:1"
   d="m 744.89715,532.69352 c -7.42005,-3.03697 -10.98823,-16.78193 -4.35657,-16.78193 2.36893,0 2.5205,0.28615 1.53063,2.88971 -2.45963,6.46931 4.8575,12.74252 10.8891,9.33556 1.5923,-0.89941 3.43926,-3.15766 4.10437,-5.01833 0.84616,-2.36718 1.80898,-3.26046 3.20641,-2.97485 3.78774,0.77414 -0.11723,9.37785 -5.39249,11.88112 -3.9788,1.88807 -6.57699,2.06213 -9.98145,0.66872 z"
   id="path3271"
   transform="matrix(0.8,0,0,-0.8,0,595.276)" /><path
   style="fill:#ff0000;fill-opacity:1"
   d="m 704.38201,499.20928 c -16.21236,-7.72102 -29.05912,-26.27764 -30.01811,-43.35994 -0.40445,-7.20456 -0.0296,-9.67841 2.46966,-16.29705 3.72416,-9.86263 10.44862,-21.27675 18.22425,-30.93388 3.33215,-4.13845 6.21399,-7.52445 6.40409,-7.52445 0.1901,0 0.0603,8.43451 -0.28848,18.74336 -0.34876,10.30885 -0.2882,20.58721 0.13458,22.84079 1.09678,5.84634 10.81794,15.95551 20.04104,20.84097 4.05111,2.14586 7.32831,4.4032 7.28267,5.0163 -0.0456,0.61311 -2.92617,8.38838 -6.40118,17.27838 -4.98301,12.7479 -6.78915,16.22709 -8.5468,16.46384 -1.22573,0.16511 -5.41151,-1.21564 -9.30172,-3.06832 z"
   id="path3275"
   transform="matrix(0.8,0,0,-0.8,0,595.276)" /><path
   style="fill:#ff0000;fill-opacity:1"
   d="m 833.51853,486.74688 c -3.37207,-9.28644 -6.27543,-17.23998 -6.45191,-17.67454 -0.17648,-0.43456 3.14419,-2.84867 7.37926,-5.36468 9.60135,-5.70405 18.76251,-15.44728 19.81885,-21.07806 0.42113,-2.24482 0.47207,-12.63408 0.11319,-23.08725 l -0.65251,-19.00576 3.37849,3.90157 c 14.97829,17.29734 24.34821,36.23074 24.34821,49.19941 0,5.98211 -4.66196,23.83028 -5.20158,19.91412 -0.12672,-0.91966 -0.54384,-4.05485 -0.92692,-6.96709 l -0.69651,-5.29499 -4.94801,0 -4.948,0 -0.0132,14.77023 -0.0132,14.77023 -5.95176,4.13106 c -5.17709,3.59336 -15.96228,8.70615 -18.30857,8.67928 -0.43713,-0.005 -3.55375,-7.60709 -6.92582,-16.89353 z"
   id="path3277"
   transform="matrix(0.8,0,0,-0.8,0,595.276)" /><path
   style="fill:#ff0000;fill-opacity:1"
   d="m 741.65172,529.20249 c -4.58879,-5.45346 -5.29349,-12.17617 -1.27636,-12.17617 1.23967,0 1.51782,0.80703 1.0626,3.08312 -0.43344,2.1672 0.10955,4.00629 1.82781,6.1907 1.99937,2.54179 3.17575,3.046 6.46099,2.76925 3.16174,-0.26635 4.57222,-1.16869 6.62753,-4.23993 3.16862,-4.73482 4.70651,-5.45725 4.70651,-2.21088 0,1.33861 -1.70554,4.13938 -3.7901,6.22393 -3.05043,3.05044 -4.66269,3.7901 -8.26141,3.7901 -3.62454,0 -5.01792,-0.6496 -7.35757,-3.43012 z"
   id="path3279"
   transform="matrix(0.8,0,0,-0.8,0,595.276)" /><path
   style="fill:#ff0000;fill-opacity:1"
   d="m 798.7678,530.72405 c -3.03266,-1.8814 -5.3797,-5.73231 -5.3797,-8.82677 0,-2.55429 1.77486,-1.44854 4.7065,2.93218 5.07894,7.58941 14.68987,4.97512 14.68987,-3.99581 0,-2.91836 0.42989,-3.79668 1.72784,-3.53025 1.2385,0.25423 1.68624,1.5911 1.58094,4.72043 -0.28557,8.48705 -9.89265,13.31138 -17.32545,8.70022 z"
   id="path3281"
   transform="matrix(0.8,0,0,-0.8,0,595.276)" /><text
   xml:space="preserve"
   style="font-size:30.21843719px;font-style:normal;font-weight:normal;fill:#000000;fill-opacity:1;stroke:none;font-family:Bitstream Vera Sans"
   x="68.027039"
   y="-140.6371"
   id="text3198"
   transform="scale(0.9443262,-1.0589561)"><tspan
     sodipodi:role="line"
     x="68.027039"
     y="-140.6371"
     style="font-size:108.78636932px;font-style:normal;font-variant:normal;font-weight:bold;font-stretch:normal;font-family:LMSans17;-inkscape-font-specification:LMSans17 Bold"
     id="tspan3202">netsniff-ng t    lkit </tspan></text>
</g></svg>