<?xml version="1.0" encoding="UTF-8" standalone="no"?>
<!-- Created with Inkscape (http://www.inkscape.org/) -->

<svg
   xmlns:dc="http://purl.org/dc/elements/1.1/"
   xmlns:cc="http://creativecommons.org/ns#"
   xmlns:rdf="http://www.w3.org/1999/02/22-rdf-syntax-ns#"
   xmlns:svg="http://www.w3.org/2000/svg"
   xmlns="http://www.w3.org/2000/svg"
   xmlns:sodipodi="http://sodipodi.sourceforge.net/DTD/sodipodi-0.dtd"
   xmlns:inkscape="http://www.inkscape.org/namespaces/inkscape"
   id="svg2876"
   version="1.1"
   inkscape:version="0.48.0 r9654"
   width="1052.3625"
   height="744.095"
   xml:space="preserve"
   sodipodi:docname="netsniff_logo2_paths.svg"><metadata
     id="metadata2882"><rdf:RDF><cc:Work
         rdf:about=""><dc:format>image/svg+xml</dc:format><dc:type
           rdf:resource="http://purl.org/dc/dcmitype/StillImage" /><dc:title></dc:title></cc:Work></rdf:RDF></metadata><defs
     id="defs2880"><inkscape:perspective
       sodipodi:type="inkscape:persp3d"
       inkscape:vp_x="0 : 0.5 : 1"
       inkscape:vp_y="0 : 1000 : 0"
       inkscape:vp_z="1 : 0.5 : 1"
       inkscape:persp3d-origin="0.5 : 0.33333333 : 1"
       id="perspective2884" /><clipPath
       clipPathUnits="userSpaceOnUse"
       id="clipPath2894"><path
         d="m 0,595.276 841.89,0 L 841.89,0 0,0 0,595.276 z"
         id="path2896" /></clipPath><clipPath
       clipPathUnits="userSpaceOnUse"
       id="clipPath2910"><path
         d="m 225.441,333.699 c 0,0 1.208,-17.148 17.626,-17.148 l 0,0 c 11.937,0 19.858,25.665 19.858,25.665 l 0,0 -37.484,-8.517 z"
         id="path2912" /></clipPath><clipPath
       clipPathUnits="userSpaceOnUse"
       id="clipPath2930"><path
         d="m 197.859,316.551 c 16.418,0 17.623,17.148 17.623,17.148 l 0,0 -37.482,8.517 c 0,0 7.919,-25.665 19.859,-25.665"
         id="path2932" /></clipPath><clipPath
       clipPathUnits="userSpaceOnUse"
       id="clipPath2950"><path
         d="m 0,595.276 841.89,0 L 841.89,0 0,0 0,595.276 z"
         id="path2952" /></clipPath></defs><sodipodi:namedview
     pagecolor="#ffffff"
     bordercolor="#666666"
     borderopacity="1"
     objecttolerance="10"
     gridtolerance="10"
     guidetolerance="10"
     inkscape:pageopacity="0"
     inkscape:pageshadow="2"
     inkscape:window-width="1272"
     inkscape:window-height="912"
     id="namedview2878"
     showgrid="false"
     inkscape:zoom="0.89707474"
     inkscape:cx="579.29172"
     inkscape:cy="229.74401"
     inkscape:window-x="1280"
     inkscape:window-y="24"
     inkscape:window-maximized="0"
     inkscape:current-layer="g2886" /><g
     id="g2886"
     inkscape:groupmode="layer"
     inkscape:label="netsniff_logo"
     transform="matrix(1.25,0,0,-1.25,0,744.095)"><g
   id="g3206"
   transform="translate(401.30436,-156.06281)"><path
     id="path2888"
     style="fill:#000000;fill-opacity:1;fill-rule:nonzero;stroke:none"
     d="m 281.208,257.234 -120.436,0 0,120.437 120.436,0 0,-120.437 z" /><g
     id="g2890"><g
       clip-path="url(#clipPath2894)"
       id="g2892"><g
         transform="translate(258.8047,377.5952)"
         id="g2898"><path
           id="path2900"
           style="fill:#e1262f;fill-opacity:1;fill-rule:nonzero;stroke:none"
           d="m 0,0 c 0,0 16.933,6.35 21.872,16.932 4.18,8.949 -0.705,39.509 -0.705,39.509 0,0 29.259,-27.979 24.693,-50.798 -6.351,-31.748 -34.57,-35.98 -34.57,-35.98 L 0,0 z" /></g><g
         transform="translate(183.0459,377.7241)"
         id="g2902"><path
           id="path2904"
           style="fill:#e1262f;fill-opacity:1;fill-rule:nonzero;stroke:none"
           d="m 0,0 c 0,0 -16.932,6.35 -21.871,16.932 -4.18,8.949 0.705,39.508 0.705,39.508 0,0 -29.258,-27.979 -24.694,-50.797 6.352,-31.747 34.57,-35.979 34.57,-35.979 L 0,0 z" /></g></g></g><g
     id="g2906"><g
       clip-path="url(#clipPath2910)"
       id="g2908"><g
         transform="translate(225.4414,333.6992)"
         id="g2914"><path
           id="path2916"
           style="fill:#ffffff;fill-opacity:1;fill-rule:nonzero;stroke:none"
           d="m 0,0 37.483,8.517 c 0,0 -7.92,-25.665 -19.858,-25.665 C 1.207,-17.148 0,0 0,0" /></g><g
         transform="translate(253.1895,334.4102)"
         id="g2918"><path
           id="path2920"
           style="fill:#e1262f;fill-opacity:1;fill-rule:nonzero;stroke:none"
           d="m 0,0 c 0,-5.793 -4.692,-10.488 -10.486,-10.488 -5.794,0 -10.487,4.695 -10.487,10.488 0,5.793 4.693,10.486 10.487,10.486 C -4.692,10.486 0,5.793 0,0" /></g><g
         transform="translate(248.7236,334.4102)"
         id="g2922"><path
           id="path2924"
           style="fill:#222222;fill-opacity:1;fill-rule:nonzero;stroke:none"
           d="m 0,0 c 0,-3.324 -2.694,-6.02 -6.021,-6.02 -3.323,0 -6.017,2.696 -6.017,6.02 0,3.326 2.694,6.02 6.017,6.02 C -2.694,6.02 0,3.326 0,0" /></g></g></g><g
     id="g2928"
     clip-path="url(#clipPath2930)"><g
       id="g2934"
       transform="translate(215.4824,333.6992)"><path
         d="m 0,0 -37.482,8.517 c 0,0 7.919,-25.665 19.858,-25.665 C -1.205,-17.148 0,0 0,0"
         style="fill:#ffffff;fill-opacity:1;fill-rule:nonzero;stroke:none"
         id="path2936" /></g><g
       id="g2938"
       transform="translate(198.2197,344.896)"><path
         d="m 0,0 c 5.795,0 10.486,-4.693 10.486,-10.486 0,-5.793 -4.691,-10.488 -10.486,-10.488 -5.791,0 -10.486,4.695 -10.486,10.488 C -10.486,-4.693 -5.791,0 0,0"
         style="fill:#e1262f;fill-opacity:1;fill-rule:nonzero;stroke:none"
         id="path2940" /></g><g
       id="g2942"
       transform="translate(192.2012,334.4102)"><path
         d="m 0,0 c 0,-3.324 2.695,-6.02 6.019,-6.02 3.326,0 6.018,2.696 6.018,6.02 0,3.326 -2.692,6.02 -6.018,6.02 C 2.695,6.02 0,3.326 0,0"
         style="fill:#222222;fill-opacity:1;fill-rule:nonzero;stroke:none"
         id="path2944" /></g></g><path
     transform="matrix(0.8,0,0,-0.8,0,595.276)"
     id="path3075"
     d="m 242.91785,330.87289 c -2.27876,-2.27875 -2.7855,-6.15725 -1.09278,-8.36388 0.90674,-1.18203 1.42519,-1.18484 6.50294,-0.0353 6.07681,1.37577 6.92281,2.04345 6.28406,4.95957 -1.15004,5.25034 -7.89854,7.23525 -11.69422,3.43957 l 0,0 z"
     style="fill:#000000" /><path
     transform="matrix(0.8,0,0,-0.8,0,595.276)"
     id="path3077"
     d="m 299.68657,332.05826 c -1.70672,-0.99209 -3.83021,-5.65567 -3.25626,-7.15135 0.21908,-0.57094 2.96453,-1.62814 6.101,-2.34935 5.2476,-1.20665 5.78128,-1.20966 6.68795,-0.0377 0.54191,0.70047 0.9853,2.39889 0.9853,3.77427 0,4.96863 -6.1183,8.32162 -10.51799,5.76413 z"
     style="fill:#000000" /></g>

<g
   transform="scale(1,-1)"
   style="font-size:32px;font-style:normal;font-variant:normal;font-weight:500;font-stretch:normal;line-height:125%;letter-spacing:0px;word-spacing:0px;fill:#000000;fill-opacity:1;stroke:none;font-family:WenQuanYi Zen Hei;-inkscape-font-specification:WenQuanYi Zen Hei Medium"
   id="text4750"><path
     d="m 73.110817,-143.22699 0,-33.14062 c -4e-5,-4.06247 -0.828165,-7.10934 -2.484375,-9.14063 -1.625036,-2.03121 -4.187534,-3.04683 -7.6875,-3.04687 -2.531278,4e-5 -4.656276,0.40629 -6.375,1.21875 -1.718772,0.81254 -3.109396,2.01566 -4.171875,3.60937 -1.031269,1.59379 -1.781268,3.54691 -2.25,5.85938 -0.437517,2.31253 -0.656267,4.96877 -0.65625,7.96875 l 0,26.67187 -8.53125,0 0,-51.46875 6.9375,0 1.21875,6.9375 0.46875,0 c 0.781232,-1.3437 1.703106,-2.49995 2.765625,-3.46875 1.093729,-0.99995 2.281228,-1.82807 3.5625,-2.48437 1.281226,-0.6562 2.640599,-1.14058 4.078125,-1.45313 1.437471,-0.31245 2.90622,-0.4687 4.40625,-0.46875 5.718713,5e-5 10.015583,1.50005 12.890625,4.5 2.906203,2.9688 4.359326,7.73442 4.359375,14.29688 l 0,33.60937 -8.53125,0"
     style="font-size:96px;font-weight:normal;font-family:WenQuanYi Micro Hei;-inkscape-font-specification:WenQuanYi Micro Hei"
     id="path6080" /><path
     d="m 117.92332,-142.28949 c -3.43753,0 -6.57815,-0.57813 -9.42188,-1.73437 -2.84376,-1.15625 -5.29689,-2.84375 -7.35937,-5.0625 -2.031263,-2.21875 -3.609386,-4.96874 -4.734378,-8.25 -1.125006,-3.28124 -1.687505,-7.03123 -1.6875,-11.25 -5e-6,-4.24998 0.515619,-8.04685 1.546875,-11.39063 1.031242,-3.34371 2.484366,-6.17183 4.359373,-8.48437 1.87499,-2.34371 4.10936,-4.12496 6.70313,-5.34375 2.62498,-1.2187 5.5156,-1.82808 8.67187,-1.82813 3.09372,5e-5 5.87497,0.56255 8.34375,1.6875 2.46871,1.0938 4.56246,2.6563 6.28125,4.6875 1.71871,2.00004 3.03121,4.42192 3.9375,7.26563 0.93746,2.81253 1.40621,5.93753 1.40625,9.375 l 0,5.29687 -32.4375,0 c 0.15624,6.03127 1.42186,10.46876 3.79688,13.3125 2.40623,2.84376 5.96872,4.26563 10.6875,4.26563 1.59372,0 3.06247,-0.0781 4.40625,-0.23438 1.37496,-0.15624 2.68746,-0.37499 3.9375,-0.65625 1.28121,-0.31249 2.51558,-0.68749 3.70312,-1.125 1.18746,-0.46874 2.39058,-0.98437 3.60938,-1.54687 l 0,7.59375 c -1.25005,0.59375 -2.48442,1.10937 -3.70313,1.54687 -1.18754,0.4375 -2.42191,0.79688 -3.70312,1.07813 -1.25004,0.28124 -2.56254,0.48437 -3.9375,0.60937 -1.34378,0.125 -2.81253,0.1875 -4.40625,0.1875 m -2.10938,-46.26562 c -3.56252,4e-5 -6.39064,1.21879 -8.48437,3.65625 -2.06252,2.43753 -3.26564,5.98441 -3.60938,10.64062 l 23.0625,0 c -4e-5,-2.12497 -0.21879,-4.06246 -0.65625,-5.8125 -0.40628,-1.78121 -1.06253,-3.29683 -1.96875,-4.54687 -0.87503,-1.24996 -2.00003,-2.21871 -3.375,-2.90625 -1.37503,-0.68746 -3.03128,-1.03121 -4.96875,-1.03125"
     style="font-size:96px;font-weight:normal;font-family:WenQuanYi Micro Hei;-inkscape-font-specification:WenQuanYi Micro Hei"
     id="path6082" /><path
     d="m 164.51707,-149.27386 c 0.56247,0 1.18747,-0.0312 1.875,-0.0937 0.71872,-0.0625 1.40622,-0.14062 2.0625,-0.23438 0.65622,-0.0937 1.24997,-0.20312 1.78125,-0.32812 0.56247,-0.125 0.98434,-0.23437 1.26562,-0.32813 l 0,6.46875 c -0.40628,0.1875 -0.9219,0.375 -1.54687,0.5625 -0.62503,0.1875 -1.31253,0.34375 -2.0625,0.46875 -0.75003,0.15625 -1.53128,0.26562 -2.34375,0.32813 -0.81253,0.0937 -1.6094,0.14062 -2.39063,0.14062 -1.93752,0 -3.73439,-0.25 -5.39062,-0.75 -1.65627,-0.5 -3.09377,-1.35937 -4.3125,-2.57812 -1.18751,-1.21875 -2.12501,-2.85937 -2.8125,-4.92188 -0.68751,-2.09374 -1.03126,-4.71874 -1.03125,-7.875 l 0,-29.85937 -7.26563,0 0,-3.79688 7.26563,-3.65625 3.65625,-10.78125 4.92187,0 0,11.8125 12.9375,0 0,6.42188 -12.9375,0 0,29.85937 c -2e-5,3.03126 0.48436,5.31251 1.45313,6.84375 0.99998,1.53126 2.62498,2.29688 4.875,2.29688"
     style="font-size:96px;font-weight:normal;font-family:WenQuanYi Micro Hei;-inkscape-font-specification:WenQuanYi Micro Hei"
     id="path6084" /><path
     d="m 212.37644,-157.33636 c -4e-5,2.50001 -0.45316,4.6875 -1.35937,6.5625 -0.90629,1.875 -2.21879,3.45312 -3.9375,4.73437 -1.68754,1.25 -3.73441,2.1875 -6.14063,2.8125 -2.40627,0.625 -5.1094,0.9375 -8.10937,0.9375 -3.40627,0 -6.32814,-0.28125 -8.76563,-0.84375 -2.43751,-0.53125 -4.57813,-1.32812 -6.42187,-2.39062 l 0,-7.78125 c 0.96874,0.5 2.04687,1 3.23437,1.5 1.18749,0.46875 2.43749,0.89063 3.75,1.26562 1.31249,0.37501 2.65624,0.68751 4.03125,0.9375 1.40624,0.21876 2.79686,0.32813 4.17188,0.32813 2.03123,0 3.74997,-0.17187 5.15625,-0.51563 1.43747,-0.34374 2.59372,-0.82812 3.46875,-1.45312 0.90622,-0.65625 1.56247,-1.4375 1.96875,-2.34375 0.40622,-0.93749 0.60934,-1.96874 0.60937,-3.09375 -3e-5,-0.96874 -0.15628,-1.84374 -0.46875,-2.625 -0.31253,-0.78124 -0.89065,-1.54686 -1.73437,-2.29688 -0.81253,-0.78123 -1.93753,-1.56248 -3.375,-2.34375 -1.43753,-0.78123 -3.28127,-1.65623 -5.53125,-2.625 -2.25002,-0.96873 -4.28127,-1.92185 -6.09375,-2.85937 -1.78126,-0.93748 -3.29689,-1.98435 -4.54688,-3.14063 -1.25001,-1.15622 -2.21875,-2.48434 -2.90625,-3.98437 -0.65625,-1.53122 -0.98438,-3.34372 -0.98437,-5.4375 -1e-5,-2.18746 0.42187,-4.12496 1.26562,-5.8125 0.87499,-1.71871 2.09374,-3.15621 3.65625,-4.3125 1.56249,-1.1562 3.43749,-2.0312 5.625,-2.625 2.18748,-0.5937 4.62498,-0.89058 7.3125,-0.89063 3.03123,5e-5 5.79685,0.32818 8.29688,0.98438 2.53121,0.6563 4.92184,1.51567 7.17187,2.57812 l -2.95312,6.89063 c -2.03129,-0.90621 -4.12503,-1.68746 -6.28125,-2.34375 -2.12503,-0.68746 -4.2969,-1.03121 -6.51563,-1.03125 -3.18752,4e-5 -5.54689,0.53129 -7.07812,1.59375 -1.53127,1.03129 -2.29689,2.51566 -2.29688,4.45312 -1e-5,1.09379 0.17186,2.04691 0.51563,2.85938 0.37498,0.81253 0.99998,1.57816 1.875,2.29687 0.87498,0.71878 2.04685,1.45316 3.51562,2.20313 1.46873,0.71878 3.29685,1.53128 5.48438,2.4375 2.24997,0.93752 4.24997,1.87502 6,2.8125 1.78121,0.93752 3.29684,2.00002 4.54687,3.1875 1.24997,1.15627 2.20309,2.48439 2.85938,3.98437 0.65621,1.50002 0.98433,3.29689 0.98437,5.39063"
     style="font-size:96px;font-weight:normal;font-family:WenQuanYi Micro Hei;-inkscape-font-specification:WenQuanYi Micro Hei"
     id="path6086" /><path
     d="m 257.04832,-143.22699 0,-33.14062 c -4e-5,-4.06247 -0.82817,-7.10934 -2.48438,-9.14063 -1.62503,-2.03121 -4.18753,-3.04683 -7.6875,-3.04687 -2.53128,4e-5 -4.65627,0.40629 -6.375,1.21875 -1.71877,0.81254 -3.10939,2.01566 -4.17187,3.60937 -1.03127,1.59379 -1.78127,3.54691 -2.25,5.85938 -0.43752,2.31253 -0.65627,4.96877 -0.65625,7.96875 l 0,26.67187 -8.53125,0 0,-51.46875 6.9375,0 1.21875,6.9375 0.46875,0 c 0.78123,-1.3437 1.7031,-2.49995 2.76562,-3.46875 1.09373,-0.99995 2.28123,-1.82807 3.5625,-2.48437 1.28123,-0.6562 2.6406,-1.14058 4.07813,-1.45313 1.43747,-0.31245 2.90622,-0.4687 4.40625,-0.46875 5.71871,5e-5 10.01558,1.50005 12.89062,4.5 2.9062,2.9688 4.35933,7.73442 4.35938,14.29688 l 0,33.60937 -8.53125,0"
     style="font-size:96px;font-weight:normal;font-family:WenQuanYi Micro Hei;-inkscape-font-specification:WenQuanYi Micro Hei"
     id="path6088" /><path
     d="m 290.04832,-143.22699 -8.53125,0 0,-51.46875 8.53125,0 0,51.46875 m -9.1875,-65.39062 c -10e-6,-1.87494 0.46874,-3.23431 1.40625,-4.07813 0.96874,-0.84368 2.15624,-1.26555 3.5625,-1.26562 0.68748,7e-5 1.32811,0.10944 1.92187,0.32812 0.62499,0.18757 1.15624,0.50007 1.59375,0.9375 0.46874,0.43757 0.82811,1.00007 1.07813,1.6875 0.28123,0.65632 0.42185,1.45319 0.42187,2.39063 -2e-5,1.81256 -0.50002,3.17193 -1.5,4.07812 -0.96876,0.87506 -2.14064,1.31256 -3.51562,1.3125 -1.40626,6e-5 -2.59376,-0.43744 -3.5625,-1.3125 -0.93751,-0.87494 -1.40626,-2.23431 -1.40625,-4.07812"
     style="font-size:96px;font-weight:normal;font-family:WenQuanYi Micro Hei;-inkscape-font-specification:WenQuanYi Micro Hei"
     id="path6090" /><path
     d="m 328.81394,-188.27386 -11.48437,0 0,45.04687 -8.57813,0 0,-45.04687 -9.09375,0 0,-3.51563 9.09375,-3.1875 0,-4.5 c -10e-6,-3.34369 0.34374,-6.10931 1.03125,-8.29687 0.71874,-2.21869 1.73436,-3.98431 3.04688,-5.29688 1.34373,-1.31243 2.98435,-2.2343 4.92187,-2.76562 1.93748,-0.56243 4.12498,-0.84368 6.5625,-0.84375 1.84372,7e-5 3.53122,0.18757 5.0625,0.5625 1.56247,0.34382 2.95309,0.73444 4.17188,1.17187 l -2.20313,6.60938 c -0.96878,-0.34369 -2.03128,-0.64056 -3.1875,-0.89063 -1.12503,-0.28118 -2.31253,-0.42181 -3.5625,-0.42187 -1.25002,6e-5 -2.32815,0.15631 -3.23437,0.46875 -0.90628,0.28131 -1.65627,0.79694 -2.25,1.54687 -0.59377,0.75006 -1.0469,1.78131 -1.35938,3.09375 -0.28127,1.28131 -0.42189,2.93756 -0.42187,4.96875 l 0,4.875 11.48437,0 0,6.42188"
     style="font-size:96px;font-weight:normal;font-family:WenQuanYi Micro Hei;-inkscape-font-specification:WenQuanYi Micro Hei"
     id="path6092" /><path
     d="m 360.50144,-188.27386 -11.48437,0 0,45.04687 -8.57813,0 0,-45.04687 -9.09375,0 0,-3.51563 9.09375,-3.1875 0,-4.5 c -10e-6,-3.34369 0.34374,-6.10931 1.03125,-8.29687 0.71874,-2.21869 1.73436,-3.98431 3.04688,-5.29688 1.34373,-1.31243 2.98435,-2.2343 4.92187,-2.76562 1.93748,-0.56243 4.12498,-0.84368 6.5625,-0.84375 1.84372,7e-5 3.53122,0.18757 5.0625,0.5625 1.56247,0.34382 2.95309,0.73444 4.17188,1.17187 l -2.20313,6.60938 c -0.96878,-0.34369 -2.03128,-0.64056 -3.1875,-0.89063 -1.12503,-0.28118 -2.31253,-0.42181 -3.5625,-0.42187 -1.25002,6e-5 -2.32815,0.15631 -3.23437,0.46875 -0.90628,0.28131 -1.65627,0.79694 -2.25,1.54687 -0.59377,0.75006 -1.0469,1.78131 -1.35938,3.09375 -0.28127,1.28131 -0.42189,2.93756 -0.42187,4.96875 l 0,4.875 11.48437,0 0,6.42188"
     style="font-size:96px;font-weight:normal;font-family:WenQuanYi Micro Hei;-inkscape-font-specification:WenQuanYi Micro Hei"
     id="path6094" /><path
     d="m 365.51707,-165.02386 0,-7.875 23.25,0 0,7.875 -23.25,0"
     style="font-size:96px;font-weight:normal;font-family:WenQuanYi Micro Hei;-inkscape-font-specification:WenQuanYi Micro Hei"
     id="path6096" /><path
     d="m 432.92332,-143.22699 0,-33.14062 c -4e-5,-4.06247 -0.82817,-7.10934 -2.48438,-9.14063 -1.62503,-2.03121 -4.18753,-3.04683 -7.6875,-3.04687 -2.53128,4e-5 -4.65627,0.40629 -6.375,1.21875 -1.71877,0.81254 -3.10939,2.01566 -4.17187,3.60937 -1.03127,1.59379 -1.78127,3.54691 -2.25,5.85938 -0.43752,2.31253 -0.65627,4.96877 -0.65625,7.96875 l 0,26.67187 -8.53125,0 0,-51.46875 6.9375,0 1.21875,6.9375 0.46875,0 c 0.78123,-1.3437 1.7031,-2.49995 2.76562,-3.46875 1.09373,-0.99995 2.28123,-1.82807 3.5625,-2.48437 1.28123,-0.6562 2.6406,-1.14058 4.07813,-1.45313 1.43747,-0.31245 2.90622,-0.4687 4.40625,-0.46875 5.71871,5e-5 10.01558,1.50005 12.89062,4.5 2.9062,2.9688 4.35933,7.73442 4.35938,14.29688 l 0,33.60937 -8.53125,0"
     style="font-size:96px;font-weight:normal;font-family:WenQuanYi Micro Hei;-inkscape-font-specification:WenQuanYi Micro Hei"
     id="path6098" /><path
     d="m 497.04832,-194.69574 0,5.29688 -9.23438,1.26562 c 0.87496,1.09379 1.60934,2.50004 2.20313,4.21875 0.59371,1.68754 0.89058,3.60941 0.89062,5.76563 -4e-5,2.37503 -0.37504,4.57815 -1.125,6.60937 -0.71879,2.00003 -1.82816,3.7344 -3.32812,5.20313 -1.46879,1.46877 -3.29691,2.62502 -5.48438,3.46875 -2.18753,0.81251 -4.7344,1.21876 -7.64062,1.21875 -0.68753,1e-5 -1.37503,1e-5 -2.0625,0 -0.68752,-0.0312 -1.25002,-0.0937 -1.6875,-0.1875 -0.53127,0.31251 -1.06252,0.67189 -1.59375,1.07812 -0.50002,0.37502 -0.96877,0.81252 -1.40625,1.3125 -0.40627,0.50002 -0.75002,1.06252 -1.03125,1.6875 -0.25002,0.62501 -0.37502,1.31251 -0.375,2.0625 -2e-5,0.84376 0.18748,1.53126 0.5625,2.0625 0.37498,0.50001 0.87498,0.89063 1.5,1.17188 0.65623,0.28125 1.42185,0.46875 2.29687,0.5625 0.87498,0.0937 1.79685,0.14063 2.76563,0.14062 l 8.25,0 c 2.90621,1e-5 5.35934,0.37501 7.35937,1.125 1.99996,0.71876 3.62496,1.70313 4.875,2.95313 1.28121,1.25 2.20308,2.73437 2.76563,4.45312 0.56245,1.6875 0.8437,3.48437 0.84375,5.39063 -5e-5,2.74999 -0.51567,5.21873 -1.54688,7.40625 -1.00004,2.18748 -2.54692,4.03123 -4.64062,5.53125 -2.09379,1.53123 -4.75004,2.7031 -7.96875,3.51562 -3.18753,0.81248 -6.95315,1.21873 -11.29688,1.21875 -3.34377,-2e-5 -6.26564,-0.32815 -8.76562,-0.98437 -2.50001,-0.65628 -4.57814,-1.6094 -6.23438,-2.85938 -1.65625,-1.25002 -2.90625,-2.76564 -3.75,-4.54687 -0.8125,-1.75002 -1.21875,-3.73439 -1.21875,-5.95313 0,-1.87501 0.29687,-3.53125 0.89063,-4.96875 0.62499,-1.40625 1.45312,-2.625 2.48437,-3.65625 1.03125,-1.03125 2.21874,-1.875 3.5625,-2.53125 1.37499,-0.65625 2.79687,-1.15625 4.26563,-1.5 -1.31251,-0.59375 -2.39064,-1.53124 -3.23438,-2.8125 -0.84376,-1.28124 -1.26563,-2.74999 -1.26562,-4.40625 -10e-6,-1.90624 0.49999,-3.54686 1.5,-4.92187 0.99999,-1.40624 2.57811,-2.76561 4.73437,-4.07813 -1.34376,-0.56248 -2.57814,-1.3281 -3.70312,-2.29687 -1.09376,-0.99998 -2.03126,-2.12498 -2.8125,-3.375 -0.75001,-1.28123 -1.34376,-2.67185 -1.78125,-4.17188 -0.40626,-1.49997 -0.60938,-3.04684 -0.60938,-4.64062 0,-2.78122 0.39062,-5.26559 1.17188,-7.45313 0.78124,-2.18746 1.93749,-4.04683 3.46875,-5.57812 1.53124,-1.53121 3.43748,-2.70308 5.71875,-3.51563 2.28123,-0.81245 4.93748,-1.2187 7.96875,-1.21875 1.15622,5e-5 2.34372,0.0938 3.5625,0.28125 1.24997,0.1563 2.29684,0.37505 3.14062,0.65625 l 17.01563,0 m -38.01563,59.90625 c -10e-6,1.15624 0.20312,2.23436 0.60938,3.23438 0.40624,0.99998 1.06249,1.85936 1.96875,2.57812 0.93748,0.71874 2.15623,1.28123 3.65625,1.6875 1.53123,0.43748 3.42185,0.65623 5.67187,0.65625 5.81247,-2e-5 10.15622,-0.90627 13.03125,-2.71875 2.90621,-1.78126 4.35934,-4.35938 4.35938,-7.73437 -4e-5,-1.43751 -0.18754,-2.60938 -0.5625,-3.51563 -0.37504,-0.90625 -1.00004,-1.625 -1.875,-2.15625 -0.84379,-0.5 -1.96879,-0.84375 -3.375,-1.03125 -1.40628,-0.1875 -3.12503,-0.28125 -5.15625,-0.28125 l -8.25,0 c -1.09377,0 -2.2344,0.125 -3.42188,0.375 -1.18751,0.25 -2.28126,0.71875 -3.28125,1.40625 -0.96876,0.6875 -1.78126,1.625 -2.4375,2.8125 -0.62501,1.21875 -0.93751,2.78124 -0.9375,4.6875 m 4.3125,-43.35937 c -10e-6,3.59378 0.84374,6.26565 2.53125,8.01562 1.68748,1.75003 4.07811,2.62502 7.17188,2.625 3.12497,2e-5 5.48434,-0.85935 7.07812,-2.57812 1.62497,-1.74998 2.43747,-4.48435 2.4375,-8.20313 -3e-5,-3.84371 -0.82816,-6.67183 -2.48437,-8.48437 -1.62503,-1.81246 -4.00003,-2.71871 -7.125,-2.71875 -3.09377,4e-5 -5.46877,0.93754 -7.125,2.8125 -1.65627,1.87504 -2.48439,4.71878 -2.48438,8.53125"
     style="font-size:96px;font-weight:normal;font-family:WenQuanYi Micro Hei;-inkscape-font-specification:WenQuanYi Micro Hei"
     id="path6100" /><path
     d="m 547.57957,-149.27386 c 0.56247,0 1.18747,-0.0312 1.875,-0.0937 0.71872,-0.0625 1.40622,-0.14062 2.0625,-0.23438 0.65622,-0.0937 1.24997,-0.20312 1.78125,-0.32812 0.56247,-0.125 0.98434,-0.23437 1.26562,-0.32813 l 0,6.46875 c -0.40628,0.1875 -0.9219,0.375 -1.54687,0.5625 -0.62503,0.1875 -1.31253,0.34375 -2.0625,0.46875 -0.75003,0.15625 -1.53128,0.26562 -2.34375,0.32813 -0.81253,0.0937 -1.6094,0.14062 -2.39063,0.14062 -1.93752,0 -3.73439,-0.25 -5.39062,-0.75 -1.65627,-0.5 -3.09377,-1.35937 -4.3125,-2.57812 -1.18751,-1.21875 -2.12501,-2.85937 -2.8125,-4.92188 -0.68751,-2.09374 -1.03126,-4.71874 -1.03125,-7.875 l 0,-29.85937 -7.26563,0 0,-3.79688 7.26563,-3.65625 3.65625,-10.78125 4.92187,0 0,11.8125 12.9375,0 0,6.42188 -12.9375,0 0,29.85937 c -2e-5,3.03126 0.48436,5.31251 1.45313,6.84375 0.99998,1.53126 2.62498,2.29688 4.875,2.29688"
     style="font-size:96px;font-weight:normal;font-family:WenQuanYi Micro Hei;-inkscape-font-specification:WenQuanYi Micro Hei"
     id="path6102" /><path
     d="m 697.86082,-143.22699 -8.53125,0 0,-72.9375 8.53125,0 0,72.9375"
     style="font-size:96px;font-weight:normal;font-family:WenQuanYi Micro Hei;-inkscape-font-specification:WenQuanYi Micro Hei"
     id="path6104" /><path
     d="m 722.14207,-169.80511 6.32812,-7.96875 13.73438,-16.92188 9.89062,0 -18.79687,22.26563 20.0625,29.20312 -9.79688,0 -15.75,-23.625 -5.10937,3.84375 0,19.78125 -8.4375,0 0,-72.9375 8.4375,0 0,33.46875 -0.75,12.89063 0.1875,0"
     style="font-size:96px;font-weight:normal;font-family:WenQuanYi Micro Hei;-inkscape-font-specification:WenQuanYi Micro Hei"
     id="path6106" /><path
     d="m 770.42332,-143.22699 -8.53125,0 0,-51.46875 8.53125,0 0,51.46875 m -9.1875,-65.39062 c -10e-6,-1.87494 0.46874,-3.23431 1.40625,-4.07813 0.96874,-0.84368 2.15624,-1.26555 3.5625,-1.26562 0.68748,7e-5 1.32811,0.10944 1.92187,0.32812 0.62499,0.18757 1.15624,0.50007 1.59375,0.9375 0.46874,0.43757 0.82811,1.00007 1.07813,1.6875 0.28123,0.65632 0.42185,1.45319 0.42187,2.39063 -2e-5,1.81256 -0.50002,3.17193 -1.5,4.07812 -0.96876,0.87506 -2.14064,1.31256 -3.51562,1.3125 -1.40626,6e-5 -2.59376,-0.43744 -3.5625,-1.3125 -0.93751,-0.87494 -1.40626,-2.23431 -1.40625,-4.07812"
     style="font-size:96px;font-weight:normal;font-family:WenQuanYi Micro Hei;-inkscape-font-specification:WenQuanYi Micro Hei"
     id="path6108" /><path
     d="m 802.39207,-149.27386 c 0.56247,0 1.18747,-0.0312 1.875,-0.0937 0.71872,-0.0625 1.40622,-0.14062 2.0625,-0.23438 0.65622,-0.0937 1.24997,-0.20312 1.78125,-0.32812 0.56247,-0.125 0.98434,-0.23437 1.26562,-0.32813 l 0,6.46875 c -0.40628,0.1875 -0.9219,0.375 -1.54687,0.5625 -0.62503,0.1875 -1.31253,0.34375 -2.0625,0.46875 -0.75003,0.15625 -1.53128,0.26562 -2.34375,0.32813 -0.81253,0.0937 -1.6094,0.14062 -2.39063,0.14062 -1.93752,0 -3.73439,-0.25 -5.39062,-0.75 -1.65627,-0.5 -3.09377,-1.35937 -4.3125,-2.57812 -1.18751,-1.21875 -2.12501,-2.85937 -2.8125,-4.92188 -0.68751,-2.09374 -1.03126,-4.71874 -1.03125,-7.875 l 0,-29.85937 -7.26563,0 0,-3.79688 7.26563,-3.65625 3.65625,-10.78125 4.92187,0 0,11.8125 12.9375,0 0,6.42188 -12.9375,0 0,29.85937 c -2e-5,3.03126 0.48436,5.31251 1.45313,6.84375 0.99998,1.53126 2.62498,2.29688 4.875,2.29688"
     style="font-size:96px;font-weight:normal;font-family:WenQuanYi Micro Hei;-inkscape-font-specification:WenQuanYi Micro Hei"
     id="path6110" /></g>
<g
   transform="matrix(0.8,0,0,-0.8,27.645411,622.02962)"
   style="font-size:40px;font-style:normal;font-variant:normal;font-weight:500;font-stretch:normal;line-height:125%;letter-spacing:0px;word-spacing:0px;fill:#000000;fill-opacity:1;stroke:none;font-family:WenQuanYi Zen Hei;-inkscape-font-specification:WenQuanYi Zen Hei Medium"
   id="flowRoot5916"><path
     d="m 62.191406,604.91291 c -0.839852,-0.15623 -1.484383,-0.23436 -1.933594,-0.23438 -1.328131,2e-5 -2.128911,0.54689 -2.402343,1.64063 -0.07813,0.39064 -0.117193,0.89845 -0.117188,1.52343 l 0,0.61524 3.544922,0 0,1.8457 -3.544922,0 0,13.38867 -2.34375,0 0,-13.38867 -2.695312,0 0,-1.8457 2.695312,0 0,-0.46875 c -3e-6,-2.9492 1.005856,-4.64842 3.017578,-5.09766 0.332025,-0.0781 0.683587,-0.11716 1.054688,-0.11719 0.214836,3e-5 1.123039,0.0782 2.724609,0.23438 l 0,1.9043"
     style="font-size:30px"
     id="path6113" /><path
     d="m 75.433594,623.6922 -2.109375,0 0,-3.01757 -0.08789,0 c -0.527355,1.32812 -1.445323,2.29492 -2.753906,2.90039 -0.605477,0.27343 -1.240242,0.41015 -1.904297,0.41015 -2.968754,0 -4.638674,-1.62109 -5.009766,-4.86328 -0.0586,-0.42968 -0.08789,-0.89843 -0.08789,-1.40625 l 0,-9.25781 2.34375,0 0,9.25781 c -5e-6,2.65625 0.888666,4.07227 2.666015,4.24805 -7e-6,0 0.09765,0 0.292969,0 1.738272,0 2.988271,-0.86914 3.75,-2.60742 0.371082,-0.83984 0.556629,-1.77734 0.556641,-2.8125 l 0,-8.08594 2.34375,0 0,15.23437"
     style="font-size:30px"
     id="path6115" /><path
     d="m 82.347656,623.6922 -2.34375,0 0,-20.5664 2.34375,0 0,20.5664"
     style="font-size:30px"
     id="path6117" /><path
     d="m 89.525391,623.6922 -2.34375,0 0,-20.5664 2.34375,0 0,20.5664"
     style="font-size:30px"
     id="path6119" /><path
     d="m 105.81445,605.76252 -2.57812,0 0,-2.63672 2.57812,0 0,2.63672 m -0.11718,17.92968 -2.34375,0 0,-15.23437 2.34375,0 0,15.23437"
     style="font-size:30px"
     id="path6121" /><path
     d="m 122.2207,623.6922 -2.34375,0 0,-9.43359 c -10e-6,-1.28905 -0.10743,-2.16796 -0.32226,-2.63672 -0.0195,-0.0586 -0.0488,-0.11717 -0.0879,-0.17578 -0.4297,-0.76171 -1.16212,-1.21092 -2.19727,-1.34766 -0.13673,-0.0195 -0.27345,-0.0293 -0.41015,-0.0293 -1.89454,10e-6 -3.19337,0.96681 -3.89649,2.90039 -0.29297,0.83985 -0.43946,1.75782 -0.43945,2.7539 l 0,7.96875 -2.34375,0 0,-15.23437 2.19726,0 0,2.8125 0.0586,0 c 0.72265,-1.56249 1.84569,-2.55858 3.36914,-2.98828 0.44921,-0.15624 0.90819,-0.23436 1.37695,-0.23438 1.89452,2e-5 3.31054,0.75197 4.24805,2.25586 l 0.0879,0.11719 c 0.46873,0.82032 0.70311,2.22657 0.70312,4.21875 l 0,9.05273"
     style="font-size:30px"
     id="path6123" /><path
     d="m 139.24219,625.06916 c -2e-5,2.92968 -2.50978,4.39452 -7.5293,4.39453 -4.72656,-1e-5 -7.08984,-1.32813 -7.08984,-3.98438 0,-1.5039 0.77148,-2.52929 2.31445,-3.07617 -0.97656,-0.625 -1.46484,-1.42578 -1.46484,-2.40234 0,-1.07422 0.55664,-1.91406 1.66992,-2.51953 0.11718,-0.0586 0.26367,-0.12695 0.43945,-0.20508 -1.32813,-1.03515 -1.99219,-2.37304 -1.99219,-4.01367 0,-1.89452 0.81055,-3.33007 2.43164,-4.30664 0.99609,-0.60546 2.13867,-0.90819 3.42774,-0.90821 1.11327,2e-5 2.13866,0.22463 3.07617,0.67383 0.23437,-1.3867 0.85936,-2.21678 1.875,-2.49023 0.35155,-0.0976 0.76171,-0.14647 1.23047,-0.14649 0.4492,2e-5 0.78124,0.01 0.99609,0.0293 l 0.0586,1.875 c -1.21095,1e-5 -2.00197,0.1758 -2.37305,0.52734 l -0.35156,0.41016 -0.20508,0.67383 c -0.0195,0.0586 -0.0293,0.10743 -0.0293,0.14648 0.97655,1.07423 1.46483,2.32423 1.46485,3.75 -2e-5,1.81642 -0.83009,3.19337 -2.49024,4.13086 -0.9961,0.56641 -2.09962,0.84961 -3.31055,0.84961 l -2.05078,-0.23438 -0.0293,0 c -0.58595,10e-6 -1.04493,0.23438 -1.37696,0.70313 -0.15625,0.21485 -0.23437,0.44922 -0.23437,0.70312 0,0.66407 0.38085,1.09376 1.14258,1.28907 0.68359,0.19531 2.03124,0.2832 4.04297,0.26367 1.79686,0 3.13475,0.16602 4.01367,0.49805 1.11327,0.44922 1.84569,1.23047 2.19726,2.34375 0.0976,0.35156 0.14647,0.69335 0.14649,1.02539 m -4.42383,-11.80664 c -1e-5,-1.23046 -0.50782,-2.17773 -1.52344,-2.8418 -0.54688,-0.33202 -1.16212,-0.49803 -1.8457,-0.49805 -1.34766,2e-5 -2.33399,0.51759 -2.95899,1.55274 -0.3125,0.54688 -0.46875,1.15235 -0.46875,1.8164 0,1.50392 0.61523,2.51954 1.84571,3.04688 0.46874,0.19532 0.99608,0.29297 1.58203,0.29297 1.4453,0 2.45116,-0.57617 3.01758,-1.72852 0.23436,-0.5078 0.35155,-1.05468 0.35156,-1.64062 m 2.16797,11.89453 c -1e-5,-1.15235 -1.16212,-1.74805 -3.48633,-1.78711 l -1.25977,-0.0293 c -0.76172,-0.0391 -1.98242,-0.11719 -3.66211,-0.23437 -1.09375,0.50781 -1.64062,1.1914 -1.64062,2.05078 0,1.32812 1.16211,2.11913 3.48633,2.37304 0.42968,0.0586 0.86913,0.0879 1.31836,0.0879 2.91014,0 4.61913,-0.58594 5.12695,-1.75781 0.0781,-0.23437 0.11718,-0.46875 0.11719,-0.70312"
     style="font-size:30px"
     id="path6125" /><path
     d="m 148.93945,610.33283 -0.49804,0 c -1.87501,1e-5 -3.22267,0.88868 -4.04297,2.66601 -0.41016,0.91798 -0.61524,1.92384 -0.61524,3.01758 l 0,7.67578 -2.34375,0 0,-15.23437 2.08008,0 0,3.57422 0.0586,0 c 0.9375,-2.67577 2.34375,-4.01366 4.21875,-4.01367 0.23437,10e-6 0.61523,0.0293 1.14258,0.0879 l 0,2.22656"
     style="font-size:30px"
     id="path6127" /><path
     d="m 163.67578,616.2508 -11.07422,0 c -0.0195,1.95313 0.42969,3.44727 1.34766,4.48242 0.76171,0.85938 1.82616,1.28906 3.19336,1.28906 1.69921,0 2.94921,-0.74218 3.75,-2.22656 0.11717,-0.21484 0.2246,-0.45898 0.32226,-0.73242 l 2.22657,0.46875 c -0.56642,1.75781 -1.7383,3.03711 -3.51563,3.83789 -0.93751,0.41015 -1.9336,0.61523 -2.98828,0.61523 -2.61719,0 -4.55078,-1.07422 -5.80078,-3.22265 -0.78125,-1.32812 -1.17188,-2.89062 -1.17188,-4.6875 0,-2.51953 0.76172,-4.55077 2.28516,-6.09375 1.25,-1.28905 2.84179,-1.93358 4.77539,-1.9336 2.63671,2e-5 4.53124,1.14259 5.68359,3.42774 0.64452,1.26954 0.96679,2.74415 0.9668,4.42382 l 0,0.35157 m -2.57812,-1.72852 c 0.0195,-1.66014 -0.4883,-2.91991 -1.52344,-3.7793 -0.70314,-0.58592 -1.55274,-0.87889 -2.54883,-0.8789 -1.54297,1e-5 -2.72461,0.70314 -3.54492,2.10937 -0.46876,0.76173 -0.72266,1.61134 -0.76172,2.54883 l 8.37891,0"
     style="font-size:30px"
     id="path6129" /><path
     d="m 179.23242,619.26838 c -1e-5,2.03125 -1.06446,3.4375 -3.19336,4.21875 -0.93751,0.33203 -1.98243,0.49804 -3.13476,0.49804 -2.5586,0 -4.44337,-0.76172 -5.6543,-2.28515 -0.48828,-0.58594 -0.83008,-1.26953 -1.02539,-2.05079 l 2.28516,-0.46875 c 0.1953,1.3086 1.1328,2.17774 2.8125,2.60743 0.58593,0.17578 1.17186,0.26367 1.75781,0.26367 1.66014,0 2.78319,-0.43945 3.36914,-1.31836 0.21483,-0.35156 0.32225,-0.75195 0.32226,-1.20117 -1e-5,-0.99609 -0.66407,-1.68945 -1.99218,-2.08008 l -2.08008,-0.43945 c -2.03126,-0.37109 -3.41797,-0.78125 -4.16016,-1.23047 -1.13281,-0.72265 -1.69922,-1.80663 -1.69922,-3.25196 0,-1.85545 0.94727,-3.16404 2.8418,-3.92578 0.85937,-0.37108 1.8164,-0.55662 2.87109,-0.55664 2.67578,2e-5 4.51171,0.86916 5.50782,2.60742 0.23436,0.37111 0.41014,0.79103 0.52734,1.25977 l -2.16797,0.43945 c -0.48829,-1.40623 -1.5918,-2.19725 -3.31055,-2.37304 -0.19532,-0.0195 -0.39063,-0.0293 -0.58593,-0.0293 -1.40626,1e-5 -2.37305,0.38087 -2.90039,1.14258 -0.23438,0.29298 -0.35157,0.65431 -0.35157,1.08398 0,0.99611 0.70312,1.68946 2.10938,2.08008 0.17577,0.0781 1.24023,0.28321 3.19336,0.61523 1.30858,0.23439 2.25585,0.55665 2.8418,0.9668 1.21092,0.82032 1.81639,1.9629 1.8164,3.42774"
     style="font-size:30px"
     id="path6131" /><path
     d="m 194.81836,619.26838 c -1e-5,2.03125 -1.06447,3.4375 -3.19336,4.21875 -0.93751,0.33203 -1.98243,0.49804 -3.13477,0.49804 -2.55859,0 -4.44336,-0.76172 -5.65429,-2.28515 -0.48829,-0.58594 -0.83008,-1.26953 -1.02539,-2.05079 l 2.28515,-0.46875 c 0.19531,1.3086 1.13281,2.17774 2.8125,2.60743 0.58593,0.17578 1.17187,0.26367 1.75782,0.26367 1.66014,0 2.78319,-0.43945 3.36914,-1.31836 0.21483,-0.35156 0.32225,-0.75195 0.32226,-1.20117 -1e-5,-0.99609 -0.66407,-1.68945 -1.99219,-2.08008 l -2.08007,-0.43945 c -2.03126,-0.37109 -3.41798,-0.78125 -4.16016,-1.23047 -1.13281,-0.72265 -1.69922,-1.80663 -1.69922,-3.25196 0,-1.85545 0.94726,-3.16404 2.8418,-3.92578 0.85937,-0.37108 1.8164,-0.55662 2.87109,-0.55664 2.67577,2e-5 4.51171,0.86916 5.50781,2.60742 0.23437,0.37111 0.41015,0.79103 0.52735,1.25977 l -2.16797,0.43945 c -0.48829,-1.40623 -1.59181,-2.19725 -3.31055,-2.37304 -0.19532,-0.0195 -0.39063,-0.0293 -0.58594,-0.0293 -1.40625,1e-5 -2.37305,0.38087 -2.90039,1.14258 -0.23437,0.29298 -0.35156,0.65431 -0.35156,1.08398 0,0.99611 0.70312,1.68946 2.10938,2.08008 0.17577,0.0781 1.24022,0.28321 3.19336,0.61523 1.30858,0.23439 2.25584,0.55665 2.84179,0.9668 1.21093,0.82032 1.8164,1.9629 1.81641,3.42774"
     style="font-size:30px"
     id="path6133" /><path
     d="m 220.10156,623.6922 -2.34375,0 -0.26367,-2.84179 c -1.03517,2.08984 -2.81251,3.13476 -5.33203,3.13476 -1.97266,0 -3.44727,-0.61523 -4.42383,-1.8457 -0.60547,-0.76172 -0.9082,-1.67969 -0.9082,-2.75391 0,-1.5039 0.64453,-2.73437 1.93359,-3.6914 0.27344,-0.23437 0.57617,-0.41992 0.9082,-0.55664 1.30859,-0.62499 3.47656,-0.92773 6.50391,-0.90821 l 1.31836,0 0,-0.64453 c -10e-6,-1.87499 -0.66407,-3.02733 -1.99219,-3.45703 l -1.05468,-0.20508 c -0.25392,-0.0195 -0.52736,-0.0293 -0.82032,-0.0293 -2.42188,10e-6 -3.81836,0.89845 -4.18945,2.69531 l -2.16797,-0.35156 c 0.25391,-1.97265 1.5625,-3.25194 3.92578,-3.8379 0.82031,-0.23435 1.69921,-0.35154 2.63672,-0.35156 2.59765,2e-5 4.29686,0.69338 5.09766,2.08008 0.56639,0.93751 0.84959,2.42189 0.84961,4.45313 l 0,5.88867 c -2e-5,1.38672 0.1074,2.46094 0.32226,3.22265 m -2.60742,-6.67968 0,-0.9961 -1.96289,0 c -4.1211,10e-6 -6.18164,1.16212 -6.18164,3.48633 0,1.26953 0.67382,2.09961 2.02148,2.49023 0.39062,0.11719 0.82031,0.17579 1.28907,0.17579 1.66014,0 2.95897,-0.69336 3.89648,-2.08008 0.62499,-0.91797 0.93749,-1.94336 0.9375,-3.07617"
     style="font-size:30px"
     id="path6135" /><path
     d="m 235.48242,623.6922 -2.34375,0 0,-9.43359 c -1e-5,-1.28905 -0.10743,-2.16796 -0.32226,-2.63672 -0.0195,-0.0586 -0.0488,-0.11717 -0.0879,-0.17578 -0.4297,-0.76171 -1.16212,-1.21092 -2.19727,-1.34766 -0.13673,-0.0195 -0.27345,-0.0293 -0.41016,-0.0293 -1.89453,10e-6 -3.19336,0.96681 -3.89648,2.90039 -0.29297,0.83985 -0.43946,1.75782 -0.43945,2.7539 l 0,7.96875 -2.34375,0 0,-15.23437 2.19726,0 0,2.8125 0.0586,0 c 0.72265,-1.56249 1.84569,-2.55858 3.36914,-2.98828 0.44921,-0.15624 0.90819,-0.23436 1.37695,-0.23438 1.89452,2e-5 3.31053,0.75197 4.24805,2.25586 l 0.0879,0.11719 c 0.46873,0.82032 0.70311,2.22657 0.70312,4.21875 l 0,9.05273"
     style="font-size:30px"
     id="path6137" /><path
     d="m 251.71289,623.6922 -2.10937,0 0,-2.69531 -0.0586,0 c -0.9961,1.99219 -2.5879,2.98828 -4.77539,2.98828 -2.30469,0 -4.00391,-1.13281 -5.09766,-3.39844 -0.66406,-1.34765 -0.99609,-2.85155 -0.99609,-4.51171 0,-2.49999 0.6543,-4.52148 1.96289,-6.06446 1.13281,-1.30858 2.57812,-1.96287 4.33594,-1.96289 1.77733,2e-5 3.24218,0.82033 4.39453,2.46094 l 0,-7.38281 2.34375,0 0,20.5664 m -2.34375,-6.59179 0,-2.43164 c -10e-6,-1.95312 -0.63478,-3.33984 -1.9043,-4.16016 -0.64454,-0.39061 -1.40625,-0.58592 -2.28515,-0.58594 -1.73829,2e-5 -2.92969,1.03517 -3.57422,3.10547 -0.27344,0.87892 -0.41016,1.80665 -0.41016,2.7832 0,2.83204 0.67383,4.7168 2.02149,5.6543 0.52733,0.39063 1.1621,0.58594 1.90429,0.58594 1.56249,0 2.7539,-0.73242 3.57422,-2.19727 0.44921,-0.83984 0.67382,-1.7578 0.67383,-2.7539"
     style="font-size:30px"
     id="path6139" /><path
     d="m 277.52344,616.2508 -11.07422,0 c -0.0195,1.95313 0.42968,3.44727 1.34765,4.48242 0.76172,0.85938 1.82617,1.28906 3.19336,1.28906 1.69921,0 2.94921,-0.74218 3.75,-2.22656 0.11718,-0.21484 0.2246,-0.45898 0.32227,-0.73242 l 2.22656,0.46875 c -0.56642,1.75781 -1.73829,3.03711 -3.51562,3.83789 -0.93751,0.41015 -1.93361,0.61523 -2.98828,0.61523 -2.6172,0 -4.55079,-1.07422 -5.80079,-3.22265 -0.78125,-1.32812 -1.17187,-2.89062 -1.17187,-4.6875 0,-2.51953 0.76172,-4.55077 2.28516,-6.09375 1.24999,-1.28905 2.84179,-1.93358 4.77539,-1.9336 2.6367,2e-5 4.53123,1.14259 5.68359,3.42774 0.64452,1.26954 0.96678,2.74415 0.9668,4.42382 l 0,0.35157 m -2.57813,-1.72852 c 0.0195,-1.66014 -0.48829,-2.91991 -1.52344,-3.7793 -0.70313,-0.58592 -1.55274,-0.87889 -2.54882,-0.8789 -1.54298,1e-5 -2.72462,0.70314 -3.54493,2.10937 -0.46875,0.76173 -0.72266,1.61134 -0.76171,2.54883 l 8.3789,0"
     style="font-size:30px"
     id="path6141" /><path
     d="m 293.8418,625.06916 c -2e-5,2.92968 -2.50978,4.39452 -7.5293,4.39453 -4.72657,-1e-5 -7.08984,-1.32813 -7.08984,-3.98438 0,-1.5039 0.77148,-2.52929 2.31445,-3.07617 -0.97656,-0.625 -1.46485,-1.42578 -1.46484,-2.40234 -10e-6,-1.07422 0.55663,-1.91406 1.66992,-2.51953 0.11718,-0.0586 0.26367,-0.12695 0.43945,-0.20508 -1.32813,-1.03515 -1.99219,-2.37304 -1.99219,-4.01367 0,-1.89452 0.81055,-3.33007 2.43164,-4.30664 0.99609,-0.60546 2.13867,-0.90819 3.42774,-0.90821 1.11327,2e-5 2.13866,0.22463 3.07617,0.67383 0.23436,-1.3867 0.85936,-2.21678 1.875,-2.49023 0.35155,-0.0976 0.76171,-0.14647 1.23047,-0.14649 0.4492,2e-5 0.78123,0.01 0.99609,0.0293 l 0.0586,1.875 c -1.21095,1e-5 -2.00197,0.1758 -2.37305,0.52734 l -0.35156,0.41016 -0.20508,0.67383 c -0.0195,0.0586 -0.0293,0.10743 -0.0293,0.14648 0.97655,1.07423 1.46483,2.32423 1.46485,3.75 -2e-5,1.81642 -0.83009,3.19337 -2.49024,4.13086 -0.9961,0.56641 -2.09962,0.84961 -3.31055,0.84961 l -2.05078,-0.23438 -0.0293,0 c -0.58595,10e-6 -1.04493,0.23438 -1.37696,0.70313 -0.15625,0.21485 -0.23438,0.44922 -0.23437,0.70312 -1e-5,0.66407 0.38085,1.09376 1.14258,1.28907 0.68358,0.19531 2.03124,0.2832 4.04296,0.26367 1.79687,0 3.13476,0.16602 4.01368,0.49805 1.11326,0.44922 1.84569,1.23047 2.19726,2.34375 0.0976,0.35156 0.14647,0.69335 0.14649,1.02539 m -4.42383,-11.80664 c -1e-5,-1.23046 -0.50782,-2.17773 -1.52344,-2.8418 -0.54688,-0.33202 -1.16212,-0.49803 -1.8457,-0.49805 -1.34766,2e-5 -2.33399,0.51759 -2.95899,1.55274 -0.3125,0.54688 -0.46875,1.15235 -0.46875,1.8164 0,1.50392 0.61523,2.51954 1.84571,3.04688 0.46874,0.19532 0.99608,0.29297 1.58203,0.29297 1.4453,0 2.45116,-0.57617 3.01758,-1.72852 0.23436,-0.5078 0.35155,-1.05468 0.35156,-1.64062 m 2.16797,11.89453 c -2e-5,-1.15235 -1.16212,-1.74805 -3.48633,-1.78711 l -1.25977,-0.0293 c -0.76172,-0.0391 -1.98242,-0.11719 -3.66211,-0.23437 -1.09375,0.50781 -1.64062,1.1914 -1.64062,2.05078 0,1.32812 1.1621,2.11913 3.48633,2.37304 0.42968,0.0586 0.86913,0.0879 1.31836,0.0879 2.91014,0 4.61913,-0.58594 5.12695,-1.75781 0.0781,-0.23437 0.11717,-0.46875 0.11719,-0.70312"
     style="font-size:30px"
     id="path6143" /><path
     d="m 303.53906,610.33283 -0.49804,0 c -1.87501,1e-5 -3.22267,0.88868 -4.04297,2.66601 -0.41016,0.91798 -0.61524,1.92384 -0.61524,3.01758 l 0,7.67578 -2.34375,0 0,-15.23437 2.08008,0 0,3.57422 0.0586,0 c 0.9375,-2.67577 2.34375,-4.01366 4.21875,-4.01367 0.23437,10e-6 0.61523,0.0293 1.14258,0.0879 l 0,2.22656"
     style="font-size:30px"
     id="path6145" /><path
     d="m 318.27539,616.2508 -11.07422,0 c -0.0195,1.95313 0.42969,3.44727 1.34766,4.48242 0.76171,0.85938 1.82616,1.28906 3.19336,1.28906 1.69921,0 2.94921,-0.74218 3.75,-2.22656 0.11717,-0.21484 0.22459,-0.45898 0.32226,-0.73242 l 2.22657,0.46875 c -0.56642,1.75781 -1.7383,3.03711 -3.51563,3.83789 -0.93751,0.41015 -1.9336,0.61523 -2.98828,0.61523 -2.61719,0 -4.55079,-1.07422 -5.80078,-3.22265 -0.78125,-1.32812 -1.17188,-2.89062 -1.17188,-4.6875 0,-2.51953 0.76172,-4.55077 2.28516,-6.09375 1.24999,-1.28905 2.84179,-1.93358 4.77539,-1.9336 2.63671,2e-5 4.53124,1.14259 5.68359,3.42774 0.64452,1.26954 0.96679,2.74415 0.9668,4.42382 l 0,0.35157 m -2.57812,-1.72852 c 0.0195,-1.66014 -0.4883,-2.91991 -1.52344,-3.7793 -0.70314,-0.58592 -1.55275,-0.87889 -2.54883,-0.8789 -1.54298,1e-5 -2.72461,0.70314 -3.54492,2.10937 -0.46876,0.76173 -0.72266,1.61134 -0.76172,2.54883 l 8.37891,0"
     style="font-size:30px"
     id="path6147" /><path
     d="m 333.83203,619.26838 c -10e-6,2.03125 -1.06447,3.4375 -3.19336,4.21875 -0.93751,0.33203 -1.98243,0.49804 -3.13476,0.49804 -2.5586,0 -4.44337,-0.76172 -5.6543,-2.28515 -0.48828,-0.58594 -0.83008,-1.26953 -1.02539,-2.05079 l 2.28515,-0.46875 c 0.19531,1.3086 1.13281,2.17774 2.8125,2.60743 0.58594,0.17578 1.17187,0.26367 1.75782,0.26367 1.66014,0 2.78319,-0.43945 3.36914,-1.31836 0.21483,-0.35156 0.32225,-0.75195 0.32226,-1.20117 -10e-6,-0.99609 -0.66407,-1.68945 -1.99218,-2.08008 l -2.08008,-0.43945 c -2.03126,-0.37109 -3.41797,-0.78125 -4.16016,-1.23047 -1.13281,-0.72265 -1.69922,-1.80663 -1.69922,-3.25196 0,-1.85545 0.94727,-3.16404 2.8418,-3.92578 0.85937,-0.37108 1.8164,-0.55662 2.87109,-0.55664 2.67577,2e-5 4.51171,0.86916 5.50782,2.60742 0.23436,0.37111 0.41014,0.79103 0.52734,1.25977 l -2.16797,0.43945 c -0.48829,-1.40623 -1.59181,-2.19725 -3.31055,-2.37304 -0.19532,-0.0195 -0.39063,-0.0293 -0.58593,-0.0293 -1.40626,1e-5 -2.37306,0.38087 -2.90039,1.14258 -0.23438,0.29298 -0.35157,0.65431 -0.35157,1.08398 0,0.99611 0.70312,1.68946 2.10938,2.08008 0.17577,0.0781 1.24023,0.28321 3.19336,0.61523 1.30858,0.23439 2.25585,0.55665 2.84179,0.9668 1.21093,0.82032 1.8164,1.9629 1.81641,3.42774"
     style="font-size:30px"
     id="path6149" /><path
     d="m 349.41797,619.26838 c -2e-5,2.03125 -1.06447,3.4375 -3.19336,4.21875 -0.93751,0.33203 -1.98243,0.49804 -3.13477,0.49804 -2.5586,0 -4.44336,-0.76172 -5.65429,-2.28515 -0.48829,-0.58594 -0.83008,-1.26953 -1.02539,-2.05079 l 2.28515,-0.46875 c 0.19531,1.3086 1.13281,2.17774 2.8125,2.60743 0.58593,0.17578 1.17187,0.26367 1.75781,0.26367 1.66015,0 2.7832,-0.43945 3.36915,-1.31836 0.21483,-0.35156 0.32225,-0.75195 0.32226,-1.20117 -10e-6,-0.99609 -0.66407,-1.68945 -1.99219,-2.08008 l -2.08007,-0.43945 c -2.03126,-0.37109 -3.41798,-0.78125 -4.16016,-1.23047 -1.13282,-0.72265 -1.69922,-1.80663 -1.69922,-3.25196 0,-1.85545 0.94726,-3.16404 2.8418,-3.92578 0.85937,-0.37108 1.8164,-0.55662 2.87109,-0.55664 2.67577,2e-5 4.51171,0.86916 5.50781,2.60742 0.23437,0.37111 0.41015,0.79103 0.52735,1.25977 l -2.16797,0.43945 c -0.48829,-1.40623 -1.59181,-2.19725 -3.31055,-2.37304 -0.19532,-0.0195 -0.39063,-0.0293 -0.58594,-0.0293 -1.40625,1e-5 -2.37305,0.38087 -2.90039,1.14258 -0.23438,0.29298 -0.35156,0.65431 -0.35156,1.08398 0,0.99611 0.70312,1.68946 2.10938,2.08008 0.17577,0.0781 1.24022,0.28321 3.19336,0.61523 1.30858,0.23439 2.25584,0.55665 2.84179,0.9668 1.21093,0.82032 1.81639,1.9629 1.81641,3.42774"
     style="font-size:30px"
     id="path6151" /><path
     d="m 375.05273,615.95783 c -10e-6,2.53907 -0.62501,4.57031 -1.875,6.09375 -1.07423,1.28906 -2.46094,1.93359 -4.16015,1.93359 -1.95313,0 -3.4668,-0.89843 -4.54102,-2.69531 l 0,7.38281 -2.34375,0 0,-20.21484 2.13867,0 0,2.92969 0.0586,0 c 0.62499,-1.67968 1.74804,-2.7246 3.36914,-3.13477 0.42968,-0.1367 0.86913,-0.20506 1.31836,-0.20508 2.32421,2e-5 4.02342,1.15236 5.09765,3.45703 0.62499,1.32814 0.93749,2.81251 0.9375,4.45313 m -2.63671,0.0879 c -2e-5,-2.46093 -0.58595,-4.17968 -1.75782,-5.15625 l -0.64453,-0.43945 c -0.44923,-0.21483 -0.95704,-0.32226 -1.52344,-0.32227 -1.36719,10e-6 -2.4707,0.67384 -3.31054,2.02148 -0.13673,0.19533 -0.25391,0.41017 -0.35157,0.64454 -0.23437,0.48829 -0.35156,0.83985 -0.35156,1.05468 l 0,3.86719 c 0,1.25001 0.49804,2.33399 1.49414,3.25195 0.76171,0.70313 1.60156,1.05469 2.51953,1.05469 2.08984,0 3.35937,-1.37695 3.8086,-4.13086 0.0781,-0.5664 0.11717,-1.18163 0.11719,-1.8457"
     style="font-size:30px"
     id="path6153" /><path
     d="m 390.87305,623.6922 -2.34375,0 -0.26368,-2.84179 c -1.03516,2.08984 -2.8125,3.13476 -5.33203,3.13476 -1.97266,0 -3.44727,-0.61523 -4.42382,-1.8457 -0.60548,-0.76172 -0.90821,-1.67969 -0.90821,-2.75391 0,-1.5039 0.64453,-2.73437 1.9336,-3.6914 0.27343,-0.23437 0.57616,-0.41992 0.9082,-0.55664 1.30859,-0.62499 3.47655,-0.92773 6.50391,-0.90821 l 1.31835,0 0,-0.64453 c -1e-5,-1.87499 -0.66407,-3.02733 -1.99218,-3.45703 l -1.05469,-0.20508 c -0.25392,-0.0195 -0.52735,-0.0293 -0.82031,-0.0293 -2.42188,10e-6 -3.81837,0.89845 -4.18946,2.69531 l -2.16796,-0.35156 c 0.2539,-1.97265 1.56249,-3.25194 3.92578,-3.8379 0.8203,-0.23435 1.69921,-0.35154 2.63672,-0.35156 2.59764,2e-5 4.29686,0.69338 5.09765,2.08008 0.56639,0.93751 0.8496,2.42189 0.84961,4.45313 l 0,5.88867 c -10e-6,1.38672 0.10741,2.46094 0.32227,3.22265 m -2.60743,-6.67968 0,-0.9961 -1.96289,0 c -4.1211,10e-6 -6.18164,1.16212 -6.18164,3.48633 0,1.26953 0.67383,2.09961 2.02149,2.49023 0.39062,0.11719 0.8203,0.17579 1.28906,0.17579 1.66015,0 2.95897,-0.69336 3.89648,-2.08008 0.62499,-0.91797 0.93749,-1.94336 0.9375,-3.07617"
     style="font-size:30px"
     id="path6155" /><path
     d="m 405.52148,618.65314 c -0.41016,2.26563 -1.46485,3.83789 -3.16406,4.7168 -0.82032,0.41015 -1.72852,0.61523 -2.72461,0.61523 -2.53906,0 -4.375,-1.15234 -5.50781,-3.45703 -0.64453,-1.28906 -0.9668,-2.77343 -0.9668,-4.45312 0,-2.59765 0.69336,-4.64843 2.08008,-6.15235 1.15234,-1.24998 2.62695,-1.87498 4.42383,-1.875 2.3828,2e-5 4.09178,1.00588 5.12695,3.01758 0.35155,0.68361 0.59569,1.44532 0.73242,2.28516 l -2.16796,0.38086 c -0.15627,-1.58202 -0.82033,-2.68554 -1.99219,-3.31055 -0.35157,-0.1953 -0.76173,-0.31249 -1.23047,-0.35156 -0.13673,-0.0195 -0.27345,-0.0293 -0.41016,-0.0293 -1.875,10e-6 -3.125,1.10353 -3.75,3.31055 -0.21484,0.80079 -0.32227,1.66016 -0.32226,2.57812 -10e-6,2.48048 0.57617,4.23829 1.72851,5.27344 0.60547,0.52734 1.33789,0.79102 2.19727,0.79101 1.89452,10e-6 3.12499,-1.10351 3.6914,-3.31054 0.0391,-0.13672 0.0684,-0.27343 0.0879,-0.41016 l 2.16796,0.38086"
     style="font-size:30px"
     id="path6157" /><path
     d="m 421.2832,623.6922 -2.49023,0 -4.45313,-8.49609 -3.25195,3.7793 0,4.71679 -2.34375,0 0,-20.5664 2.34375,0 0,13.15429 7.03125,-7.76367 2.51953,0 -4.7168,5.33203 5.36133,9.84375"
     style="font-size:30px"
     id="path6159" /><path
     d="m 436.3418,616.2508 -11.07422,0 c -0.0195,1.95313 0.42968,3.44727 1.34765,4.48242 0.76172,0.85938 1.82617,1.28906 3.19336,1.28906 1.69921,0 2.94921,-0.74218 3.75,-2.22656 0.11718,-0.21484 0.2246,-0.45898 0.32227,-0.73242 l 2.22656,0.46875 c -0.56642,1.75781 -1.73829,3.03711 -3.51562,3.83789 -0.93751,0.41015 -1.93361,0.61523 -2.98828,0.61523 -2.6172,0 -4.55079,-1.07422 -5.80079,-3.22265 -0.78125,-1.32812 -1.17187,-2.89062 -1.17187,-4.6875 0,-2.51953 0.76172,-4.55077 2.28516,-6.09375 1.24999,-1.28905 2.84179,-1.93358 4.77539,-1.9336 2.6367,2e-5 4.53123,1.14259 5.68359,3.42774 0.64452,1.26954 0.96678,2.74415 0.9668,4.42382 l 0,0.35157 m -2.57813,-1.72852 c 0.0195,-1.66014 -0.48829,-2.91991 -1.52344,-3.7793 -0.70313,-0.58592 -1.55274,-0.87889 -2.54882,-0.8789 -1.54298,1e-5 -2.72462,0.70314 -3.54493,2.10937 -0.46875,0.76173 -0.72266,1.61134 -0.76171,2.54883 l 8.3789,0"
     style="font-size:30px"
     id="path6161" /><path
     d="m 447.03516,623.80939 -2.75391,0.20508 c -2.53907,0 -3.8086,-1.66992 -3.80859,-5.00977 l 0,-8.81836 -2.69532,0 0,-1.8457 2.69532,0 0,-3.7793 2.34375,-0.26367 0,4.04297 3.39843,0 0,1.8457 -3.39843,0 0,9.22852 c 0.17577,1.71875 0.86913,2.62695 2.08007,2.72461 0,0 0.71289,-0.0586 2.13868,-0.17578 l 0,1.8457"
     style="font-size:30px"
     id="path6163" /><path
     d="m 466.04883,604.91291 c -0.83985,-0.15623 -1.48439,-0.23436 -1.9336,-0.23438 -1.32813,2e-5 -2.12891,0.54689 -2.40234,1.64063 -0.0781,0.39064 -0.11719,0.89845 -0.11719,1.52343 l 0,0.61524 3.54492,0 0,1.8457 -3.54492,0 0,13.38867 -2.34375,0 0,-13.38867 -2.69531,0 0,-1.8457 2.69531,0 0,-0.46875 c 0,-2.9492 1.00586,-4.64842 3.01758,-5.09766 0.33203,-0.0781 0.68359,-0.11716 1.05469,-0.11719 0.21484,3e-5 1.12304,0.0782 2.72461,0.23438 l 0,1.9043"
     style="font-size:30px"
     id="path6165" /><path
     d="m 480.14062,615.98713 c -1e-5,2.59766 -0.77149,4.64844 -2.31445,6.15234 -1.25001,1.23047 -2.8418,1.8457 -4.77539,1.8457 -2.51954,0 -4.36524,-1.12304 -5.53711,-3.36914 -0.70312,-1.34765 -1.05469,-2.90038 -1.05469,-4.6582 0,-2.63671 0.79102,-4.69725 2.37305,-6.18164 1.21093,-1.15233 2.7539,-1.7285 4.62891,-1.72852 2.42186,2e-5 4.24803,1.06447 5.47851,3.19336 0.80077,1.3672 1.20116,2.94923 1.20117,4.7461 m -2.60742,-0.0293 c -1e-5,-2.59765 -0.6836,-4.37499 -2.05078,-5.33203 -0.62501,-0.42968 -1.36719,-0.64452 -2.22656,-0.64453 -1.99219,10e-6 -3.29102,1.15235 -3.89649,3.45703 -0.19531,0.78126 -0.29297,1.6211 -0.29296,2.51953 -1e-5,2.8125 0.74218,4.66797 2.22656,5.5664 0.54687,0.35157 1.20116,0.52735 1.96289,0.52735 2.16796,0 3.52538,-1.2793 4.07226,-3.83789 0.13671,-0.70312 0.20507,-1.45507 0.20508,-2.25586"
     style="font-size:30px"
     id="path6167" /><path
     d="m 491.09766,610.33283 -0.49805,0 c -1.87501,1e-5 -3.22266,0.88868 -4.04297,2.66601 -0.41016,0.91798 -0.61524,1.92384 -0.61523,3.01758 l 0,7.67578 -2.34375,0 0,-15.23437 2.08007,0 0,3.57422 0.0586,0 c 0.93749,-2.67577 2.34374,-4.01366 4.21875,-4.01367 0.23436,10e-6 0.61522,0.0293 1.14258,0.0879 l 0,2.22656"
     style="font-size:30px"
     id="path6169" /><path
     d="m 504.39844,618.65314 c -0.41017,2.26563 -1.46486,3.83789 -3.16407,4.7168 -0.82032,0.41015 -1.72852,0.61523 -2.7246,0.61523 -2.53907,0 -4.37501,-1.15234 -5.50782,-3.45703 -0.64453,-1.28906 -0.96679,-2.77343 -0.96679,-4.45312 0,-2.59765 0.69335,-4.64843 2.08007,-6.15235 1.15234,-1.24998 2.62695,-1.87498 4.42383,-1.875 2.38281,2e-5 4.09179,1.00588 5.12696,3.01758 0.35155,0.68361 0.59569,1.44532 0.73242,2.28516 l -2.16797,0.38086 c -0.15626,-1.58202 -0.82032,-2.68554 -1.99219,-3.31055 -0.35157,-0.1953 -0.76173,-0.31249 -1.23047,-0.35156 -0.13672,-0.0195 -0.27344,-0.0293 -0.41015,-0.0293 -1.87501,10e-6 -3.12501,1.10353 -3.75,3.31055 -0.21485,0.80079 -0.32227,1.66016 -0.32227,2.57812 0,2.48048 0.57617,4.23829 1.72852,5.27344 0.60546,0.52734 1.33788,0.79102 2.19726,0.79101 1.89452,10e-6 3.12499,-1.10351 3.69141,-3.31054 0.039,-0.13672 0.0684,-0.27343 0.0879,-0.41016 l 2.16797,0.38086"
     style="font-size:30px"
     id="path6171" /><path
     d="m 520.21875,616.2508 -11.07422,0 c -0.0195,1.95313 0.42968,3.44727 1.34766,4.48242 0.76171,0.85938 1.82616,1.28906 3.19336,1.28906 1.69921,0 2.9492,-0.74218 3.75,-2.22656 0.11717,-0.21484 0.22459,-0.45898 0.32226,-0.73242 l 2.22656,0.46875 c -0.56642,1.75781 -1.73829,3.03711 -3.51562,3.83789 -0.93751,0.41015 -1.9336,0.61523 -2.98828,0.61523 -2.61719,0 -4.55079,-1.07422 -5.80078,-3.22265 -0.78125,-1.32812 -1.17188,-2.89062 -1.17188,-4.6875 0,-2.51953 0.76172,-4.55077 2.28516,-6.09375 1.24999,-1.28905 2.84179,-1.93358 4.77539,-1.9336 2.63671,2e-5 4.53124,1.14259 5.68359,3.42774 0.64452,1.26954 0.96679,2.74415 0.9668,4.42382 l 0,0.35157 m -2.57813,-1.72852 c 0.0195,-1.66014 -0.48829,-2.91991 -1.52343,-3.7793 -0.70314,-0.58592 -1.55275,-0.87889 -2.54883,-0.8789 -1.54298,1e-5 -2.72462,0.70314 -3.54492,2.10937 -0.46876,0.76173 -0.72266,1.61134 -0.76172,2.54883 l 8.3789,0"
     style="font-size:30px"
     id="path6173" /></g></g></svg>