<?xml version="1.0" encoding="UTF-8" ?>
<!DOCTYPE svg PUBLIC "-//W3C//DTD SVG 1.1//EN" "http://www.w3.org/Graphics/SVG/1.1/DTD/svg11.dtd">
<svg width="223pt" height="224pt" viewBox="0 0 223 224" version="1.1" xmlns="http://www.w3.org/2000/svg">
<path fill="#fefefe" d=" M 0.00 0.00 L 223.00 0.00 L 223.00 224.00 L 0.00 224.00 L 0.00 0.00 Z" />
<path fill="#000000" d=" M 12.00 12.00 C 26.00 12.00 40.00 12.00 54.00 12.00 C 54.00 26.00 54.00 40.00 54.00 54.00 C 40.00 54.00 26.00 54.00 12.00 54.00 C 12.00 40.00 12.00 26.00 12.00 12.00 Z" />
<path fill="#000000" d=" M 66.00 12.00 C 70.00 12.00 74.00 12.00 78.00 12.00 C 78.00 14.00 78.00 16.00 78.00 18.00 C 76.00 18.00 74.00 18.00 72.00 18.00 C 72.00 20.00 72.00 22.00 72.00 24.00 C 74.00 24.00 76.00 24.00 78.00 24.00 C 78.00 26.00 78.00 28.00 78.00 30.00 C 76.00 30.00 74.00 30.00 72.00 30.00 C 72.00 32.00 72.00 34.00 72.00 36.00 C 70.00 36.00 68.00 36.00 66.00 36.00 C 66.00 32.00 66.00 28.00 66.00 24.00 C 64.00 24.00 62.00 24.00 60.00 24.00 C 60.00 22.00 60.00 20.00 60.00 18.00 C 62.00 18.00 64.00 18.00 66.00 18.00 C 66.00 16.00 66.00 14.00 66.00 12.00 Z" />
<path fill="#000000" d=" M 90.00 12.00 C 94.00 12.00 98.00 12.00 102.00 12.00 C 102.00 14.00 102.00 16.00 102.00 18.00 C 98.00 18.00 94.00 18.00 90.00 18.00 C 90.00 16.00 90.00 14.00 90.00 12.00 Z" />
<path fill="#000000" d=" M 126.00 12.00 C 128.00 12.00 130.00 12.00 132.00 12.00 C 132.00 14.00 132.00 16.00 132.00 18.00 C 130.00 18.00 128.00 18.00 126.00 18.00 C 126.00 16.00 126.00 14.00 126.00 12.00 Z" />
<path fill="#000000" d=" M 150.00 12.00 C 154.00 12.00 158.00 12.00 162.00 12.00 C 162.00 14.00 162.00 16.00 162.00 18.00 C 158.00 18.00 154.00 18.00 150.00 18.00 C 150.00 16.00 150.00 14.00 150.00 12.00 Z" />
<path fill="#000000" d=" M 168.00 12.00 C 182.00 12.00 196.00 12.00 210.00 12.00 C 210.00 26.00 210.00 40.00 210.00 54.00 C 196.00 54.00 182.00 54.00 168.00 54.00 C 168.00 40.00 168.00 26.00 168.00 12.00 Z" />
<path fill="#fefefe" d=" M 18.00 18.00 C 28.00 18.00 38.00 18.00 48.00 18.00 C 48.00 28.00 48.00 38.00 48.00 48.00 C 38.00 48.00 28.00 48.00 18.00 48.00 C 18.00 38.00 18.00 28.00 18.00 18.00 Z" />
<path fill="#fefefe" d=" M 72.00 18.00 C 74.00 18.00 76.00 18.00 78.00 18.00 C 78.00 20.00 78.00 22.00 78.00 24.00 C 76.00 24.00 74.00 24.00 72.00 24.00 C 72.00 22.00 72.00 20.00 72.00 18.00 Z" />
<path fill="#000000" d=" M 78.00 18.00 C 82.00 18.00 86.00 18.00 90.00 18.00 C 90.00 22.00 90.00 26.00 90.00 30.00 C 88.00 30.00 86.00 30.00 84.00 30.00 C 84.00 28.00 84.00 26.00 84.00 24.00 C 82.00 24.00 80.00 24.00 78.00 24.00 C 78.00 22.00 78.00 20.00 78.00 18.00 Z" />
<path fill="#fefefe" d=" M 90.00 18.00 C 94.00 18.00 98.00 18.00 102.00 18.00 C 102.00 20.00 102.00 22.00 102.00 24.00 C 100.00 24.00 98.00 24.00 96.00 24.00 C 96.00 26.00 96.00 28.00 96.00 30.00 C 94.00 30.00 92.00 30.00 90.00 30.00 C 90.00 26.00 90.00 22.00 90.00 18.00 Z" />
<path fill="#000000" d=" M 102.00 18.00 C 110.00 18.00 118.00 18.00 126.00 18.00 C 126.00 20.00 126.00 22.00 126.00 24.00 C 120.00 24.00 114.00 24.00 108.00 24.00 C 108.00 26.00 108.00 28.00 108.00 30.00 C 114.00 30.00 120.00 30.00 126.00 30.00 C 126.00 32.00 126.00 34.00 126.00 36.00 C 124.00 36.00 122.00 36.00 120.00 36.00 C 120.00 38.00 120.00 40.00 120.00 42.00 C 118.00 42.00 116.00 42.00 114.00 42.00 C 114.00 40.00 114.00 38.00 114.00 36.00 C 110.00 36.00 106.00 36.00 102.00 36.00 C 102.00 34.00 102.00 32.00 102.00 30.00 C 100.00 30.00 98.00 30.00 96.00 30.00 C 96.00 28.00 96.00 26.00 96.00 24.00 C 98.00 24.00 100.00 24.00 102.00 24.00 C 102.00 22.00 102.00 20.00 102.00 18.00 Z" />
<path fill="#000000" d=" M 138.00 18.00 C 140.00 18.00 142.00 18.00 144.00 18.00 C 144.00 22.00 144.00 26.00 144.00 30.00 C 142.00 30.00 140.00 30.00 138.00 30.00 C 138.00 32.00 138.00 34.00 138.00 36.00 C 140.00 36.00 142.00 36.00 144.00 36.00 C 144.00 38.00 144.00 40.00 144.00 42.00 C 146.00 42.00 148.00 42.00 150.00 42.00 C 150.00 46.00 150.00 50.00 150.00 54.00 C 148.00 54.00 146.00 54.00 144.00 54.00 C 144.00 52.00 144.00 50.00 144.00 48.00 C 142.00 48.00 140.00 48.00 138.00 48.00 C 138.00 50.00 138.00 52.00 138.00 54.00 C 136.00 54.00 134.00 54.00 132.00 54.00 C 132.00 52.00 132.00 50.00 132.00 48.00 C 130.00 48.00 128.00 48.00 126.00 48.00 C 126.00 44.00 126.00 40.00 126.00 36.00 C 128.00 36.00 130.00 36.00 132.00 36.00 C 132.00 34.00 132.00 32.00 132.00 30.00 C 130.00 30.00 128.00 30.00 126.00 30.00 C 126.00 28.00 126.00 26.00 126.00 24.00 C 130.00 24.00 134.00 24.00 138.00 24.00 C 138.00 22.00 138.00 20.00 138.00 18.00 Z" />
<path fill="#fefefe" d=" M 174.00 18.00 C 184.00 18.00 194.00 18.00 204.00 18.00 C 204.00 28.00 204.00 38.00 204.00 48.00 C 194.00 48.00 184.00 48.00 174.00 48.00 C 174.00 38.00 174.00 28.00 174.00 18.00 Z" />
<path fill="#000000" d=" M 24.00 24.00 C 30.00 24.00 36.00 24.00 42.00 24.00 C 42.00 30.00 42.00 36.00 42.00 42.00 C 36.00 42.00 30.00 42.00 24.00 42.00 C 24.00 36.00 24.00 30.00 24.00 24.00 Z" />
<path fill="#fefefe" d=" M 78.00 24.00 C 80.00 24.00 82.00 24.00 84.00 24.00 C 84.00 26.00 84.00 28.00 84.00 30.00 C 82.00 30.00 80.00 30.00 78.00 30.00 C 78.00 28.00 78.00 26.00 78.00 24.00 Z" />
<path fill="#fefefe" d=" M 108.00 24.00 C 114.00 24.00 120.00 24.00 126.00 24.00 C 126.00 26.00 126.00 28.00 126.00 30.00 C 120.00 30.00 114.00 30.00 108.00 30.00 C 108.00 28.00 108.00 26.00 108.00 24.00 Z" />
<path fill="#000000" d=" M 156.00 24.00 C 158.00 24.00 160.00 24.00 162.00 24.00 C 162.00 30.00 162.00 36.00 162.00 42.00 C 160.00 42.00 158.00 42.00 156.00 42.00 C 156.00 36.00 156.00 30.00 156.00 24.00 Z" />
<path fill="#000000" d=" M 180.00 24.00 C 186.00 24.00 192.00 24.00 198.00 24.00 C 198.00 30.00 198.00 36.00 198.00 42.00 C 192.00 42.00 186.00 42.00 180.00 42.00 C 180.00 36.00 180.00 30.00 180.00 24.00 Z" />
<path fill="#fefefe" d=" M 72.00 30.00 C 74.00 30.00 76.00 30.00 78.00 30.00 C 78.00 32.00 78.00 34.00 78.00 36.00 C 76.00 36.00 74.00 36.00 72.00 36.00 C 72.00 34.00 72.00 32.00 72.00 30.00 Z" />
<path fill="#000000" d=" M 78.00 30.00 C 80.00 30.00 82.00 30.00 84.00 30.00 C 84.00 32.00 84.00 34.00 84.00 36.00 C 86.00 36.00 88.00 36.00 90.00 36.00 C 90.00 34.00 90.00 32.00 90.00 30.00 C 92.00 30.00 94.00 30.00 96.00 30.00 C 96.00 32.00 96.00 34.00 96.00 36.00 C 98.00 36.00 100.00 36.00 102.00 36.00 C 102.00 38.00 102.00 40.00 102.00 42.00 C 96.00 42.00 90.00 42.00 84.00 42.00 C 84.00 44.00 84.00 46.00 84.00 48.00 C 82.00 48.00 80.00 48.00 78.00 48.00 C 78.00 46.00 78.00 44.00 78.00 42.00 C 76.00 42.00 74.00 42.00 72.00 42.00 C 72.00 40.00 72.00 38.00 72.00 36.00 C 74.00 36.00 76.00 36.00 78.00 36.00 C 78.00 34.00 78.00 32.00 78.00 30.00 Z" />
<path fill="#fefefe" d=" M 84.00 30.00 C 86.00 30.00 88.00 30.00 90.00 30.00 C 90.00 32.00 90.00 34.00 90.00 36.00 C 88.00 36.00 86.00 36.00 84.00 36.00 C 84.00 34.00 84.00 32.00 84.00 30.00 Z" />
<path fill="#fefefe" d=" M 96.00 30.00 C 98.00 30.00 100.00 30.00 102.00 30.00 C 102.00 32.00 102.00 34.00 102.00 36.00 C 100.00 36.00 98.00 36.00 96.00 36.00 C 96.00 34.00 96.00 32.00 96.00 30.00 Z" />
<path fill="#fefefe" d=" M 126.00 30.00 C 128.00 30.00 130.00 30.00 132.00 30.00 C 132.00 32.00 132.00 34.00 132.00 36.00 C 130.00 36.00 128.00 36.00 126.00 36.00 C 126.00 34.00 126.00 32.00 126.00 30.00 Z" />
<path fill="#fefefe" d=" M 102.00 36.00 C 106.00 36.00 110.00 36.00 114.00 36.00 C 114.00 38.00 114.00 40.00 114.00 42.00 C 116.00 42.00 118.00 42.00 120.00 42.00 C 120.00 40.00 120.00 38.00 120.00 36.00 C 122.00 36.00 124.00 36.00 126.00 36.00 C 126.00 40.00 126.00 44.00 126.00 48.00 C 124.00 48.00 122.00 48.00 120.00 48.00 C 120.00 50.00 120.00 52.00 120.00 54.00 C 118.00 54.00 116.00 54.00 114.00 54.00 C 114.00 52.00 114.00 50.00 114.00 48.00 C 112.00 48.00 110.00 48.00 108.00 48.00 C 108.00 46.00 108.00 44.00 108.00 42.00 C 106.00 42.00 104.00 42.00 102.00 42.00 C 102.00 40.00 102.00 38.00 102.00 36.00 Z" />
<path fill="#000000" d=" M 60.00 42.00 C 64.00 42.00 68.00 42.00 72.00 42.00 C 72.00 44.00 72.00 46.00 72.00 48.00 C 70.00 48.00 68.00 48.00 66.00 48.00 C 66.00 50.00 66.00 52.00 66.00 54.00 C 68.00 54.00 70.00 54.00 72.00 54.00 C 72.00 56.00 72.00 58.00 72.00 60.00 C 68.00 60.00 64.00 60.00 60.00 60.00 C 60.00 54.00 60.00 48.00 60.00 42.00 Z" />
<path fill="#fefefe" d=" M 72.00 42.00 C 74.00 42.00 76.00 42.00 78.00 42.00 C 78.00 44.00 78.00 46.00 78.00 48.00 C 76.00 48.00 74.00 48.00 72.00 48.00 C 72.00 46.00 72.00 44.00 72.00 42.00 Z" />
<path fill="#fefefe" d=" M 84.00 42.00 C 90.00 42.00 96.00 42.00 102.00 42.00 C 102.00 44.00 102.00 46.00 102.00 48.00 C 100.00 48.00 98.00 48.00 96.00 48.00 C 96.00 50.00 96.00 52.00 96.00 54.00 C 94.00 54.00 92.00 54.00 90.00 54.00 C 90.00 52.00 90.00 50.00 90.00 48.00 C 88.00 48.00 86.00 48.00 84.00 48.00 C 84.00 46.00 84.00 44.00 84.00 42.00 Z" />
<path fill="#000000" d=" M 102.00 42.00 C 104.00 42.00 106.00 42.00 108.00 42.00 C 108.00 44.00 108.00 46.00 108.00 48.00 C 106.00 48.00 104.00 48.00 102.00 48.00 C 102.00 46.00 102.00 44.00 102.00 42.00 Z" />
<path fill="#fefefe" d=" M 66.00 48.00 C 68.00 48.00 70.00 48.00 72.00 48.00 C 72.00 50.00 72.00 52.00 72.00 54.00 C 70.00 54.00 68.00 54.00 66.00 54.00 C 66.00 52.00 66.00 50.00 66.00 48.00 Z" />
<path fill="#000000" d=" M 72.00 48.00 C 74.00 48.00 76.00 48.00 78.00 48.00 C 78.00 50.00 78.00 52.00 78.00 54.00 C 76.00 54.00 74.00 54.00 72.00 54.00 C 72.00 52.00 72.00 50.00 72.00 48.00 Z" />
<path fill="#000000" d=" M 84.00 48.00 C 86.00 48.00 88.00 48.00 90.00 48.00 C 90.00 50.00 90.00 52.00 90.00 54.00 C 92.00 54.00 94.00 54.00 96.00 54.00 C 96.00 52.00 96.00 50.00 96.00 48.00 C 98.00 48.00 100.00 48.00 102.00 48.00 C 102.00 53.00 102.00 58.00 102.00 63.00 C 100.00 63.00 98.00 63.00 96.00 63.00 C 96.00 62.25 96.00 60.75 96.00 60.00 C 94.00 60.00 92.00 60.00 90.00 60.00 C 90.00 60.75 90.00 62.25 90.00 63.00 C 86.00 63.00 82.00 63.00 78.00 63.00 C 78.00 62.25 78.00 60.75 78.00 60.00 C 80.00 60.00 82.00 60.00 84.00 60.00 C 84.00 56.00 84.00 52.00 84.00 48.00 Z" />
<path fill="#000000" d=" M 108.00 48.00 C 110.00 48.00 112.00 48.00 114.00 48.00 C 114.00 50.00 114.00 52.00 114.00 54.00 C 112.00 54.00 110.00 54.00 108.00 54.00 C 108.00 52.00 108.00 50.00 108.00 48.00 Z" />
<path fill="#000000" d=" M 120.00 48.00 C 122.00 48.00 124.00 48.00 126.00 48.00 C 126.00 50.00 126.00 52.00 126.00 54.00 C 128.00 54.00 130.00 54.00 132.00 54.00 C 132.00 56.00 132.00 58.00 132.00 60.00 C 126.00 60.00 120.00 60.00 114.00 60.00 C 114.00 58.00 114.00 56.00 114.00 54.00 C 116.00 54.00 118.00 54.00 120.00 54.00 C 120.00 52.00 120.00 50.00 120.00 48.00 Z" />
<path fill="#fefefe" d=" M 126.00 48.00 C 128.00 48.00 130.00 48.00 132.00 48.00 C 132.00 50.00 132.00 52.00 132.00 54.00 C 130.00 54.00 128.00 54.00 126.00 54.00 C 126.00 52.00 126.00 50.00 126.00 48.00 Z" />
<path fill="#fefefe" d=" M 138.00 48.00 C 140.00 48.00 142.00 48.00 144.00 48.00 C 144.00 50.00 144.00 52.00 144.00 54.00 C 142.00 54.00 140.00 54.00 138.00 54.00 C 138.00 52.00 138.00 50.00 138.00 48.00 Z" />
<path fill="#000000" d=" M 156.00 48.00 C 158.00 48.00 160.00 48.00 162.00 48.00 C 162.00 50.00 162.00 52.00 162.00 54.00 C 160.00 54.00 158.00 54.00 156.00 54.00 C 156.00 52.00 156.00 50.00 156.00 48.00 Z" />
<path fill="#fefefe" d=" M 132.00 54.00 C 134.00 54.00 136.00 54.00 138.00 54.00 C 138.00 56.00 138.00 58.00 138.00 60.00 C 136.00 60.00 134.00 60.00 132.00 60.00 C 132.00 58.00 132.00 56.00 132.00 54.00 Z" />
<path fill="#000000" d=" M 138.00 54.00 C 140.00 54.00 142.00 54.00 144.00 54.00 C 144.00 56.00 144.00 58.00 144.00 60.00 C 146.00 60.00 148.00 60.00 150.00 60.00 C 150.00 60.75 150.00 62.25 150.00 63.00 C 144.00 63.01 138.00 63.00 132.00 63.00 C 132.00 62.25 132.00 60.75 132.00 60.00 C 134.00 60.00 136.00 60.00 138.00 60.00 C 138.00 58.00 138.00 56.00 138.00 54.00 Z" />
<path fill="#fefefe" d=" M 144.00 54.00 C 146.00 54.00 148.00 54.00 150.00 54.00 C 150.00 56.00 150.00 58.00 150.00 60.00 C 148.00 60.00 146.00 60.00 144.00 60.00 C 144.00 58.00 144.00 56.00 144.00 54.00 Z" />
<path fill="#000000" d=" M 150.00 54.00 C 152.00 54.00 154.00 54.00 156.00 54.00 C 156.00 56.00 156.00 58.00 156.00 60.00 C 154.00 60.00 152.00 60.00 150.00 60.00 C 150.00 58.00 150.00 56.00 150.00 54.00 Z" />
<path fill="#000000" d=" M 36.00 60.00 C 44.00 60.00 52.00 60.00 60.00 60.00 C 60.00 66.00 60.00 72.00 60.00 78.00 C 54.00 78.00 48.00 78.00 42.00 78.00 C 42.00 76.00 42.00 74.00 42.00 72.00 C 46.00 72.00 50.00 72.00 54.00 72.00 C 54.00 70.00 54.00 68.00 54.00 66.00 C 50.00 66.00 46.00 66.00 42.00 66.00 C 42.00 68.00 42.00 70.00 42.00 72.00 C 38.00 72.00 34.00 72.00 30.00 72.00 C 30.00 70.00 30.00 68.00 30.00 66.00 C 32.00 66.00 34.00 66.00 36.00 66.00 C 36.00 64.00 36.00 62.00 36.00 60.00 Z" />
<path fill="#000000" d=" M 156.00 60.00 C 158.00 60.00 160.00 60.00 162.00 60.00 C 162.00 62.00 162.00 64.00 162.00 66.00 C 160.00 66.00 158.00 66.00 156.00 66.00 C 156.00 64.00 156.00 62.00 156.00 60.00 Z" />
<path fill="#000000" d=" M 168.00 60.00 C 172.00 60.00 176.00 60.00 180.00 60.00 C 180.00 64.00 180.00 68.00 180.00 72.00 C 182.00 72.00 184.00 72.00 186.00 72.00 C 186.00 70.00 186.00 68.00 186.00 66.00 C 190.00 66.00 194.00 66.00 198.00 66.00 C 198.00 68.00 198.00 70.00 198.00 72.00 C 200.00 72.00 202.00 72.00 204.00 72.00 C 204.00 74.00 204.00 76.00 204.00 78.00 C 206.00 78.00 208.00 78.00 210.00 78.00 C 210.00 82.00 210.00 86.00 210.00 90.00 C 208.00 90.00 206.00 90.00 204.00 90.00 C 204.00 88.00 204.00 86.00 204.00 84.00 C 202.00 84.00 200.00 84.00 198.00 84.00 C 198.00 82.00 198.00 80.00 198.00 78.00 C 194.00 78.00 190.00 78.00 186.00 78.00 C 186.00 80.00 186.00 82.00 186.00 84.00 C 184.00 84.00 182.00 84.00 180.00 84.00 C 180.00 82.00 180.00 80.00 180.00 78.00 C 178.00 78.00 176.00 78.00 174.00 78.00 C 174.00 82.00 174.00 86.00 174.00 90.00 C 172.00 90.00 170.00 90.00 168.00 90.00 C 168.00 86.00 168.00 82.00 168.00 78.00 C 166.00 78.00 164.00 78.00 162.00 78.00 C 162.00 76.00 162.00 74.00 162.00 72.00 C 166.00 72.00 170.00 72.00 174.00 72.00 C 174.00 70.00 174.00 68.00 174.00 66.00 C 172.00 66.00 170.00 66.00 168.00 66.00 C 168.00 64.00 168.00 62.00 168.00 60.00 Z" />
<path fill="#000000" d=" M 198.00 60.00 C 200.00 60.00 202.00 60.00 204.00 60.00 C 204.00 62.00 204.00 64.00 204.00 66.00 C 202.00 66.00 200.00 66.00 198.00 66.00 C 198.00 64.00 198.00 62.00 198.00 60.00 Z" />
<path fill="#f90405" d=" M 64.02 86.16 C 65.54 77.40 70.84 69.43 77.44 63.64 C 76.88 70.08 75.61 76.64 76.81 83.08 C 78.49 88.60 84.20 91.36 89.03 93.65 C 87.03 99.21 84.95 104.73 82.90 110.26 C 80.91 109.57 78.91 108.90 76.97 108.08 C 69.91 104.51 65.25 97.35 64.01 89.63 C 63.99 88.47 63.99 87.31 64.02 86.16 Z" />
<path fill="#f90405" d=" M 141.51 63.03 C 147.79 69.74 154.12 77.54 155.08 87.02 C 155.11 95.68 149.93 104.19 142.17 108.06 C 140.22 108.92 138.21 109.63 136.20 110.34 C 134.11 104.80 132.03 99.26 130.05 93.68 C 134.95 91.44 140.72 88.57 142.30 82.96 C 143.42 76.35 142.18 69.62 141.51 63.03 Z" />
<path fill="#000000" d=" M 18.00 66.00 C 20.00 66.00 22.00 66.00 24.00 66.00 C 24.00 70.00 24.00 74.00 24.00 78.00 C 26.00 78.00 28.00 78.00 30.00 78.00 C 30.00 80.00 30.00 82.00 30.00 84.00 C 26.00 84.00 22.00 84.00 18.00 84.00 C 18.00 86.00 18.00 88.00 18.00 90.00 C 16.00 90.00 14.00 90.00 12.00 90.00 C 12.00 86.00 12.00 82.00 12.00 78.00 C 14.00 78.00 16.00 78.00 18.00 78.00 C 18.00 74.00 18.00 70.00 18.00 66.00 Z" />
<path fill="#fefefe" d=" M 42.00 66.00 C 46.00 66.00 50.00 66.00 54.00 66.00 C 54.00 68.00 54.00 70.00 54.00 72.00 C 50.00 72.00 46.00 72.00 42.00 72.00 C 42.00 70.00 42.00 68.00 42.00 66.00 Z" />
<path fill="#000000" d=" M 156.00 78.00 C 158.00 78.00 160.00 78.00 162.00 78.00 C 162.00 80.00 162.00 82.00 162.00 84.00 C 160.00 84.00 158.00 84.00 156.00 84.00 C 156.00 82.00 156.00 80.00 156.00 78.00 Z" />
<path fill="#fefefe" d=" M 174.00 78.00 C 176.00 78.00 178.00 78.00 180.00 78.00 C 180.00 80.00 180.00 82.00 180.00 84.00 C 182.00 84.00 184.00 84.00 186.00 84.00 C 186.00 82.00 186.00 80.00 186.00 78.00 C 190.00 78.00 194.00 78.00 198.00 78.00 C 198.00 80.00 198.00 82.00 198.00 84.00 C 200.00 84.00 202.00 84.00 204.00 84.00 C 204.00 86.00 204.00 88.00 204.00 90.00 C 202.00 90.00 200.00 90.00 198.00 90.00 C 198.00 92.00 198.00 94.00 198.00 96.00 C 196.00 96.00 194.00 96.00 192.00 96.00 C 192.00 94.00 192.00 92.00 192.00 90.00 C 186.00 90.00 180.00 90.00 174.00 90.00 C 174.00 86.00 174.00 82.00 174.00 78.00 Z" />
<path fill="#000000" d=" M 30.00 84.00 C 41.35 84.00 52.69 84.00 64.04 84.00 C 64.03 84.54 64.02 85.62 64.02 86.16 C 63.99 87.31 63.99 88.47 64.01 89.63 C 64.03 93.75 63.99 97.87 64.00 102.00 C 58.66 102.00 53.33 102.00 48.00 102.00 C 48.00 100.00 48.00 98.00 48.00 96.00 C 50.00 96.00 52.00 96.00 54.00 96.00 C 54.00 94.00 54.00 92.00 54.00 90.00 C 52.00 90.00 50.00 90.00 48.00 90.00 C 48.00 92.00 48.00 94.00 48.00 96.00 C 46.00 96.00 44.00 96.00 42.00 96.00 C 42.00 98.00 42.00 100.00 42.00 102.00 C 44.00 102.00 46.00 102.00 48.00 102.00 C 48.00 104.00 48.00 106.00 48.00 108.00 C 46.00 108.00 44.00 108.00 42.00 108.00 C 42.00 112.00 42.00 116.00 42.00 120.00 C 38.00 120.00 34.00 120.00 30.00 120.00 C 30.00 118.00 30.00 116.00 30.00 114.00 C 32.00 114.00 34.00 114.00 36.00 114.00 C 36.00 112.00 36.00 110.00 36.00 108.00 C 34.00 108.00 32.00 108.00 30.00 108.00 C 30.00 106.00 30.00 104.00 30.00 102.00 C 32.00 102.00 34.00 102.00 36.00 102.00 C 36.00 98.00 36.00 94.00 36.00 90.00 C 34.00 90.00 32.00 90.00 30.00 90.00 C 30.00 88.00 30.00 86.00 30.00 84.00 Z" />
<path fill="#000000" d=" M 24.00 90.00 C 26.00 90.00 28.00 90.00 30.00 90.00 C 30.00 94.00 30.00 98.00 30.00 102.00 C 28.00 102.00 26.00 102.00 24.00 102.00 C 24.00 104.00 24.00 106.00 24.00 108.00 C 22.00 108.00 20.00 108.00 18.00 108.00 C 18.00 106.00 18.00 104.00 18.00 102.00 C 16.00 102.00 14.00 102.00 12.00 102.00 C 12.00 100.00 12.00 98.00 12.00 96.00 C 16.00 96.00 20.00 96.00 24.00 96.00 C 24.00 94.00 24.00 92.00 24.00 90.00 Z" />
<path fill="#fefefe" d=" M 30.00 90.00 C 32.00 90.00 34.00 90.00 36.00 90.00 C 36.00 94.00 36.00 98.00 36.00 102.00 C 34.00 102.00 32.00 102.00 30.00 102.00 C 30.00 98.00 30.00 94.00 30.00 90.00 Z" />
<path fill="#fefefe" d=" M 48.00 90.00 C 50.00 90.00 52.00 90.00 54.00 90.00 C 54.00 92.00 54.00 94.00 54.00 96.00 C 52.00 96.00 50.00 96.00 48.00 96.00 C 48.00 94.00 48.00 92.00 48.00 90.00 Z" />
<path fill="#fefefe" d=" M 64.01 89.63 C 65.25 97.35 69.91 104.51 76.97 108.08 C 76.99 125.05 76.98 142.02 76.98 159.00 C 72.65 159.00 68.33 159.00 64.00 159.00 C 64.00 146.00 64.00 133.00 64.00 120.00 C 62.67 120.00 61.33 120.00 60.00 120.00 C 60.00 118.00 60.00 116.00 60.00 114.00 C 61.33 114.00 62.67 114.00 64.00 114.00 C 64.00 112.00 64.00 110.00 64.00 108.00 C 62.67 108.00 61.33 108.00 60.00 108.00 C 60.00 110.00 60.00 112.00 60.00 114.00 C 58.00 114.00 56.00 114.00 54.00 114.00 C 54.00 112.00 54.00 110.00 54.00 108.00 C 52.00 108.00 50.00 108.00 48.00 108.00 C 48.00 106.00 48.00 104.00 48.00 102.00 C 53.33 102.00 58.66 102.00 64.00 102.00 C 63.99 97.87 64.03 93.75 64.01 89.63 Z" />
<path fill="#000000" d=" M 162.00 90.00 C 164.00 90.00 166.00 90.00 168.00 90.00 C 168.00 92.00 168.00 94.00 168.00 96.00 C 170.00 96.00 172.00 96.00 174.00 96.00 C 174.00 94.00 174.00 92.00 174.00 90.00 C 180.00 90.00 186.00 90.00 192.00 90.00 C 192.00 92.00 192.00 94.00 192.00 96.00 C 194.00 96.00 196.00 96.00 198.00 96.00 C 198.00 94.00 198.00 92.00 198.00 90.00 C 200.00 90.00 202.00 90.00 204.00 90.00 C 204.00 94.00 204.00 98.00 204.00 102.00 C 202.00 102.00 200.00 102.00 198.00 102.00 C 198.00 104.00 198.00 106.00 198.00 108.00 C 200.00 108.00 202.00 108.00 204.00 108.00 C 204.00 110.00 204.00 112.00 204.00 114.00 C 206.00 114.00 208.00 114.00 210.00 114.00 C 210.00 116.00 210.00 118.00 210.00 120.00 C 206.00 120.00 202.00 120.00 198.00 120.00 C 198.00 118.00 198.00 116.00 198.00 114.00 C 196.00 114.00 194.00 114.00 192.00 114.00 C 192.00 110.00 192.00 106.00 192.00 102.00 C 190.00 102.00 188.00 102.00 186.00 102.00 C 186.00 100.00 186.00 98.00 186.00 96.00 C 184.00 96.00 182.00 96.00 180.00 96.00 C 180.00 98.00 180.00 100.00 180.00 102.00 C 178.00 102.00 176.00 102.00 174.00 102.00 C 174.00 106.00 174.00 110.00 174.00 114.00 C 172.00 114.00 170.00 114.00 168.00 114.00 C 168.00 110.00 168.00 106.00 168.00 102.00 C 166.00 102.00 164.00 102.00 162.00 102.00 C 162.00 98.00 162.00 94.00 162.00 90.00 Z" />
<path fill="#fefefe" d=" M 168.00 90.00 C 170.00 90.00 172.00 90.00 174.00 90.00 C 174.00 92.00 174.00 94.00 174.00 96.00 C 172.00 96.00 170.00 96.00 168.00 96.00 C 168.00 94.00 168.00 92.00 168.00 90.00 Z" />
<path fill="#000000" d=" M 89.03 93.65 C 102.70 93.62 116.37 93.56 130.05 93.68 C 132.03 99.26 134.11 104.80 136.20 110.34 C 138.21 109.63 140.22 108.92 142.17 108.06 C 142.16 125.04 142.17 142.02 142.16 159.00 C 146.77 159.00 151.39 159.00 156.00 159.00 C 156.00 156.00 156.00 153.00 156.00 150.00 C 158.00 150.00 160.00 150.00 162.00 150.00 C 162.00 152.00 162.00 154.00 162.00 156.00 C 170.00 156.00 178.00 156.00 186.00 156.00 C 186.00 158.00 186.00 160.00 186.00 162.00 C 190.00 162.00 194.00 162.00 198.00 162.00 C 198.00 164.00 198.00 166.00 198.00 168.00 C 200.00 168.00 202.00 168.00 204.00 168.00 C 204.00 170.00 204.00 172.00 204.00 174.00 C 206.00 174.00 208.00 174.00 210.00 174.00 C 210.00 180.00 210.00 186.00 210.00 192.00 C 208.00 192.00 206.00 192.00 204.00 192.00 C 204.00 188.00 204.00 184.00 204.00 180.00 C 202.00 180.00 200.00 180.00 198.00 180.00 C 198.00 178.00 198.00 176.00 198.00 174.00 C 196.00 174.00 194.00 174.00 192.00 174.00 C 192.00 176.00 192.00 178.00 192.00 180.00 C 190.00 180.00 188.00 180.00 186.00 180.00 C 186.00 186.00 186.00 192.00 186.00 198.00 C 188.00 198.00 190.00 198.00 192.00 198.00 C 192.00 200.00 192.00 202.00 192.00 204.00 C 194.00 204.00 196.00 204.00 198.00 204.00 C 198.00 206.00 198.00 208.00 198.00 210.00 C 194.00 210.00 190.00 210.00 186.00 210.00 C 186.00 208.00 186.00 206.00 186.00 204.00 C 184.00 204.00 182.00 204.00 180.00 204.00 C 180.00 206.00 180.00 208.00 180.00 210.00 C 176.00 210.00 172.00 210.00 168.00 210.00 C 168.00 208.00 168.00 206.00 168.00 204.00 C 170.00 204.00 172.00 204.00 174.00 204.00 C 174.00 202.00 174.00 200.00 174.00 198.00 C 176.00 198.00 178.00 198.00 180.00 198.00 C 180.00 196.00 180.00 194.00 180.00 192.00 C 178.00 192.00 176.00 192.00 174.00 192.00 C 174.00 194.00 174.00 196.00 174.00 198.00 C 172.00 198.00 170.00 198.00 168.00 198.00 C 168.00 200.00 168.00 202.00 168.00 204.00 C 166.00 204.00 164.00 204.00 162.00 204.00 C 162.00 206.00 162.00 208.00 162.00 210.00 C 158.00 210.00 154.00 210.00 150.00 210.00 C 150.00 208.00 150.00 206.00 150.00 204.00 C 152.00 204.00 154.00 204.00 156.00 204.00 C 156.00 202.00 156.00 200.00 156.00 198.00 C 158.00 198.00 160.00 198.00 162.00 198.00 C 162.00 194.00 162.00 190.00 162.00 186.00 C 160.00 186.00 158.00 186.00 156.00 186.00 C 156.00 184.00 156.00 182.00 156.00 180.00 C 154.00 180.00 152.00 180.00 150.00 180.00 C 150.00 178.00 150.00 176.00 150.00 174.00 C 152.00 174.00 154.00 174.00 156.00 174.00 C 156.00 170.00 156.00 166.00 156.00 162.00 C 150.00 162.00 144.00 162.00 138.00 162.00 C 138.00 161.25 138.00 159.75 138.00 159.00 C 128.00 159.00 118.00 159.00 108.00 159.00 C 108.00 159.75 108.00 161.25 108.00 162.00 C 106.00 162.00 104.00 162.00 102.00 162.00 C 102.00 164.00 102.00 166.00 102.00 168.00 C 96.00 168.00 90.00 168.00 84.00 168.00 C 84.00 166.00 84.00 164.00 84.00 162.00 C 88.00 162.00 92.00 162.00 96.00 162.00 C 96.00 161.25 96.00 159.75 96.00 159.00 C 92.00 159.00 88.00 159.00 84.00 159.00 C 84.00 159.75 84.00 161.25 84.00 162.00 C 78.00 162.00 72.00 162.00 66.00 162.00 C 66.00 166.00 66.00 170.00 66.00 174.00 C 68.00 174.00 70.00 174.00 72.00 174.00 C 72.00 176.00 72.00 178.00 72.00 180.00 C 70.00 180.00 68.00 180.00 66.00 180.00 C 66.00 182.00 66.00 184.00 66.00 186.00 C 64.00 186.00 62.00 186.00 60.00 186.00 C 60.00 172.00 60.00 158.00 60.00 144.00 C 58.00 144.00 56.00 144.00 54.00 144.00 C 54.00 142.00 54.00 140.00 54.00 138.00 C 56.00 138.00 58.00 138.00 60.00 138.00 C 60.00 132.00 60.00 126.00 60.00 120.00 C 61.33 120.00 62.67 120.00 64.00 120.00 C 64.00 133.00 64.00 146.00 64.00 159.00 C 68.33 159.00 72.65 159.00 76.98 159.00 C 76.98 142.02 76.99 125.05 76.97 108.08 C 78.91 108.90 80.91 109.57 82.90 110.26 C 84.95 104.73 87.03 99.21 89.03 93.65 Z" />
<path fill="#fefefe" d=" M 42.00 96.00 C 44.00 96.00 46.00 96.00 48.00 96.00 C 48.00 98.00 48.00 100.00 48.00 102.00 C 46.00 102.00 44.00 102.00 42.00 102.00 C 42.00 100.00 42.00 98.00 42.00 96.00 Z" />
<path fill="#fefefe" d=" M 24.00 102.00 C 26.00 102.00 28.00 102.00 30.00 102.00 C 30.00 104.00 30.00 106.00 30.00 108.00 C 32.00 108.00 34.00 108.00 36.00 108.00 C 36.00 110.00 36.00 112.00 36.00 114.00 C 34.00 114.00 32.00 114.00 30.00 114.00 C 30.00 116.00 30.00 118.00 30.00 120.00 C 28.00 120.00 26.00 120.00 24.00 120.00 C 24.00 118.00 24.00 116.00 24.00 114.00 C 22.00 114.00 20.00 114.00 18.00 114.00 C 18.00 112.00 18.00 110.00 18.00 108.00 C 20.00 108.00 22.00 108.00 24.00 108.00 C 24.00 106.00 24.00 104.00 24.00 102.00 Z" />
<path fill="#000000" d=" M 156.00 102.00 C 158.00 102.00 160.00 102.00 162.00 102.00 C 162.00 106.00 162.00 110.00 162.00 114.00 C 164.00 114.00 166.00 114.00 168.00 114.00 C 168.00 116.00 168.00 118.00 168.00 120.00 C 164.00 120.00 160.00 120.00 156.00 120.00 C 156.00 114.00 156.00 108.00 156.00 102.00 Z" />
<path fill="#fefefe" d=" M 162.00 102.00 C 164.00 102.00 166.00 102.00 168.00 102.00 C 168.00 106.00 168.00 110.00 168.00 114.00 C 166.00 114.00 164.00 114.00 162.00 114.00 C 162.00 110.00 162.00 106.00 162.00 102.00 Z" />
<path fill="#fefefe" d=" M 198.00 102.00 C 200.00 102.00 202.00 102.00 204.00 102.00 C 204.00 104.00 204.00 106.00 204.00 108.00 C 202.00 108.00 200.00 108.00 198.00 108.00 C 198.00 106.00 198.00 104.00 198.00 102.00 Z" />
<path fill="#000000" d=" M 204.00 102.00 C 206.00 102.00 208.00 102.00 210.00 102.00 C 210.00 104.00 210.00 106.00 210.00 108.00 C 208.00 108.00 206.00 108.00 204.00 108.00 C 204.00 106.00 204.00 104.00 204.00 102.00 Z" />
<path fill="#000000" d=" M 12.00 108.00 C 14.00 108.00 16.00 108.00 18.00 108.00 C 18.00 110.00 18.00 112.00 18.00 114.00 C 20.00 114.00 22.00 114.00 24.00 114.00 C 24.00 116.00 24.00 118.00 24.00 120.00 C 20.00 120.00 16.00 120.00 12.00 120.00 C 12.00 116.00 12.00 112.00 12.00 108.00 Z" />
<path fill="#fefefe" d=" M 42.00 108.00 C 44.00 108.00 46.00 108.00 48.00 108.00 C 48.00 110.00 48.00 112.00 48.00 114.00 C 50.00 114.00 52.00 114.00 54.00 114.00 C 54.00 116.00 54.00 118.00 54.00 120.00 C 52.00 120.00 50.00 120.00 48.00 120.00 C 48.00 122.00 48.00 124.00 48.00 126.00 C 50.00 126.00 52.00 126.00 54.00 126.00 C 54.00 124.00 54.00 122.00 54.00 120.00 C 56.00 120.00 58.00 120.00 60.00 120.00 C 60.00 126.00 60.00 132.00 60.00 138.00 C 58.00 138.00 56.00 138.00 54.00 138.00 C 54.00 136.00 54.00 134.00 54.00 132.00 C 50.00 132.00 46.00 132.00 42.00 132.00 C 42.00 130.00 42.00 128.00 42.00 126.00 C 38.00 126.00 34.00 126.00 30.00 126.00 C 30.00 124.00 30.00 122.00 30.00 120.00 C 34.00 120.00 38.00 120.00 42.00 120.00 C 42.00 116.00 42.00 112.00 42.00 108.00 Z" />
<path fill="#000000" d=" M 48.00 108.00 C 50.00 108.00 52.00 108.00 54.00 108.00 C 54.00 110.00 54.00 112.00 54.00 114.00 C 52.00 114.00 50.00 114.00 48.00 114.00 C 48.00 112.00 48.00 110.00 48.00 108.00 Z" />
<path fill="#000000" d=" M 60.00 108.00 C 61.33 108.00 62.67 108.00 64.00 108.00 C 64.00 110.00 64.00 112.00 64.00 114.00 C 62.67 114.00 61.33 114.00 60.00 114.00 C 60.00 112.00 60.00 110.00 60.00 108.00 Z" />
<path fill="#000000" d=" M 180.00 108.00 C 182.00 108.00 184.00 108.00 186.00 108.00 C 186.00 110.00 186.00 112.00 186.00 114.00 C 184.00 114.00 182.00 114.00 180.00 114.00 C 180.00 112.00 180.00 110.00 180.00 108.00 Z" />
<path fill="#fefefe" d=" M 86.27 112.90 C 88.17 113.32 90.07 113.75 91.96 114.20 C 90.94 117.60 92.13 122.07 96.09 122.74 C 99.96 123.72 102.72 120.20 103.35 116.79 C 104.49 117.05 105.63 117.31 106.76 117.59 C 106.03 120.24 105.25 123.14 102.95 124.91 C 100.35 126.95 96.18 127.78 93.51 125.43 C 89.78 122.19 87.99 117.39 86.27 112.90 Z" />
<path fill="#fefefe" d=" M 126.61 114.15 C 128.51 113.74 130.40 113.32 132.31 112.91 C 130.26 117.96 128.31 124.11 123.01 126.58 C 117.29 128.16 112.38 122.96 111.86 117.56 C 112.99 117.29 114.11 117.02 115.24 116.75 C 116.01 118.53 116.27 120.82 118.12 121.89 C 120.67 123.71 124.60 122.86 126.17 120.15 C 127.39 118.36 126.66 116.14 126.61 114.15 Z" />
<path fill="#000000" d=" M 54.00 114.00 C 56.00 114.00 58.00 114.00 60.00 114.00 C 60.00 116.00 60.00 118.00 60.00 120.00 C 58.00 120.00 56.00 120.00 54.00 120.00 C 54.00 118.00 54.00 116.00 54.00 114.00 Z" />
<path fill="#f90405" d=" M 91.96 114.20 C 92.58 114.32 93.83 114.58 94.46 114.71 C 93.65 116.91 94.01 120.43 97.05 120.41 C 99.58 120.82 100.54 118.12 100.74 116.12 C 101.61 116.35 102.48 116.57 103.35 116.79 C 102.72 120.20 99.96 123.72 96.09 122.74 C 92.13 122.07 90.94 117.60 91.96 114.20 Z" />
<path fill="#f90405" d=" M 124.20 114.76 C 125.00 114.56 125.80 114.36 126.61 114.15 C 126.66 116.14 127.39 118.36 126.17 120.15 C 124.60 122.86 120.67 123.71 118.12 121.89 C 116.27 120.82 116.01 118.53 115.24 116.75 C 115.89 116.62 117.18 116.35 117.83 116.21 C 117.64 118.87 120.39 121.70 122.96 119.99 C 125.08 119.02 124.44 116.56 124.20 114.76 Z" />
<path fill="#000000" d=" M 174.00 114.00 C 176.00 114.00 178.00 114.00 180.00 114.00 C 180.00 116.00 180.00 118.00 180.00 120.00 C 178.00 120.00 176.00 120.00 174.00 120.00 C 174.00 118.00 174.00 116.00 174.00 114.00 Z" />
<path fill="#000000" d=" M 24.00 120.00 C 26.00 120.00 28.00 120.00 30.00 120.00 C 30.00 122.00 30.00 124.00 30.00 126.00 C 34.00 126.00 38.00 126.00 42.00 126.00 C 42.00 128.00 42.00 130.00 42.00 132.00 C 40.00 132.00 38.00 132.00 36.00 132.00 C 36.00 136.00 36.00 140.00 36.00 144.00 C 32.00 144.00 28.00 144.00 24.00 144.00 C 24.00 146.00 24.00 148.00 24.00 150.00 C 26.00 150.00 28.00 150.00 30.00 150.00 C 30.00 154.00 30.00 158.00 30.00 162.00 C 28.00 162.00 26.00 162.00 24.00 162.00 C 24.00 160.00 24.00 158.00 24.00 156.00 C 20.00 156.00 16.00 156.00 12.00 156.00 C 12.00 152.00 12.00 148.00 12.00 144.00 C 14.00 144.00 16.00 144.00 18.00 144.00 C 18.00 140.00 18.00 136.00 18.00 132.00 C 16.00 132.00 14.00 132.00 12.00 132.00 C 12.00 130.00 12.00 128.00 12.00 126.00 C 16.00 126.00 20.00 126.00 24.00 126.00 C 24.00 124.00 24.00 122.00 24.00 120.00 Z" />
<path fill="#000000" d=" M 48.00 120.00 C 50.00 120.00 52.00 120.00 54.00 120.00 C 54.00 122.00 54.00 124.00 54.00 126.00 C 52.00 126.00 50.00 126.00 48.00 126.00 C 48.00 124.00 48.00 122.00 48.00 120.00 Z" />
<path fill="#000000" d=" M 180.00 120.00 C 184.00 120.00 188.00 120.00 192.00 120.00 C 192.00 122.00 192.00 124.00 192.00 126.00 C 188.00 126.00 184.00 126.00 180.00 126.00 C 180.00 124.00 180.00 122.00 180.00 120.00 Z" />
<path fill="#000000" d=" M 162.00 126.00 C 164.00 126.00 166.00 126.00 168.00 126.00 C 168.00 128.00 168.00 130.00 168.00 132.00 C 170.00 132.00 172.00 132.00 174.00 132.00 C 174.00 134.00 174.00 136.00 174.00 138.00 C 176.00 138.00 178.00 138.00 180.00 138.00 C 180.00 142.00 180.00 146.00 180.00 150.00 C 178.00 150.00 176.00 150.00 174.00 150.00 C 174.00 148.00 174.00 146.00 174.00 144.00 C 172.00 144.00 170.00 144.00 168.00 144.00 C 168.00 142.00 168.00 140.00 168.00 138.00 C 164.00 138.00 160.00 138.00 156.00 138.00 C 156.00 136.00 156.00 134.00 156.00 132.00 C 158.00 132.00 160.00 132.00 162.00 132.00 C 162.00 130.00 162.00 128.00 162.00 126.00 Z" />
<path fill="#000000" d=" M 198.00 126.00 C 202.00 126.00 206.00 126.00 210.00 126.00 C 210.00 130.00 210.00 134.00 210.00 138.00 C 208.00 138.00 206.00 138.00 204.00 138.00 C 204.00 136.00 204.00 134.00 204.00 132.00 C 202.00 132.00 200.00 132.00 198.00 132.00 C 198.00 130.00 198.00 128.00 198.00 126.00 Z" />
<path fill="#fefefe" d=" M 24.00 132.00 C 26.00 132.00 28.00 132.00 30.00 132.00 C 30.00 134.00 30.00 136.00 30.00 138.00 C 28.00 138.00 26.00 138.00 24.00 138.00 C 24.00 136.00 24.00 134.00 24.00 132.00 Z" />
<path fill="#fefefe" d=" M 36.00 132.00 C 38.00 132.00 40.00 132.00 42.00 132.00 C 42.00 136.00 42.00 140.00 42.00 144.00 C 40.00 144.00 38.00 144.00 36.00 144.00 C 36.00 140.00 36.00 136.00 36.00 132.00 Z" />
<path fill="#000000" d=" M 42.00 132.00 C 46.00 132.00 50.00 132.00 54.00 132.00 C 54.00 134.00 54.00 136.00 54.00 138.00 C 52.00 138.00 50.00 138.00 48.00 138.00 C 48.00 140.00 48.00 142.00 48.00 144.00 C 46.00 144.00 44.00 144.00 42.00 144.00 C 42.00 140.00 42.00 136.00 42.00 132.00 Z" />
<path fill="#000000" d=" M 180.00 132.00 C 184.00 132.00 188.00 132.00 192.00 132.00 C 192.00 134.00 192.00 136.00 192.00 138.00 C 196.00 138.00 200.00 138.00 204.00 138.00 C 204.00 146.00 204.00 154.00 204.00 162.00 C 202.00 162.00 200.00 162.00 198.00 162.00 C 198.00 158.00 198.00 154.00 198.00 150.00 C 196.00 150.00 194.00 150.00 192.00 150.00 C 192.00 148.00 192.00 146.00 192.00 144.00 C 190.00 144.00 188.00 144.00 186.00 144.00 C 186.00 142.00 186.00 140.00 186.00 138.00 C 184.00 138.00 182.00 138.00 180.00 138.00 C 180.00 136.00 180.00 134.00 180.00 132.00 Z" />
<path fill="#fefefe" d=" M 48.00 138.00 C 50.00 138.00 52.00 138.00 54.00 138.00 C 54.00 140.00 54.00 142.00 54.00 144.00 C 52.00 144.00 50.00 144.00 48.00 144.00 C 48.00 142.00 48.00 140.00 48.00 138.00 Z" />
<path fill="#000000" d=" M 36.00 144.00 C 38.00 144.00 40.00 144.00 42.00 144.00 C 42.00 148.00 42.00 152.00 42.00 156.00 C 46.00 156.00 50.00 156.00 54.00 156.00 C 54.00 158.00 54.00 160.00 54.00 162.00 C 48.00 162.00 42.00 162.00 36.00 162.00 C 36.00 156.00 36.00 150.00 36.00 144.00 Z" />
<path fill="#000000" d=" M 48.00 144.00 C 50.00 144.00 52.00 144.00 54.00 144.00 C 54.00 146.00 54.00 148.00 54.00 150.00 C 52.00 150.00 50.00 150.00 48.00 150.00 C 48.00 148.00 48.00 146.00 48.00 144.00 Z" />
<path fill="#000000" d=" M 186.00 150.00 C 188.00 150.00 190.00 150.00 192.00 150.00 C 192.00 152.00 192.00 154.00 192.00 156.00 C 190.00 156.00 188.00 156.00 186.00 156.00 C 186.00 154.00 186.00 152.00 186.00 150.00 Z" />
<path fill="#fefefe" d=" M 192.00 150.00 C 194.00 150.00 196.00 150.00 198.00 150.00 C 198.00 154.00 198.00 158.00 198.00 162.00 C 194.00 162.00 190.00 162.00 186.00 162.00 C 186.00 160.00 186.00 158.00 186.00 156.00 C 188.00 156.00 190.00 156.00 192.00 156.00 C 192.00 154.00 192.00 152.00 192.00 150.00 Z" />
<path fill="#fefefe" d=" M 84.00 159.00 C 88.00 159.00 92.00 159.00 96.00 159.00 C 96.00 159.75 96.00 161.25 96.00 162.00 C 92.00 162.00 88.00 162.00 84.00 162.00 C 84.00 161.25 84.00 159.75 84.00 159.00 Z" />
<path fill="#fefefe" d=" M 108.00 159.00 C 118.00 159.00 128.00 159.00 138.00 159.00 C 138.00 159.75 138.00 161.25 138.00 162.00 C 132.00 162.00 126.00 162.00 120.00 162.00 C 120.00 166.00 120.00 170.00 120.00 174.00 C 118.00 174.00 116.00 174.00 114.00 174.00 C 114.00 180.00 114.00 186.00 114.00 192.00 C 118.00 192.00 122.00 192.00 126.00 192.00 C 126.00 196.00 126.00 200.00 126.00 204.00 C 122.00 204.00 118.00 204.00 114.00 204.00 C 114.00 202.00 114.00 200.00 114.00 198.00 C 112.00 198.00 110.00 198.00 108.00 198.00 C 108.00 196.00 108.00 194.00 108.00 192.00 C 106.00 192.00 104.00 192.00 102.00 192.00 C 102.00 196.00 102.00 200.00 102.00 204.00 C 100.00 204.00 98.00 204.00 96.00 204.00 C 96.00 202.00 96.00 200.00 96.00 198.00 C 94.00 198.00 92.00 198.00 90.00 198.00 C 90.00 200.00 90.00 202.00 90.00 204.00 C 88.00 204.00 86.00 204.00 84.00 204.00 C 84.00 198.00 84.00 192.00 84.00 186.00 C 88.00 186.00 92.00 186.00 96.00 186.00 C 96.00 182.00 96.00 178.00 96.00 174.00 C 94.00 174.00 92.00 174.00 90.00 174.00 C 90.00 176.00 90.00 178.00 90.00 180.00 C 88.00 180.00 86.00 180.00 84.00 180.00 C 84.00 178.00 84.00 176.00 84.00 174.00 C 82.00 174.00 80.00 174.00 78.00 174.00 C 78.00 172.00 78.00 170.00 78.00 168.00 C 76.00 168.00 74.00 168.00 72.00 168.00 C 72.00 170.00 72.00 172.00 72.00 174.00 C 70.00 174.00 68.00 174.00 66.00 174.00 C 66.00 170.00 66.00 166.00 66.00 162.00 C 72.00 162.00 78.00 162.00 84.00 162.00 C 84.00 164.00 84.00 166.00 84.00 168.00 C 90.00 168.00 96.00 168.00 102.00 168.00 C 102.00 166.00 102.00 164.00 102.00 162.00 C 104.00 162.00 106.00 162.00 108.00 162.00 C 108.00 164.00 108.00 166.00 108.00 168.00 C 110.00 168.00 112.00 168.00 114.00 168.00 C 114.00 166.00 114.00 164.00 114.00 162.00 C 112.00 162.00 110.00 162.00 108.00 162.00 C 108.00 161.25 108.00 159.75 108.00 159.00 Z" />
<path fill="#000000" d=" M 108.00 162.00 C 110.00 162.00 112.00 162.00 114.00 162.00 C 114.00 164.00 114.00 166.00 114.00 168.00 C 112.00 168.00 110.00 168.00 108.00 168.00 C 108.00 166.00 108.00 164.00 108.00 162.00 Z" />
<path fill="#000000" d=" M 120.00 162.00 C 126.00 162.00 132.00 162.00 138.00 162.00 C 138.00 164.00 138.00 166.00 138.00 168.00 C 134.00 168.00 130.00 168.00 126.00 168.00 C 126.00 170.00 126.00 172.00 126.00 174.00 C 130.00 174.00 134.00 174.00 138.00 174.00 C 138.00 172.00 138.00 170.00 138.00 168.00 C 142.00 168.00 146.00 168.00 150.00 168.00 C 150.00 170.00 150.00 172.00 150.00 174.00 C 148.00 174.00 146.00 174.00 144.00 174.00 C 144.00 176.00 144.00 178.00 144.00 180.00 C 142.00 180.00 140.00 180.00 138.00 180.00 C 138.00 182.00 138.00 184.00 138.00 186.00 C 136.00 186.00 134.00 186.00 132.00 186.00 C 132.00 190.00 132.00 194.00 132.00 198.00 C 136.00 198.00 140.00 198.00 144.00 198.00 C 144.00 196.00 144.00 194.00 144.00 192.00 C 142.00 192.00 140.00 192.00 138.00 192.00 C 138.00 190.00 138.00 188.00 138.00 186.00 C 144.00 186.00 150.00 186.00 156.00 186.00 C 156.00 188.00 156.00 190.00 156.00 192.00 C 154.00 192.00 152.00 192.00 150.00 192.00 C 150.00 196.00 150.00 200.00 150.00 204.00 C 148.00 204.00 146.00 204.00 144.00 204.00 C 144.00 206.00 144.00 208.00 144.00 210.00 C 142.00 210.00 140.00 210.00 138.00 210.00 C 138.00 208.00 138.00 206.00 138.00 204.00 C 134.00 204.00 130.00 204.00 126.00 204.00 C 126.00 200.00 126.00 196.00 126.00 192.00 C 122.00 192.00 118.00 192.00 114.00 192.00 C 114.00 186.00 114.00 180.00 114.00 174.00 C 116.00 174.00 118.00 174.00 120.00 174.00 C 120.00 170.00 120.00 166.00 120.00 162.00 Z" />
<path fill="#fefefe" d=" M 138.00 162.00 C 144.00 162.00 150.00 162.00 156.00 162.00 C 156.00 166.00 156.00 170.00 156.00 174.00 C 154.00 174.00 152.00 174.00 150.00 174.00 C 150.00 172.00 150.00 170.00 150.00 168.00 C 146.00 168.00 142.00 168.00 138.00 168.00 C 138.00 166.00 138.00 164.00 138.00 162.00 Z" />
<path fill="#fefefe" d=" M 162.00 162.00 C 168.00 162.00 174.00 162.00 180.00 162.00 C 180.00 168.00 180.00 174.00 180.00 180.00 C 174.00 180.00 168.00 180.00 162.00 180.00 C 162.00 174.00 162.00 168.00 162.00 162.00 Z" />
<path fill="#000000" d=" M 12.00 168.00 C 26.00 168.00 40.00 168.00 54.00 168.00 C 54.00 182.00 54.00 196.00 54.00 210.00 C 40.00 210.00 26.00 210.00 12.00 210.00 C 12.00 196.00 12.00 182.00 12.00 168.00 Z" />
<path fill="#000000" d=" M 72.00 168.00 C 74.00 168.00 76.00 168.00 78.00 168.00 C 78.00 170.00 78.00 172.00 78.00 174.00 C 76.00 174.00 74.00 174.00 72.00 174.00 C 72.00 172.00 72.00 170.00 72.00 168.00 Z" />
<path fill="#fefefe" d=" M 126.00 168.00 C 130.00 168.00 134.00 168.00 138.00 168.00 C 138.00 170.00 138.00 172.00 138.00 174.00 C 134.00 174.00 130.00 174.00 126.00 174.00 C 126.00 172.00 126.00 170.00 126.00 168.00 Z" />
<path fill="#000000" d=" M 168.00 168.00 C 170.00 168.00 172.00 168.00 174.00 168.00 C 174.00 170.00 174.00 172.00 174.00 174.00 C 172.00 174.00 170.00 174.00 168.00 174.00 C 168.00 172.00 168.00 170.00 168.00 168.00 Z" />
<path fill="#fefefe" d=" M 18.00 174.00 C 28.00 174.00 38.00 174.00 48.00 174.00 C 48.00 184.00 48.00 194.00 48.00 204.00 C 38.00 204.00 28.00 204.00 18.00 204.00 C 18.00 194.00 18.00 184.00 18.00 174.00 Z" />
<path fill="#fefefe" d=" M 72.00 174.00 C 74.00 174.00 76.00 174.00 78.00 174.00 C 78.00 178.00 78.00 182.00 78.00 186.00 C 74.00 186.00 70.00 186.00 66.00 186.00 C 66.00 184.00 66.00 182.00 66.00 180.00 C 68.00 180.00 70.00 180.00 72.00 180.00 C 72.00 178.00 72.00 176.00 72.00 174.00 Z" />
<path fill="#000000" d=" M 78.00 174.00 C 80.00 174.00 82.00 174.00 84.00 174.00 C 84.00 176.00 84.00 178.00 84.00 180.00 C 86.00 180.00 88.00 180.00 90.00 180.00 C 90.00 178.00 90.00 176.00 90.00 174.00 C 92.00 174.00 94.00 174.00 96.00 174.00 C 96.00 178.00 96.00 182.00 96.00 186.00 C 92.00 186.00 88.00 186.00 84.00 186.00 C 84.00 192.00 84.00 198.00 84.00 204.00 C 82.00 204.00 80.00 204.00 78.00 204.00 C 78.00 202.00 78.00 200.00 78.00 198.00 C 74.00 198.00 70.00 198.00 66.00 198.00 C 66.00 194.00 66.00 190.00 66.00 186.00 C 70.00 186.00 74.00 186.00 78.00 186.00 C 78.00 182.00 78.00 178.00 78.00 174.00 Z" />
<path fill="#000000" d=" M 102.00 174.00 C 104.00 174.00 106.00 174.00 108.00 174.00 C 108.00 176.00 108.00 178.00 108.00 180.00 C 106.00 180.00 104.00 180.00 102.00 180.00 C 102.00 178.00 102.00 176.00 102.00 174.00 Z" />
<path fill="#fefefe" d=" M 144.00 174.00 C 146.00 174.00 148.00 174.00 150.00 174.00 C 150.00 176.00 150.00 178.00 150.00 180.00 C 152.00 180.00 154.00 180.00 156.00 180.00 C 156.00 182.00 156.00 184.00 156.00 186.00 C 150.00 186.00 144.00 186.00 138.00 186.00 C 138.00 184.00 138.00 182.00 138.00 180.00 C 140.00 180.00 142.00 180.00 144.00 180.00 C 144.00 178.00 144.00 176.00 144.00 174.00 Z" />
<path fill="#000000" d=" M 24.00 180.00 C 30.00 180.00 36.00 180.00 42.00 180.00 C 42.00 186.00 42.00 192.00 42.00 198.00 C 36.00 198.00 30.00 198.00 24.00 198.00 C 24.00 192.00 24.00 186.00 24.00 180.00 Z" />
<path fill="#fefefe" d=" M 120.00 180.00 C 122.00 180.00 124.00 180.00 126.00 180.00 C 126.00 182.00 126.00 184.00 126.00 186.00 C 124.00 186.00 122.00 186.00 120.00 186.00 C 120.00 184.00 120.00 182.00 120.00 180.00 Z" />
<path fill="#fefefe" d=" M 132.00 186.00 C 134.00 186.00 136.00 186.00 138.00 186.00 C 138.00 188.00 138.00 190.00 138.00 192.00 C 140.00 192.00 142.00 192.00 144.00 192.00 C 144.00 194.00 144.00 196.00 144.00 198.00 C 140.00 198.00 136.00 198.00 132.00 198.00 C 132.00 194.00 132.00 190.00 132.00 186.00 Z" />
<path fill="#fefefe" d=" M 156.00 186.00 C 158.00 186.00 160.00 186.00 162.00 186.00 C 162.00 190.00 162.00 194.00 162.00 198.00 C 160.00 198.00 158.00 198.00 156.00 198.00 C 156.00 200.00 156.00 202.00 156.00 204.00 C 154.00 204.00 152.00 204.00 150.00 204.00 C 150.00 200.00 150.00 196.00 150.00 192.00 C 152.00 192.00 154.00 192.00 156.00 192.00 C 156.00 190.00 156.00 188.00 156.00 186.00 Z" />
<path fill="#000000" d=" M 192.00 186.00 C 194.00 186.00 196.00 186.00 198.00 186.00 C 198.00 188.00 198.00 190.00 198.00 192.00 C 196.00 192.00 194.00 192.00 192.00 192.00 C 192.00 190.00 192.00 188.00 192.00 186.00 Z" />
<path fill="#000000" d=" M 102.00 192.00 C 104.00 192.00 106.00 192.00 108.00 192.00 C 108.00 194.00 108.00 196.00 108.00 198.00 C 110.00 198.00 112.00 198.00 114.00 198.00 C 114.00 200.00 114.00 202.00 114.00 204.00 C 118.00 204.00 122.00 204.00 126.00 204.00 C 126.00 206.00 126.00 208.00 126.00 210.00 C 120.00 210.00 114.00 210.00 108.00 210.00 C 108.00 208.00 108.00 206.00 108.00 204.00 C 106.00 204.00 104.00 204.00 102.00 204.00 C 102.00 200.00 102.00 196.00 102.00 192.00 Z" />
<path fill="#fefefe" d=" M 174.00 192.00 C 176.00 192.00 178.00 192.00 180.00 192.00 C 180.00 194.00 180.00 196.00 180.00 198.00 C 178.00 198.00 176.00 198.00 174.00 198.00 C 174.00 196.00 174.00 194.00 174.00 192.00 Z" />
<path fill="#000000" d=" M 90.00 198.00 C 92.00 198.00 94.00 198.00 96.00 198.00 C 96.00 200.00 96.00 202.00 96.00 204.00 C 94.00 204.00 92.00 204.00 90.00 204.00 C 90.00 202.00 90.00 200.00 90.00 198.00 Z" />
<path fill="#fefefe" d=" M 168.00 198.00 C 170.00 198.00 172.00 198.00 174.00 198.00 C 174.00 200.00 174.00 202.00 174.00 204.00 C 172.00 204.00 170.00 204.00 168.00 204.00 C 168.00 202.00 168.00 200.00 168.00 198.00 Z" />
<path fill="#000000" d=" M 84.00 204.00 C 86.00 204.00 88.00 204.00 90.00 204.00 C 90.00 206.00 90.00 208.00 90.00 210.00 C 88.00 210.00 86.00 210.00 84.00 210.00 C 84.00 208.00 84.00 206.00 84.00 204.00 Z" />
<path fill="#000000" d=" M 96.00 204.00 C 98.00 204.00 100.00 204.00 102.00 204.00 C 102.00 206.00 102.00 208.00 102.00 210.00 C 100.00 210.00 98.00 210.00 96.00 210.00 C 96.00 208.00 96.00 206.00 96.00 204.00 Z" />
<path fill="#000000" d=" M 204.00 204.00 C 206.00 204.00 208.00 204.00 210.00 204.00 C 210.00 206.00 210.00 208.00 210.00 210.00 C 208.00 210.00 206.00 210.00 204.00 210.00 C 204.00 208.00 204.00 206.00 204.00 204.00 Z" />
</svg>
